%TF.GenerationSoftware,KiCad,Pcbnew,(6.0.5)*%
%TF.CreationDate,2022-05-16T23:14:11-04:00*%
%TF.ProjectId,keybert,6b657962-6572-4742-9e6b-696361645f70,0.0.1a*%
%TF.SameCoordinates,Original*%
%TF.FileFunction,Legend,Bot*%
%TF.FilePolarity,Positive*%
%FSLAX46Y46*%
G04 Gerber Fmt 4.6, Leading zero omitted, Abs format (unit mm)*
G04 Created by KiCad (PCBNEW (6.0.5)) date 2022-05-16 23:14:11*
%MOMM*%
%LPD*%
G01*
G04 APERTURE LIST*
%ADD10C,0.150000*%
%ADD11C,0.010000*%
%ADD12C,0.381000*%
%ADD13R,1.600000X1.600000*%
%ADD14C,1.600000*%
%ADD15R,1.752600X1.752600*%
%ADD16C,1.752600*%
%ADD17C,2.200000*%
%ADD18O,1.600000X1.600000*%
%ADD19C,1.500000*%
%ADD20O,2.200000X1.600000*%
%ADD21C,1.701800*%
%ADD22C,3.987800*%
%ADD23C,2.286000*%
%ADD24R,1.600000X1.200000*%
%ADD25R,1.200000X1.600000*%
%ADD26R,3.250000X2.000000*%
%ADD27R,2.000000X3.250000*%
G04 APERTURE END LIST*
D10*
X146700119Y-66462021D02*
X147176309Y-66462021D01*
X147176309Y-65462021D01*
X146366785Y-66462021D02*
X146366785Y-65795355D01*
X146366785Y-65462021D02*
X146414404Y-65509641D01*
X146366785Y-65557260D01*
X146319166Y-65509641D01*
X146366785Y-65462021D01*
X146366785Y-65557260D01*
X145462023Y-66414402D02*
X145557261Y-66462021D01*
X145747738Y-66462021D01*
X145842976Y-66414402D01*
X145890595Y-66366783D01*
X145938214Y-66271545D01*
X145938214Y-65985831D01*
X145890595Y-65890593D01*
X145842976Y-65842974D01*
X145747738Y-65795355D01*
X145557261Y-65795355D01*
X145462023Y-65842974D01*
X144652500Y-66414402D02*
X144747738Y-66462021D01*
X144938214Y-66462021D01*
X145033452Y-66414402D01*
X145081071Y-66319164D01*
X145081071Y-65938212D01*
X145033452Y-65842974D01*
X144938214Y-65795355D01*
X144747738Y-65795355D01*
X144652500Y-65842974D01*
X144604880Y-65938212D01*
X144604880Y-66033450D01*
X145081071Y-66128688D01*
X144176309Y-65795355D02*
X144176309Y-66462021D01*
X144176309Y-65890593D02*
X144128690Y-65842974D01*
X144033452Y-65795355D01*
X143890595Y-65795355D01*
X143795357Y-65842974D01*
X143747738Y-65938212D01*
X143747738Y-66462021D01*
X143319166Y-66414402D02*
X143223928Y-66462021D01*
X143033452Y-66462021D01*
X142938214Y-66414402D01*
X142890595Y-66319164D01*
X142890595Y-66271545D01*
X142938214Y-66176307D01*
X143033452Y-66128688D01*
X143176309Y-66128688D01*
X143271547Y-66081069D01*
X143319166Y-65985831D01*
X143319166Y-65938212D01*
X143271547Y-65842974D01*
X143176309Y-65795355D01*
X143033452Y-65795355D01*
X142938214Y-65842974D01*
X142081071Y-66414402D02*
X142176309Y-66462021D01*
X142366785Y-66462021D01*
X142462023Y-66414402D01*
X142509642Y-66319164D01*
X142509642Y-65938212D01*
X142462023Y-65842974D01*
X142366785Y-65795355D01*
X142176309Y-65795355D01*
X142081071Y-65842974D01*
X142033452Y-65938212D01*
X142033452Y-66033450D01*
X142509642Y-66128688D01*
X141176309Y-66462021D02*
X141176309Y-65462021D01*
X141176309Y-66414402D02*
X141271547Y-66462021D01*
X141462023Y-66462021D01*
X141557261Y-66414402D01*
X141604880Y-66366783D01*
X141652500Y-66271545D01*
X141652500Y-65985831D01*
X141604880Y-65890593D01*
X141557261Y-65842974D01*
X141462023Y-65795355D01*
X141271547Y-65795355D01*
X141176309Y-65842974D01*
X139509642Y-65795355D02*
X139509642Y-66462021D01*
X139938214Y-65795355D02*
X139938214Y-66319164D01*
X139890595Y-66414402D01*
X139795357Y-66462021D01*
X139652500Y-66462021D01*
X139557261Y-66414402D01*
X139509642Y-66366783D01*
X139033452Y-65795355D02*
X139033452Y-66462021D01*
X139033452Y-65890593D02*
X138985833Y-65842974D01*
X138890595Y-65795355D01*
X138747738Y-65795355D01*
X138652500Y-65842974D01*
X138604880Y-65938212D01*
X138604880Y-66462021D01*
X137700119Y-66462021D02*
X137700119Y-65462021D01*
X137700119Y-66414402D02*
X137795357Y-66462021D01*
X137985833Y-66462021D01*
X138081071Y-66414402D01*
X138128690Y-66366783D01*
X138176309Y-66271545D01*
X138176309Y-65985831D01*
X138128690Y-65890593D01*
X138081071Y-65842974D01*
X137985833Y-65795355D01*
X137795357Y-65795355D01*
X137700119Y-65842974D01*
X136842976Y-66414402D02*
X136938214Y-66462021D01*
X137128690Y-66462021D01*
X137223928Y-66414402D01*
X137271547Y-66319164D01*
X137271547Y-65938212D01*
X137223928Y-65842974D01*
X137128690Y-65795355D01*
X136938214Y-65795355D01*
X136842976Y-65842974D01*
X136795357Y-65938212D01*
X136795357Y-66033450D01*
X137271547Y-66128688D01*
X136366785Y-66462021D02*
X136366785Y-65795355D01*
X136366785Y-65985831D02*
X136319166Y-65890593D01*
X136271547Y-65842974D01*
X136176309Y-65795355D01*
X136081071Y-65795355D01*
X134414404Y-66366783D02*
X134462023Y-66414402D01*
X134604880Y-66462021D01*
X134700119Y-66462021D01*
X134842976Y-66414402D01*
X134938214Y-66319164D01*
X134985833Y-66223926D01*
X135033452Y-66033450D01*
X135033452Y-65890593D01*
X134985833Y-65700117D01*
X134938214Y-65604879D01*
X134842976Y-65509641D01*
X134700119Y-65462021D01*
X134604880Y-65462021D01*
X134462023Y-65509641D01*
X134414404Y-65557260D01*
X133985833Y-65938212D02*
X133652500Y-65938212D01*
X133509642Y-66462021D02*
X133985833Y-66462021D01*
X133985833Y-65462021D01*
X133509642Y-65462021D01*
X132509642Y-66462021D02*
X132842976Y-65985831D01*
X133081071Y-66462021D02*
X133081071Y-65462021D01*
X132700119Y-65462021D01*
X132604880Y-65509641D01*
X132557261Y-65557260D01*
X132509642Y-65652498D01*
X132509642Y-65795355D01*
X132557261Y-65890593D01*
X132604880Y-65938212D01*
X132700119Y-65985831D01*
X133081071Y-65985831D01*
X132081071Y-66462021D02*
X132081071Y-65462021D01*
X131509642Y-66462021D01*
X131509642Y-65462021D01*
X131033452Y-66081069D02*
X130271547Y-66081069D01*
X129604880Y-65462021D02*
X129414404Y-65462021D01*
X129319166Y-65509641D01*
X129223928Y-65604879D01*
X129176309Y-65795355D01*
X129176309Y-66128688D01*
X129223928Y-66319164D01*
X129319166Y-66414402D01*
X129414404Y-66462021D01*
X129604880Y-66462021D01*
X129700119Y-66414402D01*
X129795357Y-66319164D01*
X129842976Y-66128688D01*
X129842976Y-65795355D01*
X129795357Y-65604879D01*
X129700119Y-65509641D01*
X129604880Y-65462021D01*
X128747738Y-66462021D02*
X128747738Y-65462021D01*
X128747738Y-65938212D02*
X128176309Y-65938212D01*
X128176309Y-66462021D02*
X128176309Y-65462021D01*
X127223928Y-66462021D02*
X127700119Y-66462021D01*
X127700119Y-65462021D01*
X126890595Y-66081069D02*
X126128690Y-66081069D01*
X125652500Y-66462021D02*
X125652500Y-65462021D01*
X125271547Y-65462021D01*
X125176309Y-65509641D01*
X125128690Y-65557260D01*
X125081071Y-65652498D01*
X125081071Y-65795355D01*
X125128690Y-65890593D01*
X125176309Y-65938212D01*
X125271547Y-65985831D01*
X125652500Y-65985831D01*
X123985833Y-65795355D02*
X123747738Y-66462021D01*
X123509642Y-65795355D01*
X123176309Y-65557260D02*
X123128690Y-65509641D01*
X123033452Y-65462021D01*
X122795357Y-65462021D01*
X122700119Y-65509641D01*
X122652500Y-65557260D01*
X122604880Y-65652498D01*
X122604880Y-65747736D01*
X122652500Y-65890593D01*
X123223928Y-66462021D01*
X122604880Y-66462021D01*
X121271547Y-66462021D02*
X121366785Y-66414402D01*
X121414404Y-66366783D01*
X121462023Y-66271545D01*
X121462023Y-65985831D01*
X121414404Y-65890593D01*
X121366785Y-65842974D01*
X121271547Y-65795355D01*
X121128690Y-65795355D01*
X121033452Y-65842974D01*
X120985833Y-65890593D01*
X120938214Y-65985831D01*
X120938214Y-66271545D01*
X120985833Y-66366783D01*
X121033452Y-66414402D01*
X121128690Y-66462021D01*
X121271547Y-66462021D01*
X120509642Y-66462021D02*
X120509642Y-65795355D01*
X120509642Y-65985831D02*
X120462023Y-65890593D01*
X120414404Y-65842974D01*
X120319166Y-65795355D01*
X120223928Y-65795355D01*
X118985833Y-66462021D02*
X119081071Y-66414402D01*
X119128690Y-66319164D01*
X119128690Y-65462021D01*
X118176309Y-66462021D02*
X118176309Y-65938212D01*
X118223928Y-65842974D01*
X118319166Y-65795355D01*
X118509642Y-65795355D01*
X118604880Y-65842974D01*
X118176309Y-66414402D02*
X118271547Y-66462021D01*
X118509642Y-66462021D01*
X118604880Y-66414402D01*
X118652500Y-66319164D01*
X118652500Y-66223926D01*
X118604880Y-66128688D01*
X118509642Y-66081069D01*
X118271547Y-66081069D01*
X118176309Y-66033450D01*
X117842976Y-65795355D02*
X117462023Y-65795355D01*
X117700119Y-65462021D02*
X117700119Y-66319164D01*
X117652500Y-66414402D01*
X117557261Y-66462021D01*
X117462023Y-66462021D01*
X116747738Y-66414402D02*
X116842976Y-66462021D01*
X117033452Y-66462021D01*
X117128690Y-66414402D01*
X117176309Y-66319164D01*
X117176309Y-65938212D01*
X117128690Y-65842974D01*
X117033452Y-65795355D01*
X116842976Y-65795355D01*
X116747738Y-65842974D01*
X116700119Y-65938212D01*
X116700119Y-66033450D01*
X117176309Y-66128688D01*
X116271547Y-66462021D02*
X116271547Y-65795355D01*
X116271547Y-65985831D02*
X116223928Y-65890593D01*
X116176309Y-65842974D01*
X116081071Y-65795355D01*
X115985833Y-65795355D01*
X141628690Y-68452974D02*
X141676309Y-68405355D01*
X141771547Y-68262498D01*
X141819166Y-68167260D01*
X141866785Y-68024402D01*
X141914404Y-67786307D01*
X141914404Y-67595831D01*
X141866785Y-67357736D01*
X141819166Y-67214879D01*
X141771547Y-67119641D01*
X141676309Y-66976783D01*
X141628690Y-66929164D01*
X141247738Y-68072021D02*
X141247738Y-67072021D01*
X140819166Y-68072021D02*
X140819166Y-67548212D01*
X140866785Y-67452974D01*
X140962023Y-67405355D01*
X141104880Y-67405355D01*
X141200119Y-67452974D01*
X141247738Y-67500593D01*
X140485833Y-67405355D02*
X140104880Y-67405355D01*
X140342976Y-67072021D02*
X140342976Y-67929164D01*
X140295357Y-68024402D01*
X140200119Y-68072021D01*
X140104880Y-68072021D01*
X139914404Y-67405355D02*
X139533452Y-67405355D01*
X139771547Y-67072021D02*
X139771547Y-67929164D01*
X139723928Y-68024402D01*
X139628690Y-68072021D01*
X139533452Y-68072021D01*
X139200119Y-67405355D02*
X139200119Y-68405355D01*
X139200119Y-67452974D02*
X139104880Y-67405355D01*
X138914404Y-67405355D01*
X138819166Y-67452974D01*
X138771547Y-67500593D01*
X138723928Y-67595831D01*
X138723928Y-67881545D01*
X138771547Y-67976783D01*
X138819166Y-68024402D01*
X138914404Y-68072021D01*
X139104880Y-68072021D01*
X139200119Y-68024402D01*
X138342976Y-68024402D02*
X138247738Y-68072021D01*
X138057261Y-68072021D01*
X137962023Y-68024402D01*
X137914404Y-67929164D01*
X137914404Y-67881545D01*
X137962023Y-67786307D01*
X138057261Y-67738688D01*
X138200119Y-67738688D01*
X138295357Y-67691069D01*
X138342976Y-67595831D01*
X138342976Y-67548212D01*
X138295357Y-67452974D01*
X138200119Y-67405355D01*
X138057261Y-67405355D01*
X137962023Y-67452974D01*
X137485833Y-67976783D02*
X137438214Y-68024402D01*
X137485833Y-68072021D01*
X137533452Y-68024402D01*
X137485833Y-67976783D01*
X137485833Y-68072021D01*
X137485833Y-67452974D02*
X137438214Y-67500593D01*
X137485833Y-67548212D01*
X137533452Y-67500593D01*
X137485833Y-67452974D01*
X137485833Y-67548212D01*
X136295357Y-67024402D02*
X137152500Y-68310117D01*
X135247738Y-67024402D02*
X136104880Y-68310117D01*
X134485833Y-68024402D02*
X134581071Y-68072021D01*
X134771547Y-68072021D01*
X134866785Y-68024402D01*
X134914404Y-67976783D01*
X134962023Y-67881545D01*
X134962023Y-67595831D01*
X134914404Y-67500593D01*
X134866785Y-67452974D01*
X134771547Y-67405355D01*
X134581071Y-67405355D01*
X134485833Y-67452974D01*
X133676309Y-68024402D02*
X133771547Y-68072021D01*
X133962023Y-68072021D01*
X134057261Y-68024402D01*
X134104880Y-67929164D01*
X134104880Y-67548212D01*
X134057261Y-67452974D01*
X133962023Y-67405355D01*
X133771547Y-67405355D01*
X133676309Y-67452974D01*
X133628690Y-67548212D01*
X133628690Y-67643450D01*
X134104880Y-67738688D01*
X133200119Y-68072021D02*
X133200119Y-67405355D01*
X133200119Y-67595831D02*
X133152500Y-67500593D01*
X133104880Y-67452974D01*
X133009642Y-67405355D01*
X132914404Y-67405355D01*
X132581071Y-67405355D02*
X132581071Y-68072021D01*
X132581071Y-67500593D02*
X132533452Y-67452974D01*
X132438214Y-67405355D01*
X132295357Y-67405355D01*
X132200119Y-67452974D01*
X132152500Y-67548212D01*
X132152500Y-68072021D01*
X131676309Y-67976783D02*
X131628690Y-68024402D01*
X131676309Y-68072021D01*
X131723928Y-68024402D01*
X131676309Y-67976783D01*
X131676309Y-68072021D01*
X130771547Y-68024402D02*
X130866785Y-68072021D01*
X131057261Y-68072021D01*
X131152500Y-68024402D01*
X131200119Y-67976783D01*
X131247738Y-67881545D01*
X131247738Y-67595831D01*
X131200119Y-67500593D01*
X131152500Y-67452974D01*
X131057261Y-67405355D01*
X130866785Y-67405355D01*
X130771547Y-67452974D01*
X130342976Y-68072021D02*
X130342976Y-67072021D01*
X129914404Y-68072021D02*
X129914404Y-67548212D01*
X129962023Y-67452974D01*
X130057261Y-67405355D01*
X130200119Y-67405355D01*
X130295357Y-67452974D01*
X130342976Y-67500593D01*
X128723928Y-67024402D02*
X129581071Y-68310117D01*
X127962023Y-68024402D02*
X128057261Y-68072021D01*
X128247738Y-68072021D01*
X128342976Y-68024402D01*
X128390595Y-67976783D01*
X128438214Y-67881545D01*
X128438214Y-67595831D01*
X128390595Y-67500593D01*
X128342976Y-67452974D01*
X128247738Y-67405355D01*
X128057261Y-67405355D01*
X127962023Y-67452974D01*
X127152500Y-68024402D02*
X127247738Y-68072021D01*
X127438214Y-68072021D01*
X127533452Y-68024402D01*
X127581071Y-67929164D01*
X127581071Y-67548212D01*
X127533452Y-67452974D01*
X127438214Y-67405355D01*
X127247738Y-67405355D01*
X127152500Y-67452974D01*
X127104880Y-67548212D01*
X127104880Y-67643450D01*
X127581071Y-67738688D01*
X126676309Y-68072021D02*
X126676309Y-67405355D01*
X126676309Y-67595831D02*
X126628690Y-67500593D01*
X126581071Y-67452974D01*
X126485833Y-67405355D01*
X126390595Y-67405355D01*
X126057261Y-67405355D02*
X126057261Y-68072021D01*
X126057261Y-67500593D02*
X126009642Y-67452974D01*
X125914404Y-67405355D01*
X125771547Y-67405355D01*
X125676309Y-67452974D01*
X125628690Y-67548212D01*
X125628690Y-68072021D01*
X125152500Y-67691069D02*
X124390595Y-67691069D01*
X123771547Y-68072021D02*
X123866785Y-68024402D01*
X123914404Y-67976783D01*
X123962023Y-67881545D01*
X123962023Y-67595831D01*
X123914404Y-67500593D01*
X123866785Y-67452974D01*
X123771547Y-67405355D01*
X123628690Y-67405355D01*
X123533452Y-67452974D01*
X123485833Y-67500593D01*
X123438214Y-67595831D01*
X123438214Y-67881545D01*
X123485833Y-67976783D01*
X123533452Y-68024402D01*
X123628690Y-68072021D01*
X123771547Y-68072021D01*
X123009642Y-68072021D02*
X123009642Y-67072021D01*
X122581071Y-68072021D02*
X122581071Y-67548212D01*
X122628690Y-67452974D01*
X122723928Y-67405355D01*
X122866785Y-67405355D01*
X122962023Y-67452974D01*
X123009642Y-67500593D01*
X121962023Y-68072021D02*
X122057261Y-68024402D01*
X122104880Y-67929164D01*
X122104880Y-67072021D01*
X121676309Y-68452974D02*
X121628690Y-68405355D01*
X121533452Y-68262498D01*
X121485833Y-68167260D01*
X121438214Y-68024402D01*
X121390595Y-67786307D01*
X121390595Y-67595831D01*
X121438214Y-67357736D01*
X121485833Y-67214879D01*
X121533452Y-67119641D01*
X121628690Y-66976783D01*
X121676309Y-66929164D01*
X134055773Y-137910771D02*
X134055773Y-136910771D01*
X133627202Y-137910771D02*
X133627202Y-137386962D01*
X133674821Y-137291724D01*
X133770059Y-137244105D01*
X133912916Y-137244105D01*
X134008154Y-137291724D01*
X134055773Y-137339343D01*
X133293869Y-137244105D02*
X132912916Y-137244105D01*
X133151011Y-136910771D02*
X133151011Y-137767914D01*
X133103392Y-137863152D01*
X133008154Y-137910771D01*
X132912916Y-137910771D01*
X132722440Y-137244105D02*
X132341488Y-137244105D01*
X132579583Y-136910771D02*
X132579583Y-137767914D01*
X132531964Y-137863152D01*
X132436726Y-137910771D01*
X132341488Y-137910771D01*
X132008154Y-137244105D02*
X132008154Y-138244105D01*
X132008154Y-137291724D02*
X131912916Y-137244105D01*
X131722440Y-137244105D01*
X131627202Y-137291724D01*
X131579583Y-137339343D01*
X131531964Y-137434581D01*
X131531964Y-137720295D01*
X131579583Y-137815533D01*
X131627202Y-137863152D01*
X131722440Y-137910771D01*
X131912916Y-137910771D01*
X132008154Y-137863152D01*
X131151011Y-137863152D02*
X131055773Y-137910771D01*
X130865297Y-137910771D01*
X130770059Y-137863152D01*
X130722440Y-137767914D01*
X130722440Y-137720295D01*
X130770059Y-137625057D01*
X130865297Y-137577438D01*
X131008154Y-137577438D01*
X131103392Y-137529819D01*
X131151011Y-137434581D01*
X131151011Y-137386962D01*
X131103392Y-137291724D01*
X131008154Y-137244105D01*
X130865297Y-137244105D01*
X130770059Y-137291724D01*
X130293869Y-137815533D02*
X130246250Y-137863152D01*
X130293869Y-137910771D01*
X130341488Y-137863152D01*
X130293869Y-137815533D01*
X130293869Y-137910771D01*
X130293869Y-137291724D02*
X130246250Y-137339343D01*
X130293869Y-137386962D01*
X130341488Y-137339343D01*
X130293869Y-137291724D01*
X130293869Y-137386962D01*
X129103392Y-136863152D02*
X129960535Y-138148867D01*
X128055773Y-136863152D02*
X128912916Y-138148867D01*
X127293869Y-137244105D02*
X127293869Y-138053629D01*
X127341488Y-138148867D01*
X127389107Y-138196486D01*
X127484345Y-138244105D01*
X127627202Y-138244105D01*
X127722440Y-138196486D01*
X127293869Y-137863152D02*
X127389107Y-137910771D01*
X127579583Y-137910771D01*
X127674821Y-137863152D01*
X127722440Y-137815533D01*
X127770059Y-137720295D01*
X127770059Y-137434581D01*
X127722440Y-137339343D01*
X127674821Y-137291724D01*
X127579583Y-137244105D01*
X127389107Y-137244105D01*
X127293869Y-137291724D01*
X126817678Y-137910771D02*
X126817678Y-137244105D01*
X126817678Y-136910771D02*
X126865297Y-136958391D01*
X126817678Y-137006010D01*
X126770059Y-136958391D01*
X126817678Y-136910771D01*
X126817678Y-137006010D01*
X126484345Y-137244105D02*
X126103392Y-137244105D01*
X126341488Y-136910771D02*
X126341488Y-137767914D01*
X126293869Y-137863152D01*
X126198630Y-137910771D01*
X126103392Y-137910771D01*
X125770059Y-137910771D02*
X125770059Y-136910771D01*
X125341488Y-137910771D02*
X125341488Y-137386962D01*
X125389107Y-137291724D01*
X125484345Y-137244105D01*
X125627202Y-137244105D01*
X125722440Y-137291724D01*
X125770059Y-137339343D01*
X124436726Y-137244105D02*
X124436726Y-137910771D01*
X124865297Y-137244105D02*
X124865297Y-137767914D01*
X124817678Y-137863152D01*
X124722440Y-137910771D01*
X124579583Y-137910771D01*
X124484345Y-137863152D01*
X124436726Y-137815533D01*
X123960535Y-137910771D02*
X123960535Y-136910771D01*
X123960535Y-137291724D02*
X123865297Y-137244105D01*
X123674821Y-137244105D01*
X123579583Y-137291724D01*
X123531964Y-137339343D01*
X123484345Y-137434581D01*
X123484345Y-137720295D01*
X123531964Y-137815533D01*
X123579583Y-137863152D01*
X123674821Y-137910771D01*
X123865297Y-137910771D01*
X123960535Y-137863152D01*
X123055773Y-137815533D02*
X123008154Y-137863152D01*
X123055773Y-137910771D01*
X123103392Y-137863152D01*
X123055773Y-137815533D01*
X123055773Y-137910771D01*
X122151011Y-137863152D02*
X122246250Y-137910771D01*
X122436726Y-137910771D01*
X122531964Y-137863152D01*
X122579583Y-137815533D01*
X122627202Y-137720295D01*
X122627202Y-137434581D01*
X122579583Y-137339343D01*
X122531964Y-137291724D01*
X122436726Y-137244105D01*
X122246250Y-137244105D01*
X122151011Y-137291724D01*
X121579583Y-137910771D02*
X121674821Y-137863152D01*
X121722440Y-137815533D01*
X121770059Y-137720295D01*
X121770059Y-137434581D01*
X121722440Y-137339343D01*
X121674821Y-137291724D01*
X121579583Y-137244105D01*
X121436726Y-137244105D01*
X121341488Y-137291724D01*
X121293869Y-137339343D01*
X121246250Y-137434581D01*
X121246250Y-137720295D01*
X121293869Y-137815533D01*
X121341488Y-137863152D01*
X121436726Y-137910771D01*
X121579583Y-137910771D01*
X120817678Y-137910771D02*
X120817678Y-137244105D01*
X120817678Y-137339343D02*
X120770059Y-137291724D01*
X120674821Y-137244105D01*
X120531964Y-137244105D01*
X120436726Y-137291724D01*
X120389107Y-137386962D01*
X120389107Y-137910771D01*
X120389107Y-137386962D02*
X120341488Y-137291724D01*
X120246250Y-137244105D01*
X120103392Y-137244105D01*
X120008154Y-137291724D01*
X119960535Y-137386962D01*
X119960535Y-137910771D01*
X118770059Y-136863152D02*
X119627202Y-138148867D01*
X118436726Y-137910771D02*
X118436726Y-137244105D01*
X118436726Y-137434581D02*
X118389107Y-137339343D01*
X118341488Y-137291724D01*
X118246250Y-137244105D01*
X118151011Y-137244105D01*
X117817678Y-137910771D02*
X117817678Y-137244105D01*
X117817678Y-136910771D02*
X117865297Y-136958391D01*
X117817678Y-137006010D01*
X117770059Y-136958391D01*
X117817678Y-136910771D01*
X117817678Y-137006010D01*
X116912916Y-137244105D02*
X116912916Y-138053629D01*
X116960535Y-138148867D01*
X117008154Y-138196486D01*
X117103392Y-138244105D01*
X117246250Y-138244105D01*
X117341488Y-138196486D01*
X116912916Y-137863152D02*
X117008154Y-137910771D01*
X117198630Y-137910771D01*
X117293869Y-137863152D01*
X117341488Y-137815533D01*
X117389107Y-137720295D01*
X117389107Y-137434581D01*
X117341488Y-137339343D01*
X117293869Y-137291724D01*
X117198630Y-137244105D01*
X117008154Y-137244105D01*
X116912916Y-137291724D01*
X116008154Y-137244105D02*
X116008154Y-138053629D01*
X116055773Y-138148867D01*
X116103392Y-138196486D01*
X116198630Y-138244105D01*
X116341488Y-138244105D01*
X116436726Y-138196486D01*
X116008154Y-137863152D02*
X116103392Y-137910771D01*
X116293869Y-137910771D01*
X116389107Y-137863152D01*
X116436726Y-137815533D01*
X116484345Y-137720295D01*
X116484345Y-137434581D01*
X116436726Y-137339343D01*
X116389107Y-137291724D01*
X116293869Y-137244105D01*
X116103392Y-137244105D01*
X116008154Y-137291724D01*
X115674821Y-137244105D02*
X115293869Y-137244105D01*
X115531964Y-136910771D02*
X115531964Y-137767914D01*
X115484345Y-137863152D01*
X115389107Y-137910771D01*
X115293869Y-137910771D01*
X114960535Y-137910771D02*
X114960535Y-137244105D01*
X114960535Y-137434581D02*
X114912916Y-137339343D01*
X114865297Y-137291724D01*
X114770059Y-137244105D01*
X114674821Y-137244105D01*
X113912916Y-137910771D02*
X113912916Y-137386962D01*
X113960535Y-137291724D01*
X114055773Y-137244105D01*
X114246250Y-137244105D01*
X114341488Y-137291724D01*
X113912916Y-137863152D02*
X114008154Y-137910771D01*
X114246250Y-137910771D01*
X114341488Y-137863152D01*
X114389107Y-137767914D01*
X114389107Y-137672676D01*
X114341488Y-137577438D01*
X114246250Y-137529819D01*
X114008154Y-137529819D01*
X113912916Y-137482200D01*
X113531964Y-137244105D02*
X113293869Y-137910771D01*
X113055773Y-137244105D01*
X112674821Y-137910771D02*
X112674821Y-137244105D01*
X112674821Y-136910771D02*
X112722440Y-136958391D01*
X112674821Y-137006010D01*
X112627202Y-136958391D01*
X112674821Y-136910771D01*
X112674821Y-137006010D01*
X112246250Y-137863152D02*
X112151011Y-137910771D01*
X111960535Y-137910771D01*
X111865297Y-137863152D01*
X111817678Y-137767914D01*
X111817678Y-137720295D01*
X111865297Y-137625057D01*
X111960535Y-137577438D01*
X112103392Y-137577438D01*
X112198630Y-137529819D01*
X112246250Y-137434581D01*
X112246250Y-137386962D01*
X112198630Y-137291724D01*
X112103392Y-137244105D01*
X111960535Y-137244105D01*
X111865297Y-137291724D01*
X110674821Y-136863152D02*
X111531964Y-138148867D01*
X110341488Y-137910771D02*
X110341488Y-136910771D01*
X110246250Y-137529819D02*
X109960535Y-137910771D01*
X109960535Y-137244105D02*
X110341488Y-137625057D01*
X109151011Y-137863152D02*
X109246250Y-137910771D01*
X109436726Y-137910771D01*
X109531964Y-137863152D01*
X109579583Y-137767914D01*
X109579583Y-137386962D01*
X109531964Y-137291724D01*
X109436726Y-137244105D01*
X109246250Y-137244105D01*
X109151011Y-137291724D01*
X109103392Y-137386962D01*
X109103392Y-137482200D01*
X109579583Y-137577438D01*
X108770059Y-137244105D02*
X108531964Y-137910771D01*
X108293869Y-137244105D02*
X108531964Y-137910771D01*
X108627202Y-138148867D01*
X108674821Y-138196486D01*
X108770059Y-138244105D01*
X107912916Y-137910771D02*
X107912916Y-136910771D01*
X107912916Y-137291724D02*
X107817678Y-137244105D01*
X107627202Y-137244105D01*
X107531964Y-137291724D01*
X107484345Y-137339343D01*
X107436726Y-137434581D01*
X107436726Y-137720295D01*
X107484345Y-137815533D01*
X107531964Y-137863152D01*
X107627202Y-137910771D01*
X107817678Y-137910771D01*
X107912916Y-137863152D01*
X106627202Y-137863152D02*
X106722440Y-137910771D01*
X106912916Y-137910771D01*
X107008154Y-137863152D01*
X107055773Y-137767914D01*
X107055773Y-137386962D01*
X107008154Y-137291724D01*
X106912916Y-137244105D01*
X106722440Y-137244105D01*
X106627202Y-137291724D01*
X106579583Y-137386962D01*
X106579583Y-137482200D01*
X107055773Y-137577438D01*
X106151011Y-137910771D02*
X106151011Y-137244105D01*
X106151011Y-137434581D02*
X106103392Y-137339343D01*
X106055773Y-137291724D01*
X105960535Y-137244105D01*
X105865297Y-137244105D01*
X105674821Y-137244105D02*
X105293869Y-137244105D01*
X105531964Y-136910771D02*
X105531964Y-137767914D01*
X105484345Y-137863152D01*
X105389107Y-137910771D01*
X105293869Y-137910771D01*
X133540595Y-60028033D02*
X133588214Y-60075652D01*
X133731071Y-60123271D01*
X133826309Y-60123271D01*
X133969166Y-60075652D01*
X134064404Y-59980414D01*
X134112023Y-59885176D01*
X134159642Y-59694700D01*
X134159642Y-59551843D01*
X134112023Y-59361367D01*
X134064404Y-59266129D01*
X133969166Y-59170891D01*
X133826309Y-59123271D01*
X133731071Y-59123271D01*
X133588214Y-59170891D01*
X133540595Y-59218510D01*
X132969166Y-60123271D02*
X133064404Y-60075652D01*
X133112023Y-60028033D01*
X133159642Y-59932795D01*
X133159642Y-59647081D01*
X133112023Y-59551843D01*
X133064404Y-59504224D01*
X132969166Y-59456605D01*
X132826309Y-59456605D01*
X132731071Y-59504224D01*
X132683452Y-59551843D01*
X132635833Y-59647081D01*
X132635833Y-59932795D01*
X132683452Y-60028033D01*
X132731071Y-60075652D01*
X132826309Y-60123271D01*
X132969166Y-60123271D01*
X132207261Y-59456605D02*
X132207261Y-60456605D01*
X132207261Y-59504224D02*
X132112023Y-59456605D01*
X131921547Y-59456605D01*
X131826309Y-59504224D01*
X131778690Y-59551843D01*
X131731071Y-59647081D01*
X131731071Y-59932795D01*
X131778690Y-60028033D01*
X131826309Y-60075652D01*
X131921547Y-60123271D01*
X132112023Y-60123271D01*
X132207261Y-60075652D01*
X131397738Y-59456605D02*
X131159642Y-60123271D01*
X130921547Y-59456605D02*
X131159642Y-60123271D01*
X131254880Y-60361367D01*
X131302500Y-60408986D01*
X131397738Y-60456605D01*
X130540595Y-60123271D02*
X130540595Y-59456605D01*
X130540595Y-59647081D02*
X130492976Y-59551843D01*
X130445357Y-59504224D01*
X130350119Y-59456605D01*
X130254880Y-59456605D01*
X129921547Y-60123271D02*
X129921547Y-59456605D01*
X129921547Y-59123271D02*
X129969166Y-59170891D01*
X129921547Y-59218510D01*
X129873928Y-59170891D01*
X129921547Y-59123271D01*
X129921547Y-59218510D01*
X129016785Y-59456605D02*
X129016785Y-60266129D01*
X129064404Y-60361367D01*
X129112023Y-60408986D01*
X129207261Y-60456605D01*
X129350119Y-60456605D01*
X129445357Y-60408986D01*
X129016785Y-60075652D02*
X129112023Y-60123271D01*
X129302500Y-60123271D01*
X129397738Y-60075652D01*
X129445357Y-60028033D01*
X129492976Y-59932795D01*
X129492976Y-59647081D01*
X129445357Y-59551843D01*
X129397738Y-59504224D01*
X129302500Y-59456605D01*
X129112023Y-59456605D01*
X129016785Y-59504224D01*
X128540595Y-60123271D02*
X128540595Y-59123271D01*
X128112023Y-60123271D02*
X128112023Y-59599462D01*
X128159642Y-59504224D01*
X128254880Y-59456605D01*
X128397738Y-59456605D01*
X128492976Y-59504224D01*
X128540595Y-59551843D01*
X127778690Y-59456605D02*
X127397738Y-59456605D01*
X127635833Y-59123271D02*
X127635833Y-59980414D01*
X127588214Y-60075652D01*
X127492976Y-60123271D01*
X127397738Y-60123271D01*
X126445357Y-59123271D02*
X125873928Y-59123271D01*
X126159642Y-60123271D02*
X126159642Y-59123271D01*
X125540595Y-60123271D02*
X125540595Y-59456605D01*
X125540595Y-59647081D02*
X125492976Y-59551843D01*
X125445357Y-59504224D01*
X125350119Y-59456605D01*
X125254880Y-59456605D01*
X124492976Y-60123271D02*
X124492976Y-59599462D01*
X124540595Y-59504224D01*
X124635833Y-59456605D01*
X124826309Y-59456605D01*
X124921547Y-59504224D01*
X124492976Y-60075652D02*
X124588214Y-60123271D01*
X124826309Y-60123271D01*
X124921547Y-60075652D01*
X124969166Y-59980414D01*
X124969166Y-59885176D01*
X124921547Y-59789938D01*
X124826309Y-59742319D01*
X124588214Y-59742319D01*
X124492976Y-59694700D01*
X124112023Y-59456605D02*
X123873928Y-60123271D01*
X123635833Y-59456605D01*
X123254880Y-60123271D02*
X123254880Y-59456605D01*
X123254880Y-59123271D02*
X123302500Y-59170891D01*
X123254880Y-59218510D01*
X123207261Y-59170891D01*
X123254880Y-59123271D01*
X123254880Y-59218510D01*
X122826309Y-60075652D02*
X122731071Y-60123271D01*
X122540595Y-60123271D01*
X122445357Y-60075652D01*
X122397738Y-59980414D01*
X122397738Y-59932795D01*
X122445357Y-59837557D01*
X122540595Y-59789938D01*
X122683452Y-59789938D01*
X122778690Y-59742319D01*
X122826309Y-59647081D01*
X122826309Y-59599462D01*
X122778690Y-59504224D01*
X122683452Y-59456605D01*
X122540595Y-59456605D01*
X122445357Y-59504224D01*
X121302500Y-59123271D02*
X121064404Y-60123271D01*
X120873928Y-59408986D01*
X120683452Y-60123271D01*
X120445357Y-59123271D01*
X118731071Y-60123271D02*
X119064404Y-59647081D01*
X119302500Y-60123271D02*
X119302500Y-59123271D01*
X118921547Y-59123271D01*
X118826309Y-59170891D01*
X118778690Y-59218510D01*
X118731071Y-59313748D01*
X118731071Y-59456605D01*
X118778690Y-59551843D01*
X118826309Y-59599462D01*
X118921547Y-59647081D01*
X119302500Y-59647081D01*
X118302500Y-60123271D02*
X118302500Y-59456605D01*
X118302500Y-59123271D02*
X118350119Y-59170891D01*
X118302500Y-59218510D01*
X118254880Y-59170891D01*
X118302500Y-59123271D01*
X118302500Y-59218510D01*
X117397738Y-59456605D02*
X117397738Y-60266129D01*
X117445357Y-60361367D01*
X117492976Y-60408986D01*
X117588214Y-60456605D01*
X117731071Y-60456605D01*
X117826309Y-60408986D01*
X117397738Y-60075652D02*
X117492976Y-60123271D01*
X117683452Y-60123271D01*
X117778690Y-60075652D01*
X117826309Y-60028033D01*
X117873928Y-59932795D01*
X117873928Y-59647081D01*
X117826309Y-59551843D01*
X117778690Y-59504224D01*
X117683452Y-59456605D01*
X117492976Y-59456605D01*
X117397738Y-59504224D01*
X116492976Y-59456605D02*
X116492976Y-60266129D01*
X116540595Y-60361367D01*
X116588214Y-60408986D01*
X116683452Y-60456605D01*
X116826309Y-60456605D01*
X116921547Y-60408986D01*
X116492976Y-60075652D02*
X116588214Y-60123271D01*
X116778690Y-60123271D01*
X116873928Y-60075652D01*
X116921547Y-60028033D01*
X116969166Y-59932795D01*
X116969166Y-59647081D01*
X116921547Y-59551843D01*
X116873928Y-59504224D01*
X116778690Y-59456605D01*
X116588214Y-59456605D01*
X116492976Y-59504224D01*
X154837619Y-140292021D02*
X154837619Y-139292021D01*
X154266190Y-140292021D02*
X154694761Y-139720593D01*
X154266190Y-139292021D02*
X154837619Y-139863450D01*
X153456666Y-140244402D02*
X153551904Y-140292021D01*
X153742380Y-140292021D01*
X153837619Y-140244402D01*
X153885238Y-140149164D01*
X153885238Y-139768212D01*
X153837619Y-139672974D01*
X153742380Y-139625355D01*
X153551904Y-139625355D01*
X153456666Y-139672974D01*
X153409047Y-139768212D01*
X153409047Y-139863450D01*
X153885238Y-139958688D01*
X153075714Y-139625355D02*
X152837619Y-140292021D01*
X152599523Y-139625355D02*
X152837619Y-140292021D01*
X152932857Y-140530117D01*
X152980476Y-140577736D01*
X153075714Y-140625355D01*
X152218571Y-140292021D02*
X152218571Y-139292021D01*
X152218571Y-139672974D02*
X152123333Y-139625355D01*
X151932857Y-139625355D01*
X151837619Y-139672974D01*
X151790000Y-139720593D01*
X151742380Y-139815831D01*
X151742380Y-140101545D01*
X151790000Y-140196783D01*
X151837619Y-140244402D01*
X151932857Y-140292021D01*
X152123333Y-140292021D01*
X152218571Y-140244402D01*
X150932857Y-140244402D02*
X151028095Y-140292021D01*
X151218571Y-140292021D01*
X151313809Y-140244402D01*
X151361428Y-140149164D01*
X151361428Y-139768212D01*
X151313809Y-139672974D01*
X151218571Y-139625355D01*
X151028095Y-139625355D01*
X150932857Y-139672974D01*
X150885238Y-139768212D01*
X150885238Y-139863450D01*
X151361428Y-139958688D01*
X150456666Y-140292021D02*
X150456666Y-139625355D01*
X150456666Y-139815831D02*
X150409047Y-139720593D01*
X150361428Y-139672974D01*
X150266190Y-139625355D01*
X150170952Y-139625355D01*
X149980476Y-139625355D02*
X149599523Y-139625355D01*
X149837619Y-139292021D02*
X149837619Y-140149164D01*
X149790000Y-140244402D01*
X149694761Y-140292021D01*
X149599523Y-140292021D01*
%TO.C,J0*%
X158771547Y-36299521D02*
X158771547Y-35299521D01*
X158390595Y-35299521D01*
X158295357Y-35347141D01*
X158247738Y-35394760D01*
X158200119Y-35489998D01*
X158200119Y-35632855D01*
X158247738Y-35728093D01*
X158295357Y-35775712D01*
X158390595Y-35823331D01*
X158771547Y-35823331D01*
X157485833Y-35299521D02*
X157485833Y-36013807D01*
X157533452Y-36156664D01*
X157628690Y-36251902D01*
X157771547Y-36299521D01*
X157866785Y-36299521D01*
X157009642Y-35918569D02*
X156247738Y-35918569D01*
X155866785Y-35299521D02*
X155247738Y-35299521D01*
X155581071Y-35680474D01*
X155438214Y-35680474D01*
X155342976Y-35728093D01*
X155295357Y-35775712D01*
X155247738Y-35870950D01*
X155247738Y-36109045D01*
X155295357Y-36204283D01*
X155342976Y-36251902D01*
X155438214Y-36299521D01*
X155723928Y-36299521D01*
X155819166Y-36251902D01*
X155866785Y-36204283D01*
X154866785Y-35394760D02*
X154819166Y-35347141D01*
X154723928Y-35299521D01*
X154485833Y-35299521D01*
X154390595Y-35347141D01*
X154342976Y-35394760D01*
X154295357Y-35489998D01*
X154295357Y-35585236D01*
X154342976Y-35728093D01*
X154914404Y-36299521D01*
X154295357Y-36299521D01*
X153676309Y-35299521D02*
X153581071Y-35299521D01*
X153485833Y-35347141D01*
X153438214Y-35394760D01*
X153390595Y-35489998D01*
X153342976Y-35680474D01*
X153342976Y-35918569D01*
X153390595Y-36109045D01*
X153438214Y-36204283D01*
X153485833Y-36251902D01*
X153581071Y-36299521D01*
X153676309Y-36299521D01*
X153771547Y-36251902D01*
X153819166Y-36204283D01*
X153866785Y-36109045D01*
X153914404Y-35918569D01*
X153914404Y-35680474D01*
X153866785Y-35489998D01*
X153819166Y-35394760D01*
X153771547Y-35347141D01*
X153676309Y-35299521D01*
X152962023Y-36013807D02*
X152485833Y-36013807D01*
X153057261Y-36299521D02*
X152723928Y-35299521D01*
X152390595Y-36299521D01*
%TO.C,MX19*%
X109601904Y-71712021D02*
X109601904Y-70712021D01*
X109268571Y-71426307D01*
X108935238Y-70712021D01*
X108935238Y-71712021D01*
X108554285Y-70712021D02*
X107887619Y-71712021D01*
X107887619Y-70712021D02*
X108554285Y-71712021D01*
X106982857Y-71712021D02*
X107554285Y-71712021D01*
X107268571Y-71712021D02*
X107268571Y-70712021D01*
X107363809Y-70854879D01*
X107459047Y-70950117D01*
X107554285Y-70997736D01*
X106506666Y-71712021D02*
X106316190Y-71712021D01*
X106220952Y-71664402D01*
X106173333Y-71616783D01*
X106078095Y-71473926D01*
X106030476Y-71283450D01*
X106030476Y-70902498D01*
X106078095Y-70807260D01*
X106125714Y-70759641D01*
X106220952Y-70712021D01*
X106411428Y-70712021D01*
X106506666Y-70759641D01*
X106554285Y-70807260D01*
X106601904Y-70902498D01*
X106601904Y-71140593D01*
X106554285Y-71235831D01*
X106506666Y-71283450D01*
X106411428Y-71331069D01*
X106220952Y-71331069D01*
X106125714Y-71283450D01*
X106078095Y-71235831D01*
X106030476Y-71140593D01*
%TO.C,MX11*%
X79439404Y-71712021D02*
X79439404Y-70712021D01*
X79106071Y-71426307D01*
X78772738Y-70712021D01*
X78772738Y-71712021D01*
X78391785Y-70712021D02*
X77725119Y-71712021D01*
X77725119Y-70712021D02*
X78391785Y-71712021D01*
X76820357Y-71712021D02*
X77391785Y-71712021D01*
X77106071Y-71712021D02*
X77106071Y-70712021D01*
X77201309Y-70854879D01*
X77296547Y-70950117D01*
X77391785Y-70997736D01*
X75867976Y-71712021D02*
X76439404Y-71712021D01*
X76153690Y-71712021D02*
X76153690Y-70712021D01*
X76248928Y-70854879D01*
X76344166Y-70950117D01*
X76439404Y-70997736D01*
%TO.C,MX20*%
X115158154Y-86793271D02*
X115158154Y-85793271D01*
X114824821Y-86507557D01*
X114491488Y-85793271D01*
X114491488Y-86793271D01*
X114110535Y-85793271D02*
X113443869Y-86793271D01*
X113443869Y-85793271D02*
X114110535Y-86793271D01*
X113110535Y-85888510D02*
X113062916Y-85840891D01*
X112967678Y-85793271D01*
X112729583Y-85793271D01*
X112634345Y-85840891D01*
X112586726Y-85888510D01*
X112539107Y-85983748D01*
X112539107Y-86078986D01*
X112586726Y-86221843D01*
X113158154Y-86793271D01*
X112539107Y-86793271D01*
X111920059Y-85793271D02*
X111824821Y-85793271D01*
X111729583Y-85840891D01*
X111681964Y-85888510D01*
X111634345Y-85983748D01*
X111586726Y-86174224D01*
X111586726Y-86412319D01*
X111634345Y-86602795D01*
X111681964Y-86698033D01*
X111729583Y-86745652D01*
X111824821Y-86793271D01*
X111920059Y-86793271D01*
X112015297Y-86745652D01*
X112062916Y-86698033D01*
X112110535Y-86602795D01*
X112158154Y-86412319D01*
X112158154Y-86174224D01*
X112110535Y-85983748D01*
X112062916Y-85888510D01*
X112015297Y-85840891D01*
X111920059Y-85793271D01*
%TO.C,MX12*%
X79439404Y-86793271D02*
X79439404Y-85793271D01*
X79106071Y-86507557D01*
X78772738Y-85793271D01*
X78772738Y-86793271D01*
X78391785Y-85793271D02*
X77725119Y-86793271D01*
X77725119Y-85793271D02*
X78391785Y-86793271D01*
X76820357Y-86793271D02*
X77391785Y-86793271D01*
X77106071Y-86793271D02*
X77106071Y-85793271D01*
X77201309Y-85936129D01*
X77296547Y-86031367D01*
X77391785Y-86078986D01*
X76439404Y-85888510D02*
X76391785Y-85840891D01*
X76296547Y-85793271D01*
X76058452Y-85793271D01*
X75963214Y-85840891D01*
X75915595Y-85888510D01*
X75867976Y-85983748D01*
X75867976Y-86078986D01*
X75915595Y-86221843D01*
X76487023Y-86793271D01*
X75867976Y-86793271D01*
%TO.C,MX18*%
X109601904Y-56630771D02*
X109601904Y-55630771D01*
X109268571Y-56345057D01*
X108935238Y-55630771D01*
X108935238Y-56630771D01*
X108554285Y-55630771D02*
X107887619Y-56630771D01*
X107887619Y-55630771D02*
X108554285Y-56630771D01*
X106982857Y-56630771D02*
X107554285Y-56630771D01*
X107268571Y-56630771D02*
X107268571Y-55630771D01*
X107363809Y-55773629D01*
X107459047Y-55868867D01*
X107554285Y-55916486D01*
X106411428Y-56059343D02*
X106506666Y-56011724D01*
X106554285Y-55964105D01*
X106601904Y-55868867D01*
X106601904Y-55821248D01*
X106554285Y-55726010D01*
X106506666Y-55678391D01*
X106411428Y-55630771D01*
X106220952Y-55630771D01*
X106125714Y-55678391D01*
X106078095Y-55726010D01*
X106030476Y-55821248D01*
X106030476Y-55868867D01*
X106078095Y-55964105D01*
X106125714Y-56011724D01*
X106220952Y-56059343D01*
X106411428Y-56059343D01*
X106506666Y-56106962D01*
X106554285Y-56154581D01*
X106601904Y-56249819D01*
X106601904Y-56440295D01*
X106554285Y-56535533D01*
X106506666Y-56583152D01*
X106411428Y-56630771D01*
X106220952Y-56630771D01*
X106125714Y-56583152D01*
X106078095Y-56535533D01*
X106030476Y-56440295D01*
X106030476Y-56249819D01*
X106078095Y-56154581D01*
X106125714Y-56106962D01*
X106220952Y-56059343D01*
%TO.C,MX10*%
X79439404Y-56630771D02*
X79439404Y-55630771D01*
X79106071Y-56345057D01*
X78772738Y-55630771D01*
X78772738Y-56630771D01*
X78391785Y-55630771D02*
X77725119Y-56630771D01*
X77725119Y-55630771D02*
X78391785Y-56630771D01*
X76820357Y-56630771D02*
X77391785Y-56630771D01*
X77106071Y-56630771D02*
X77106071Y-55630771D01*
X77201309Y-55773629D01*
X77296547Y-55868867D01*
X77391785Y-55916486D01*
X76201309Y-55630771D02*
X76106071Y-55630771D01*
X76010833Y-55678391D01*
X75963214Y-55726010D01*
X75915595Y-55821248D01*
X75867976Y-56011724D01*
X75867976Y-56249819D01*
X75915595Y-56440295D01*
X75963214Y-56535533D01*
X76010833Y-56583152D01*
X76106071Y-56630771D01*
X76201309Y-56630771D01*
X76296547Y-56583152D01*
X76344166Y-56535533D01*
X76391785Y-56440295D01*
X76439404Y-56249819D01*
X76439404Y-56011724D01*
X76391785Y-55821248D01*
X76344166Y-55726010D01*
X76296547Y-55678391D01*
X76201309Y-55630771D01*
%TO.C,MX15*%
X94520654Y-71712021D02*
X94520654Y-70712021D01*
X94187321Y-71426307D01*
X93853988Y-70712021D01*
X93853988Y-71712021D01*
X93473035Y-70712021D02*
X92806369Y-71712021D01*
X92806369Y-70712021D02*
X93473035Y-71712021D01*
X91901607Y-71712021D02*
X92473035Y-71712021D01*
X92187321Y-71712021D02*
X92187321Y-70712021D01*
X92282559Y-70854879D01*
X92377797Y-70950117D01*
X92473035Y-70997736D01*
X90996845Y-70712021D02*
X91473035Y-70712021D01*
X91520654Y-71188212D01*
X91473035Y-71140593D01*
X91377797Y-71092974D01*
X91139702Y-71092974D01*
X91044464Y-71140593D01*
X90996845Y-71188212D01*
X90949226Y-71283450D01*
X90949226Y-71521545D01*
X90996845Y-71616783D01*
X91044464Y-71664402D01*
X91139702Y-71712021D01*
X91377797Y-71712021D01*
X91473035Y-71664402D01*
X91520654Y-71616783D01*
%TO.C,MX7*%
X63881964Y-56630771D02*
X63881964Y-55630771D01*
X63548630Y-56345057D01*
X63215297Y-55630771D01*
X63215297Y-56630771D01*
X62834345Y-55630771D02*
X62167678Y-56630771D01*
X62167678Y-55630771D02*
X62834345Y-56630771D01*
X61881964Y-55630771D02*
X61215297Y-55630771D01*
X61643869Y-56630771D01*
%TO.C,MX3*%
X48800714Y-41549521D02*
X48800714Y-40549521D01*
X48467380Y-41263807D01*
X48134047Y-40549521D01*
X48134047Y-41549521D01*
X47753095Y-40549521D02*
X47086428Y-41549521D01*
X47086428Y-40549521D02*
X47753095Y-41549521D01*
X46800714Y-40549521D02*
X46181666Y-40549521D01*
X46515000Y-40930474D01*
X46372142Y-40930474D01*
X46276904Y-40978093D01*
X46229285Y-41025712D01*
X46181666Y-41120950D01*
X46181666Y-41359045D01*
X46229285Y-41454283D01*
X46276904Y-41501902D01*
X46372142Y-41549521D01*
X46657857Y-41549521D01*
X46753095Y-41501902D01*
X46800714Y-41454283D01*
%TO.C,MX14*%
X94520654Y-56630771D02*
X94520654Y-55630771D01*
X94187321Y-56345057D01*
X93853988Y-55630771D01*
X93853988Y-56630771D01*
X93473035Y-55630771D02*
X92806369Y-56630771D01*
X92806369Y-55630771D02*
X93473035Y-56630771D01*
X91901607Y-56630771D02*
X92473035Y-56630771D01*
X92187321Y-56630771D02*
X92187321Y-55630771D01*
X92282559Y-55773629D01*
X92377797Y-55868867D01*
X92473035Y-55916486D01*
X91044464Y-55964105D02*
X91044464Y-56630771D01*
X91282559Y-55583152D02*
X91520654Y-56297438D01*
X90901607Y-56297438D01*
%TO.C,MX0*%
X33719464Y-41549521D02*
X33719464Y-40549521D01*
X33386130Y-41263807D01*
X33052797Y-40549521D01*
X33052797Y-41549521D01*
X32671845Y-40549521D02*
X32005178Y-41549521D01*
X32005178Y-40549521D02*
X32671845Y-41549521D01*
X31433750Y-40549521D02*
X31338511Y-40549521D01*
X31243273Y-40597141D01*
X31195654Y-40644760D01*
X31148035Y-40739998D01*
X31100416Y-40930474D01*
X31100416Y-41168569D01*
X31148035Y-41359045D01*
X31195654Y-41454283D01*
X31243273Y-41501902D01*
X31338511Y-41549521D01*
X31433750Y-41549521D01*
X31528988Y-41501902D01*
X31576607Y-41454283D01*
X31624226Y-41359045D01*
X31671845Y-41168569D01*
X31671845Y-40930474D01*
X31624226Y-40739998D01*
X31576607Y-40644760D01*
X31528988Y-40597141D01*
X31433750Y-40549521D01*
%TO.C,MX8*%
X63881964Y-71712021D02*
X63881964Y-70712021D01*
X63548630Y-71426307D01*
X63215297Y-70712021D01*
X63215297Y-71712021D01*
X62834345Y-70712021D02*
X62167678Y-71712021D01*
X62167678Y-70712021D02*
X62834345Y-71712021D01*
X61643869Y-71140593D02*
X61739107Y-71092974D01*
X61786726Y-71045355D01*
X61834345Y-70950117D01*
X61834345Y-70902498D01*
X61786726Y-70807260D01*
X61739107Y-70759641D01*
X61643869Y-70712021D01*
X61453392Y-70712021D01*
X61358154Y-70759641D01*
X61310535Y-70807260D01*
X61262916Y-70902498D01*
X61262916Y-70950117D01*
X61310535Y-71045355D01*
X61358154Y-71092974D01*
X61453392Y-71140593D01*
X61643869Y-71140593D01*
X61739107Y-71188212D01*
X61786726Y-71235831D01*
X61834345Y-71331069D01*
X61834345Y-71521545D01*
X61786726Y-71616783D01*
X61739107Y-71664402D01*
X61643869Y-71712021D01*
X61453392Y-71712021D01*
X61358154Y-71664402D01*
X61310535Y-71616783D01*
X61262916Y-71521545D01*
X61262916Y-71331069D01*
X61310535Y-71235831D01*
X61358154Y-71188212D01*
X61453392Y-71140593D01*
%TO.C,MX22*%
X115158154Y-116955771D02*
X115158154Y-115955771D01*
X114824821Y-116670057D01*
X114491488Y-115955771D01*
X114491488Y-116955771D01*
X114110535Y-115955771D02*
X113443869Y-116955771D01*
X113443869Y-115955771D02*
X114110535Y-116955771D01*
X113110535Y-116051010D02*
X113062916Y-116003391D01*
X112967678Y-115955771D01*
X112729583Y-115955771D01*
X112634345Y-116003391D01*
X112586726Y-116051010D01*
X112539107Y-116146248D01*
X112539107Y-116241486D01*
X112586726Y-116384343D01*
X113158154Y-116955771D01*
X112539107Y-116955771D01*
X112158154Y-116051010D02*
X112110535Y-116003391D01*
X112015297Y-115955771D01*
X111777202Y-115955771D01*
X111681964Y-116003391D01*
X111634345Y-116051010D01*
X111586726Y-116146248D01*
X111586726Y-116241486D01*
X111634345Y-116384343D01*
X112205773Y-116955771D01*
X111586726Y-116955771D01*
%TO.C,MX16*%
X94520654Y-86793271D02*
X94520654Y-85793271D01*
X94187321Y-86507557D01*
X93853988Y-85793271D01*
X93853988Y-86793271D01*
X93473035Y-85793271D02*
X92806369Y-86793271D01*
X92806369Y-85793271D02*
X93473035Y-86793271D01*
X91901607Y-86793271D02*
X92473035Y-86793271D01*
X92187321Y-86793271D02*
X92187321Y-85793271D01*
X92282559Y-85936129D01*
X92377797Y-86031367D01*
X92473035Y-86078986D01*
X91044464Y-85793271D02*
X91234940Y-85793271D01*
X91330178Y-85840891D01*
X91377797Y-85888510D01*
X91473035Y-86031367D01*
X91520654Y-86221843D01*
X91520654Y-86602795D01*
X91473035Y-86698033D01*
X91425416Y-86745652D01*
X91330178Y-86793271D01*
X91139702Y-86793271D01*
X91044464Y-86745652D01*
X90996845Y-86698033D01*
X90949226Y-86602795D01*
X90949226Y-86364700D01*
X90996845Y-86269462D01*
X91044464Y-86221843D01*
X91139702Y-86174224D01*
X91330178Y-86174224D01*
X91425416Y-86221843D01*
X91473035Y-86269462D01*
X91520654Y-86364700D01*
%TO.C,MX13*%
X94520654Y-41549521D02*
X94520654Y-40549521D01*
X94187321Y-41263807D01*
X93853988Y-40549521D01*
X93853988Y-41549521D01*
X93473035Y-40549521D02*
X92806369Y-41549521D01*
X92806369Y-40549521D02*
X93473035Y-41549521D01*
X91901607Y-41549521D02*
X92473035Y-41549521D01*
X92187321Y-41549521D02*
X92187321Y-40549521D01*
X92282559Y-40692379D01*
X92377797Y-40787617D01*
X92473035Y-40835236D01*
X91568273Y-40549521D02*
X90949226Y-40549521D01*
X91282559Y-40930474D01*
X91139702Y-40930474D01*
X91044464Y-40978093D01*
X90996845Y-41025712D01*
X90949226Y-41120950D01*
X90949226Y-41359045D01*
X90996845Y-41454283D01*
X91044464Y-41501902D01*
X91139702Y-41549521D01*
X91425416Y-41549521D01*
X91520654Y-41501902D01*
X91568273Y-41454283D01*
%TO.C,MX21*%
X115158154Y-101874521D02*
X115158154Y-100874521D01*
X114824821Y-101588807D01*
X114491488Y-100874521D01*
X114491488Y-101874521D01*
X114110535Y-100874521D02*
X113443869Y-101874521D01*
X113443869Y-100874521D02*
X114110535Y-101874521D01*
X113110535Y-100969760D02*
X113062916Y-100922141D01*
X112967678Y-100874521D01*
X112729583Y-100874521D01*
X112634345Y-100922141D01*
X112586726Y-100969760D01*
X112539107Y-101064998D01*
X112539107Y-101160236D01*
X112586726Y-101303093D01*
X113158154Y-101874521D01*
X112539107Y-101874521D01*
X111586726Y-101874521D02*
X112158154Y-101874521D01*
X111872440Y-101874521D02*
X111872440Y-100874521D01*
X111967678Y-101017379D01*
X112062916Y-101112617D01*
X112158154Y-101160236D01*
%TO.C,MX17*%
X109601904Y-41549521D02*
X109601904Y-40549521D01*
X109268571Y-41263807D01*
X108935238Y-40549521D01*
X108935238Y-41549521D01*
X108554285Y-40549521D02*
X107887619Y-41549521D01*
X107887619Y-40549521D02*
X108554285Y-41549521D01*
X106982857Y-41549521D02*
X107554285Y-41549521D01*
X107268571Y-41549521D02*
X107268571Y-40549521D01*
X107363809Y-40692379D01*
X107459047Y-40787617D01*
X107554285Y-40835236D01*
X106649523Y-40549521D02*
X105982857Y-40549521D01*
X106411428Y-41549521D01*
%TO.C,MX6*%
X63881964Y-41549521D02*
X63881964Y-40549521D01*
X63548630Y-41263807D01*
X63215297Y-40549521D01*
X63215297Y-41549521D01*
X62834345Y-40549521D02*
X62167678Y-41549521D01*
X62167678Y-40549521D02*
X62834345Y-41549521D01*
X61358154Y-40549521D02*
X61548630Y-40549521D01*
X61643869Y-40597141D01*
X61691488Y-40644760D01*
X61786726Y-40787617D01*
X61834345Y-40978093D01*
X61834345Y-41359045D01*
X61786726Y-41454283D01*
X61739107Y-41501902D01*
X61643869Y-41549521D01*
X61453392Y-41549521D01*
X61358154Y-41501902D01*
X61310535Y-41454283D01*
X61262916Y-41359045D01*
X61262916Y-41120950D01*
X61310535Y-41025712D01*
X61358154Y-40978093D01*
X61453392Y-40930474D01*
X61643869Y-40930474D01*
X61739107Y-40978093D01*
X61786726Y-41025712D01*
X61834345Y-41120950D01*
%TO.C,MX4*%
X48800714Y-56630771D02*
X48800714Y-55630771D01*
X48467380Y-56345057D01*
X48134047Y-55630771D01*
X48134047Y-56630771D01*
X47753095Y-55630771D02*
X47086428Y-56630771D01*
X47086428Y-55630771D02*
X47753095Y-56630771D01*
X46276904Y-55964105D02*
X46276904Y-56630771D01*
X46515000Y-55583152D02*
X46753095Y-56297438D01*
X46134047Y-56297438D01*
%TO.C,MX2*%
X33719464Y-71712021D02*
X33719464Y-70712021D01*
X33386130Y-71426307D01*
X33052797Y-70712021D01*
X33052797Y-71712021D01*
X32671845Y-70712021D02*
X32005178Y-71712021D01*
X32005178Y-70712021D02*
X32671845Y-71712021D01*
X31671845Y-70807260D02*
X31624226Y-70759641D01*
X31528988Y-70712021D01*
X31290892Y-70712021D01*
X31195654Y-70759641D01*
X31148035Y-70807260D01*
X31100416Y-70902498D01*
X31100416Y-70997736D01*
X31148035Y-71140593D01*
X31719464Y-71712021D01*
X31100416Y-71712021D01*
%TO.C,MX9*%
X78963214Y-41549521D02*
X78963214Y-40549521D01*
X78629880Y-41263807D01*
X78296547Y-40549521D01*
X78296547Y-41549521D01*
X77915595Y-40549521D02*
X77248928Y-41549521D01*
X77248928Y-40549521D02*
X77915595Y-41549521D01*
X76820357Y-41549521D02*
X76629880Y-41549521D01*
X76534642Y-41501902D01*
X76487023Y-41454283D01*
X76391785Y-41311426D01*
X76344166Y-41120950D01*
X76344166Y-40739998D01*
X76391785Y-40644760D01*
X76439404Y-40597141D01*
X76534642Y-40549521D01*
X76725119Y-40549521D01*
X76820357Y-40597141D01*
X76867976Y-40644760D01*
X76915595Y-40739998D01*
X76915595Y-40978093D01*
X76867976Y-41073331D01*
X76820357Y-41120950D01*
X76725119Y-41168569D01*
X76534642Y-41168569D01*
X76439404Y-41120950D01*
X76391785Y-41073331D01*
X76344166Y-40978093D01*
%TO.C,MX5*%
X48800714Y-71712021D02*
X48800714Y-70712021D01*
X48467380Y-71426307D01*
X48134047Y-70712021D01*
X48134047Y-71712021D01*
X47753095Y-70712021D02*
X47086428Y-71712021D01*
X47086428Y-70712021D02*
X47753095Y-71712021D01*
X46229285Y-70712021D02*
X46705476Y-70712021D01*
X46753095Y-71188212D01*
X46705476Y-71140593D01*
X46610238Y-71092974D01*
X46372142Y-71092974D01*
X46276904Y-71140593D01*
X46229285Y-71188212D01*
X46181666Y-71283450D01*
X46181666Y-71521545D01*
X46229285Y-71616783D01*
X46276904Y-71664402D01*
X46372142Y-71712021D01*
X46610238Y-71712021D01*
X46705476Y-71664402D01*
X46753095Y-71616783D01*
%TO.C,MX1*%
X33719464Y-56630771D02*
X33719464Y-55630771D01*
X33386130Y-56345057D01*
X33052797Y-55630771D01*
X33052797Y-56630771D01*
X32671845Y-55630771D02*
X32005178Y-56630771D01*
X32005178Y-55630771D02*
X32671845Y-56630771D01*
X31100416Y-56630771D02*
X31671845Y-56630771D01*
X31386130Y-56630771D02*
X31386130Y-55630771D01*
X31481369Y-55773629D01*
X31576607Y-55868867D01*
X31671845Y-55916486D01*
%TO.C,D22*%
X151757278Y-128704045D02*
X151757278Y-127904045D01*
X151566802Y-127904045D01*
X151452516Y-127942141D01*
X151376326Y-128018331D01*
X151338230Y-128094521D01*
X151300135Y-128246902D01*
X151300135Y-128361188D01*
X151338230Y-128513569D01*
X151376326Y-128589760D01*
X151452516Y-128665950D01*
X151566802Y-128704045D01*
X151757278Y-128704045D01*
X150995373Y-127980236D02*
X150957278Y-127942141D01*
X150881088Y-127904045D01*
X150690611Y-127904045D01*
X150614421Y-127942141D01*
X150576326Y-127980236D01*
X150538230Y-128056426D01*
X150538230Y-128132617D01*
X150576326Y-128246902D01*
X151033469Y-128704045D01*
X150538230Y-128704045D01*
X150233469Y-127980236D02*
X150195373Y-127942141D01*
X150119183Y-127904045D01*
X149928707Y-127904045D01*
X149852516Y-127942141D01*
X149814421Y-127980236D01*
X149776326Y-128056426D01*
X149776326Y-128132617D01*
X149814421Y-128246902D01*
X150271564Y-128704045D01*
X149776326Y-128704045D01*
%TO.C,D4*%
X50363154Y-35927064D02*
X49563154Y-35927064D01*
X49563154Y-36117541D01*
X49601250Y-36231826D01*
X49677440Y-36308017D01*
X49753630Y-36346112D01*
X49906011Y-36384207D01*
X50020297Y-36384207D01*
X50172678Y-36346112D01*
X50248869Y-36308017D01*
X50325059Y-36231826D01*
X50363154Y-36117541D01*
X50363154Y-35927064D01*
X49829821Y-37069921D02*
X50363154Y-37069921D01*
X49525059Y-36879445D02*
X50096488Y-36688969D01*
X50096488Y-37184207D01*
%TO.C,D17*%
X102973154Y-30306112D02*
X102173154Y-30306112D01*
X102173154Y-30496588D01*
X102211250Y-30610874D01*
X102287440Y-30687064D01*
X102363630Y-30725160D01*
X102516011Y-30763255D01*
X102630297Y-30763255D01*
X102782678Y-30725160D01*
X102858869Y-30687064D01*
X102935059Y-30610874D01*
X102973154Y-30496588D01*
X102973154Y-30306112D01*
X102973154Y-31525160D02*
X102973154Y-31068017D01*
X102973154Y-31296588D02*
X102173154Y-31296588D01*
X102287440Y-31220398D01*
X102363630Y-31144207D01*
X102401726Y-31068017D01*
X102173154Y-31791826D02*
X102173154Y-32325160D01*
X102973154Y-31982302D01*
%TO.C,D19*%
X121647278Y-73084045D02*
X121647278Y-72284045D01*
X121456802Y-72284045D01*
X121342516Y-72322141D01*
X121266326Y-72398331D01*
X121228230Y-72474521D01*
X121190135Y-72626902D01*
X121190135Y-72741188D01*
X121228230Y-72893569D01*
X121266326Y-72969760D01*
X121342516Y-73045950D01*
X121456802Y-73084045D01*
X121647278Y-73084045D01*
X120428230Y-73084045D02*
X120885373Y-73084045D01*
X120656802Y-73084045D02*
X120656802Y-72284045D01*
X120732992Y-72398331D01*
X120809183Y-72474521D01*
X120885373Y-72512617D01*
X120047278Y-73084045D02*
X119894897Y-73084045D01*
X119818707Y-73045950D01*
X119780611Y-73007855D01*
X119704421Y-72893569D01*
X119666326Y-72741188D01*
X119666326Y-72436426D01*
X119704421Y-72360236D01*
X119742516Y-72322141D01*
X119818707Y-72284045D01*
X119971088Y-72284045D01*
X120047278Y-72322141D01*
X120085373Y-72360236D01*
X120123469Y-72436426D01*
X120123469Y-72626902D01*
X120085373Y-72703093D01*
X120047278Y-72741188D01*
X119971088Y-72779283D01*
X119818707Y-72779283D01*
X119742516Y-72741188D01*
X119704421Y-72703093D01*
X119666326Y-72626902D01*
%TO.C,D15*%
X123787278Y-75574045D02*
X123787278Y-74774045D01*
X123596802Y-74774045D01*
X123482516Y-74812141D01*
X123406326Y-74888331D01*
X123368230Y-74964521D01*
X123330135Y-75116902D01*
X123330135Y-75231188D01*
X123368230Y-75383569D01*
X123406326Y-75459760D01*
X123482516Y-75535950D01*
X123596802Y-75574045D01*
X123787278Y-75574045D01*
X122568230Y-75574045D02*
X123025373Y-75574045D01*
X122796802Y-75574045D02*
X122796802Y-74774045D01*
X122872992Y-74888331D01*
X122949183Y-74964521D01*
X123025373Y-75002617D01*
X121844421Y-74774045D02*
X122225373Y-74774045D01*
X122263469Y-75154998D01*
X122225373Y-75116902D01*
X122149183Y-75078807D01*
X121958707Y-75078807D01*
X121882516Y-75116902D01*
X121844421Y-75154998D01*
X121806326Y-75231188D01*
X121806326Y-75421664D01*
X121844421Y-75497855D01*
X121882516Y-75535950D01*
X121958707Y-75574045D01*
X122149183Y-75574045D01*
X122225373Y-75535950D01*
X122263469Y-75497855D01*
%TO.C,D3*%
X42333154Y-30687064D02*
X41533154Y-30687064D01*
X41533154Y-30877541D01*
X41571250Y-30991826D01*
X41647440Y-31068017D01*
X41723630Y-31106112D01*
X41876011Y-31144207D01*
X41990297Y-31144207D01*
X42142678Y-31106112D01*
X42218869Y-31068017D01*
X42295059Y-30991826D01*
X42333154Y-30877541D01*
X42333154Y-30687064D01*
X41533154Y-31410874D02*
X41533154Y-31906112D01*
X41837916Y-31639445D01*
X41837916Y-31753731D01*
X41876011Y-31829921D01*
X41914107Y-31868017D01*
X41990297Y-31906112D01*
X42180773Y-31906112D01*
X42256964Y-31868017D01*
X42295059Y-31829921D01*
X42333154Y-31753731D01*
X42333154Y-31525160D01*
X42295059Y-31448969D01*
X42256964Y-31410874D01*
%TO.C,D10*%
X80683154Y-35546112D02*
X79883154Y-35546112D01*
X79883154Y-35736588D01*
X79921250Y-35850874D01*
X79997440Y-35927064D01*
X80073630Y-35965160D01*
X80226011Y-36003255D01*
X80340297Y-36003255D01*
X80492678Y-35965160D01*
X80568869Y-35927064D01*
X80645059Y-35850874D01*
X80683154Y-35736588D01*
X80683154Y-35546112D01*
X80683154Y-36765160D02*
X80683154Y-36308017D01*
X80683154Y-36536588D02*
X79883154Y-36536588D01*
X79997440Y-36460398D01*
X80073630Y-36384207D01*
X80111726Y-36308017D01*
X79883154Y-37260398D02*
X79883154Y-37336588D01*
X79921250Y-37412779D01*
X79959345Y-37450874D01*
X80035535Y-37488969D01*
X80187916Y-37527064D01*
X80378392Y-37527064D01*
X80530773Y-37488969D01*
X80606964Y-37450874D01*
X80645059Y-37412779D01*
X80683154Y-37336588D01*
X80683154Y-37260398D01*
X80645059Y-37184207D01*
X80606964Y-37146112D01*
X80530773Y-37108017D01*
X80378392Y-37069921D01*
X80187916Y-37069921D01*
X80035535Y-37108017D01*
X79959345Y-37146112D01*
X79921250Y-37184207D01*
X79883154Y-37260398D01*
%TO.C,D16*%
X151797278Y-93824045D02*
X151797278Y-93024045D01*
X151606802Y-93024045D01*
X151492516Y-93062141D01*
X151416326Y-93138331D01*
X151378230Y-93214521D01*
X151340135Y-93366902D01*
X151340135Y-93481188D01*
X151378230Y-93633569D01*
X151416326Y-93709760D01*
X151492516Y-93785950D01*
X151606802Y-93824045D01*
X151797278Y-93824045D01*
X150578230Y-93824045D02*
X151035373Y-93824045D01*
X150806802Y-93824045D02*
X150806802Y-93024045D01*
X150882992Y-93138331D01*
X150959183Y-93214521D01*
X151035373Y-93252617D01*
X149892516Y-93024045D02*
X150044897Y-93024045D01*
X150121088Y-93062141D01*
X150159183Y-93100236D01*
X150235373Y-93214521D01*
X150273469Y-93366902D01*
X150273469Y-93671664D01*
X150235373Y-93747855D01*
X150197278Y-93785950D01*
X150121088Y-93824045D01*
X149968707Y-93824045D01*
X149892516Y-93785950D01*
X149854421Y-93747855D01*
X149816326Y-93671664D01*
X149816326Y-93481188D01*
X149854421Y-93404998D01*
X149892516Y-93366902D01*
X149968707Y-93328807D01*
X150121088Y-93328807D01*
X150197278Y-93366902D01*
X150235373Y-93404998D01*
X150273469Y-93481188D01*
%TO.C,D21*%
X151737278Y-114754045D02*
X151737278Y-113954045D01*
X151546802Y-113954045D01*
X151432516Y-113992141D01*
X151356326Y-114068331D01*
X151318230Y-114144521D01*
X151280135Y-114296902D01*
X151280135Y-114411188D01*
X151318230Y-114563569D01*
X151356326Y-114639760D01*
X151432516Y-114715950D01*
X151546802Y-114754045D01*
X151737278Y-114754045D01*
X150975373Y-114030236D02*
X150937278Y-113992141D01*
X150861088Y-113954045D01*
X150670611Y-113954045D01*
X150594421Y-113992141D01*
X150556326Y-114030236D01*
X150518230Y-114106426D01*
X150518230Y-114182617D01*
X150556326Y-114296902D01*
X151013469Y-114754045D01*
X150518230Y-114754045D01*
X149756326Y-114754045D02*
X150213469Y-114754045D01*
X149984897Y-114754045D02*
X149984897Y-113954045D01*
X150061088Y-114068331D01*
X150137278Y-114144521D01*
X150213469Y-114182617D01*
%TO.C,D20*%
X151827278Y-88624045D02*
X151827278Y-87824045D01*
X151636802Y-87824045D01*
X151522516Y-87862141D01*
X151446326Y-87938331D01*
X151408230Y-88014521D01*
X151370135Y-88166902D01*
X151370135Y-88281188D01*
X151408230Y-88433569D01*
X151446326Y-88509760D01*
X151522516Y-88585950D01*
X151636802Y-88624045D01*
X151827278Y-88624045D01*
X151065373Y-87900236D02*
X151027278Y-87862141D01*
X150951088Y-87824045D01*
X150760611Y-87824045D01*
X150684421Y-87862141D01*
X150646326Y-87900236D01*
X150608230Y-87976426D01*
X150608230Y-88052617D01*
X150646326Y-88166902D01*
X151103469Y-88624045D01*
X150608230Y-88624045D01*
X150112992Y-87824045D02*
X150036802Y-87824045D01*
X149960611Y-87862141D01*
X149922516Y-87900236D01*
X149884421Y-87976426D01*
X149846326Y-88128807D01*
X149846326Y-88319283D01*
X149884421Y-88471664D01*
X149922516Y-88547855D01*
X149960611Y-88585950D01*
X150036802Y-88624045D01*
X150112992Y-88624045D01*
X150189183Y-88585950D01*
X150227278Y-88547855D01*
X150265373Y-88471664D01*
X150303469Y-88319283D01*
X150303469Y-88128807D01*
X150265373Y-87976426D01*
X150227278Y-87900236D01*
X150189183Y-87862141D01*
X150112992Y-87824045D01*
%TO.C,D11*%
X125867278Y-78104045D02*
X125867278Y-77304045D01*
X125676802Y-77304045D01*
X125562516Y-77342141D01*
X125486326Y-77418331D01*
X125448230Y-77494521D01*
X125410135Y-77646902D01*
X125410135Y-77761188D01*
X125448230Y-77913569D01*
X125486326Y-77989760D01*
X125562516Y-78065950D01*
X125676802Y-78104045D01*
X125867278Y-78104045D01*
X124648230Y-78104045D02*
X125105373Y-78104045D01*
X124876802Y-78104045D02*
X124876802Y-77304045D01*
X124952992Y-77418331D01*
X125029183Y-77494521D01*
X125105373Y-77532617D01*
X123886326Y-78104045D02*
X124343469Y-78104045D01*
X124114897Y-78104045D02*
X124114897Y-77304045D01*
X124191088Y-77418331D01*
X124267278Y-77494521D01*
X124343469Y-77532617D01*
%TO.C,D13*%
X90513154Y-30306112D02*
X89713154Y-30306112D01*
X89713154Y-30496588D01*
X89751250Y-30610874D01*
X89827440Y-30687064D01*
X89903630Y-30725160D01*
X90056011Y-30763255D01*
X90170297Y-30763255D01*
X90322678Y-30725160D01*
X90398869Y-30687064D01*
X90475059Y-30610874D01*
X90513154Y-30496588D01*
X90513154Y-30306112D01*
X90513154Y-31525160D02*
X90513154Y-31068017D01*
X90513154Y-31296588D02*
X89713154Y-31296588D01*
X89827440Y-31220398D01*
X89903630Y-31144207D01*
X89941726Y-31068017D01*
X89713154Y-31791826D02*
X89713154Y-32287064D01*
X90017916Y-32020398D01*
X90017916Y-32134683D01*
X90056011Y-32210874D01*
X90094107Y-32248969D01*
X90170297Y-32287064D01*
X90360773Y-32287064D01*
X90436964Y-32248969D01*
X90475059Y-32210874D01*
X90513154Y-32134683D01*
X90513154Y-31906112D01*
X90475059Y-31829921D01*
X90436964Y-31791826D01*
%TO.C,D9*%
X72983154Y-30687064D02*
X72183154Y-30687064D01*
X72183154Y-30877541D01*
X72221250Y-30991826D01*
X72297440Y-31068017D01*
X72373630Y-31106112D01*
X72526011Y-31144207D01*
X72640297Y-31144207D01*
X72792678Y-31106112D01*
X72868869Y-31068017D01*
X72945059Y-30991826D01*
X72983154Y-30877541D01*
X72983154Y-30687064D01*
X72983154Y-31525160D02*
X72983154Y-31677541D01*
X72945059Y-31753731D01*
X72906964Y-31791826D01*
X72792678Y-31868017D01*
X72640297Y-31906112D01*
X72335535Y-31906112D01*
X72259345Y-31868017D01*
X72221250Y-31829921D01*
X72183154Y-31753731D01*
X72183154Y-31601350D01*
X72221250Y-31525160D01*
X72259345Y-31487064D01*
X72335535Y-31448969D01*
X72526011Y-31448969D01*
X72602202Y-31487064D01*
X72640297Y-31525160D01*
X72678392Y-31601350D01*
X72678392Y-31753731D01*
X72640297Y-31829921D01*
X72602202Y-31868017D01*
X72526011Y-31906112D01*
%TO.C,D8*%
X127646326Y-80554045D02*
X127646326Y-79754045D01*
X127455850Y-79754045D01*
X127341564Y-79792141D01*
X127265373Y-79868331D01*
X127227278Y-79944521D01*
X127189183Y-80096902D01*
X127189183Y-80211188D01*
X127227278Y-80363569D01*
X127265373Y-80439760D01*
X127341564Y-80515950D01*
X127455850Y-80554045D01*
X127646326Y-80554045D01*
X126732040Y-80096902D02*
X126808230Y-80058807D01*
X126846326Y-80020712D01*
X126884421Y-79944521D01*
X126884421Y-79906426D01*
X126846326Y-79830236D01*
X126808230Y-79792141D01*
X126732040Y-79754045D01*
X126579659Y-79754045D01*
X126503469Y-79792141D01*
X126465373Y-79830236D01*
X126427278Y-79906426D01*
X126427278Y-79944521D01*
X126465373Y-80020712D01*
X126503469Y-80058807D01*
X126579659Y-80096902D01*
X126732040Y-80096902D01*
X126808230Y-80134998D01*
X126846326Y-80173093D01*
X126884421Y-80249283D01*
X126884421Y-80401664D01*
X126846326Y-80477855D01*
X126808230Y-80515950D01*
X126732040Y-80554045D01*
X126579659Y-80554045D01*
X126503469Y-80515950D01*
X126465373Y-80477855D01*
X126427278Y-80401664D01*
X126427278Y-80249283D01*
X126465373Y-80173093D01*
X126503469Y-80134998D01*
X126579659Y-80096902D01*
%TO.C,D0*%
X28185654Y-30667914D02*
X27385654Y-30667914D01*
X27385654Y-30858391D01*
X27423750Y-30972676D01*
X27499940Y-31048867D01*
X27576130Y-31086962D01*
X27728511Y-31125057D01*
X27842797Y-31125057D01*
X27995178Y-31086962D01*
X28071369Y-31048867D01*
X28147559Y-30972676D01*
X28185654Y-30858391D01*
X28185654Y-30667914D01*
X27385654Y-31620295D02*
X27385654Y-31696486D01*
X27423750Y-31772676D01*
X27461845Y-31810771D01*
X27538035Y-31848867D01*
X27690416Y-31886962D01*
X27880892Y-31886962D01*
X28033273Y-31848867D01*
X28109464Y-31810771D01*
X28147559Y-31772676D01*
X28185654Y-31696486D01*
X28185654Y-31620295D01*
X28147559Y-31544105D01*
X28109464Y-31506010D01*
X28033273Y-31467914D01*
X27880892Y-31429819D01*
X27690416Y-31429819D01*
X27538035Y-31467914D01*
X27461845Y-31506010D01*
X27423750Y-31544105D01*
X27385654Y-31620295D01*
%TO.C,D18*%
X110853154Y-35696112D02*
X110053154Y-35696112D01*
X110053154Y-35886588D01*
X110091250Y-36000874D01*
X110167440Y-36077064D01*
X110243630Y-36115160D01*
X110396011Y-36153255D01*
X110510297Y-36153255D01*
X110662678Y-36115160D01*
X110738869Y-36077064D01*
X110815059Y-36000874D01*
X110853154Y-35886588D01*
X110853154Y-35696112D01*
X110853154Y-36915160D02*
X110853154Y-36458017D01*
X110853154Y-36686588D02*
X110053154Y-36686588D01*
X110167440Y-36610398D01*
X110243630Y-36534207D01*
X110281726Y-36458017D01*
X110396011Y-37372302D02*
X110357916Y-37296112D01*
X110319821Y-37258017D01*
X110243630Y-37219921D01*
X110205535Y-37219921D01*
X110129345Y-37258017D01*
X110091250Y-37296112D01*
X110053154Y-37372302D01*
X110053154Y-37524683D01*
X110091250Y-37600874D01*
X110129345Y-37638969D01*
X110205535Y-37677064D01*
X110243630Y-37677064D01*
X110319821Y-37638969D01*
X110357916Y-37600874D01*
X110396011Y-37524683D01*
X110396011Y-37372302D01*
X110434107Y-37296112D01*
X110472202Y-37258017D01*
X110548392Y-37219921D01*
X110700773Y-37219921D01*
X110776964Y-37258017D01*
X110815059Y-37296112D01*
X110853154Y-37372302D01*
X110853154Y-37524683D01*
X110815059Y-37600874D01*
X110776964Y-37638969D01*
X110700773Y-37677064D01*
X110548392Y-37677064D01*
X110472202Y-37638969D01*
X110434107Y-37600874D01*
X110396011Y-37524683D01*
%TO.C,D14*%
X96413154Y-35546112D02*
X95613154Y-35546112D01*
X95613154Y-35736588D01*
X95651250Y-35850874D01*
X95727440Y-35927064D01*
X95803630Y-35965160D01*
X95956011Y-36003255D01*
X96070297Y-36003255D01*
X96222678Y-35965160D01*
X96298869Y-35927064D01*
X96375059Y-35850874D01*
X96413154Y-35736588D01*
X96413154Y-35546112D01*
X96413154Y-36765160D02*
X96413154Y-36308017D01*
X96413154Y-36536588D02*
X95613154Y-36536588D01*
X95727440Y-36460398D01*
X95803630Y-36384207D01*
X95841726Y-36308017D01*
X95879821Y-37450874D02*
X96413154Y-37450874D01*
X95575059Y-37260398D02*
X96146488Y-37069921D01*
X96146488Y-37565160D01*
%TO.C,D2*%
X131866326Y-85444045D02*
X131866326Y-84644045D01*
X131675850Y-84644045D01*
X131561564Y-84682141D01*
X131485373Y-84758331D01*
X131447278Y-84834521D01*
X131409183Y-84986902D01*
X131409183Y-85101188D01*
X131447278Y-85253569D01*
X131485373Y-85329760D01*
X131561564Y-85405950D01*
X131675850Y-85444045D01*
X131866326Y-85444045D01*
X131104421Y-84720236D02*
X131066326Y-84682141D01*
X130990135Y-84644045D01*
X130799659Y-84644045D01*
X130723469Y-84682141D01*
X130685373Y-84720236D01*
X130647278Y-84796426D01*
X130647278Y-84872617D01*
X130685373Y-84986902D01*
X131142516Y-85444045D01*
X130647278Y-85444045D01*
%TO.C,D1*%
X34953154Y-35927064D02*
X34153154Y-35927064D01*
X34153154Y-36117541D01*
X34191250Y-36231826D01*
X34267440Y-36308017D01*
X34343630Y-36346112D01*
X34496011Y-36384207D01*
X34610297Y-36384207D01*
X34762678Y-36346112D01*
X34838869Y-36308017D01*
X34915059Y-36231826D01*
X34953154Y-36117541D01*
X34953154Y-35927064D01*
X34953154Y-37146112D02*
X34953154Y-36688969D01*
X34953154Y-36917541D02*
X34153154Y-36917541D01*
X34267440Y-36841350D01*
X34343630Y-36765160D01*
X34381726Y-36688969D01*
%TO.C,D12*%
X151697278Y-98964045D02*
X151697278Y-98164045D01*
X151506802Y-98164045D01*
X151392516Y-98202141D01*
X151316326Y-98278331D01*
X151278230Y-98354521D01*
X151240135Y-98506902D01*
X151240135Y-98621188D01*
X151278230Y-98773569D01*
X151316326Y-98849760D01*
X151392516Y-98925950D01*
X151506802Y-98964045D01*
X151697278Y-98964045D01*
X150478230Y-98964045D02*
X150935373Y-98964045D01*
X150706802Y-98964045D02*
X150706802Y-98164045D01*
X150782992Y-98278331D01*
X150859183Y-98354521D01*
X150935373Y-98392617D01*
X150173469Y-98240236D02*
X150135373Y-98202141D01*
X150059183Y-98164045D01*
X149868707Y-98164045D01*
X149792516Y-98202141D01*
X149754421Y-98240236D01*
X149716326Y-98316426D01*
X149716326Y-98392617D01*
X149754421Y-98506902D01*
X150211564Y-98964045D01*
X149716326Y-98964045D01*
%TO.C,D6*%
X57903154Y-30687064D02*
X57103154Y-30687064D01*
X57103154Y-30877541D01*
X57141250Y-30991826D01*
X57217440Y-31068017D01*
X57293630Y-31106112D01*
X57446011Y-31144207D01*
X57560297Y-31144207D01*
X57712678Y-31106112D01*
X57788869Y-31068017D01*
X57865059Y-30991826D01*
X57903154Y-30877541D01*
X57903154Y-30687064D01*
X57103154Y-31829921D02*
X57103154Y-31677541D01*
X57141250Y-31601350D01*
X57179345Y-31563255D01*
X57293630Y-31487064D01*
X57446011Y-31448969D01*
X57750773Y-31448969D01*
X57826964Y-31487064D01*
X57865059Y-31525160D01*
X57903154Y-31601350D01*
X57903154Y-31753731D01*
X57865059Y-31829921D01*
X57826964Y-31868017D01*
X57750773Y-31906112D01*
X57560297Y-31906112D01*
X57484107Y-31868017D01*
X57446011Y-31829921D01*
X57407916Y-31753731D01*
X57407916Y-31601350D01*
X57446011Y-31525160D01*
X57484107Y-31487064D01*
X57560297Y-31448969D01*
%TO.C,D7*%
X65763154Y-35927064D02*
X64963154Y-35927064D01*
X64963154Y-36117541D01*
X65001250Y-36231826D01*
X65077440Y-36308017D01*
X65153630Y-36346112D01*
X65306011Y-36384207D01*
X65420297Y-36384207D01*
X65572678Y-36346112D01*
X65648869Y-36308017D01*
X65725059Y-36231826D01*
X65763154Y-36117541D01*
X65763154Y-35927064D01*
X64963154Y-36650874D02*
X64963154Y-37184207D01*
X65763154Y-36841350D01*
%TO.C,MC-EC0*%
X131673333Y-50789641D02*
X131573333Y-50822974D01*
X131540000Y-50856307D01*
X131506666Y-50922974D01*
X131506666Y-51022974D01*
X131540000Y-51089641D01*
X131573333Y-51122974D01*
X131640000Y-51156307D01*
X131906666Y-51156307D01*
X131906666Y-50456307D01*
X131673333Y-50456307D01*
X131606666Y-50489641D01*
X131573333Y-50522974D01*
X131540000Y-50589641D01*
X131540000Y-50656307D01*
X131573333Y-50722974D01*
X131606666Y-50756307D01*
X131673333Y-50789641D01*
X131906666Y-50789641D01*
X131273333Y-50456307D02*
X130806666Y-50456307D01*
X131106666Y-51156307D01*
X121695666Y-34372498D02*
X121962333Y-34372498D01*
X121962333Y-34791545D02*
X121962333Y-33991545D01*
X121581380Y-33991545D01*
X120933761Y-34258212D02*
X120933761Y-34791545D01*
X121124238Y-33953450D02*
X121314714Y-34524879D01*
X120819476Y-34524879D01*
X127023333Y-50925355D02*
X127061428Y-50963450D01*
X127175714Y-51001545D01*
X127251904Y-51001545D01*
X127366190Y-50963450D01*
X127442380Y-50887260D01*
X127480476Y-50811069D01*
X127518571Y-50658688D01*
X127518571Y-50544402D01*
X127480476Y-50392021D01*
X127442380Y-50315831D01*
X127366190Y-50239641D01*
X127251904Y-50201545D01*
X127175714Y-50201545D01*
X127061428Y-50239641D01*
X127023333Y-50277736D01*
X126756666Y-50201545D02*
X126223333Y-50201545D01*
X126566190Y-51001545D01*
X132903380Y-47072498D02*
X132636714Y-47072498D01*
X132522428Y-47491545D02*
X132903380Y-47491545D01*
X132903380Y-46691545D01*
X132522428Y-46691545D01*
X131836714Y-46691545D02*
X131989095Y-46691545D01*
X132065285Y-46729641D01*
X132103380Y-46767736D01*
X132179571Y-46882021D01*
X132217666Y-47034402D01*
X132217666Y-47339164D01*
X132179571Y-47415355D01*
X132141476Y-47453450D01*
X132065285Y-47491545D01*
X131912904Y-47491545D01*
X131836714Y-47453450D01*
X131798619Y-47415355D01*
X131760523Y-47339164D01*
X131760523Y-47148688D01*
X131798619Y-47072498D01*
X131836714Y-47034402D01*
X131912904Y-46996307D01*
X132065285Y-46996307D01*
X132141476Y-47034402D01*
X132179571Y-47072498D01*
X132217666Y-47148688D01*
X132484333Y-42335355D02*
X132522428Y-42373450D01*
X132636714Y-42411545D01*
X132712904Y-42411545D01*
X132827190Y-42373450D01*
X132903380Y-42297260D01*
X132941476Y-42221069D01*
X132979571Y-42068688D01*
X132979571Y-41954402D01*
X132941476Y-41802021D01*
X132903380Y-41725831D01*
X132827190Y-41649641D01*
X132712904Y-41611545D01*
X132636714Y-41611545D01*
X132522428Y-41649641D01*
X132484333Y-41687736D01*
X131798619Y-41611545D02*
X131951000Y-41611545D01*
X132027190Y-41649641D01*
X132065285Y-41687736D01*
X132141476Y-41802021D01*
X132179571Y-41954402D01*
X132179571Y-42259164D01*
X132141476Y-42335355D01*
X132103380Y-42373450D01*
X132027190Y-42411545D01*
X131874809Y-42411545D01*
X131798619Y-42373450D01*
X131760523Y-42335355D01*
X131722428Y-42259164D01*
X131722428Y-42068688D01*
X131760523Y-41992498D01*
X131798619Y-41954402D01*
X131874809Y-41916307D01*
X132027190Y-41916307D01*
X132103380Y-41954402D01*
X132141476Y-41992498D01*
X132179571Y-42068688D01*
X132941476Y-34791545D02*
X132941476Y-33991545D01*
X132751000Y-33991545D01*
X132636714Y-34029641D01*
X132560523Y-34105831D01*
X132522428Y-34182021D01*
X132484333Y-34334402D01*
X132484333Y-34448688D01*
X132522428Y-34601069D01*
X132560523Y-34677260D01*
X132636714Y-34753450D01*
X132751000Y-34791545D01*
X132941476Y-34791545D01*
X131722428Y-34791545D02*
X132179571Y-34791545D01*
X131951000Y-34791545D02*
X131951000Y-33991545D01*
X132027190Y-34105831D01*
X132103380Y-34182021D01*
X132179571Y-34220117D01*
X122038523Y-26409641D02*
X122114714Y-26371545D01*
X122229000Y-26371545D01*
X122343285Y-26409641D01*
X122419476Y-26485831D01*
X122457571Y-26562021D01*
X122495666Y-26714402D01*
X122495666Y-26828688D01*
X122457571Y-26981069D01*
X122419476Y-27057260D01*
X122343285Y-27133450D01*
X122229000Y-27171545D01*
X122152809Y-27171545D01*
X122038523Y-27133450D01*
X122000428Y-27095355D01*
X122000428Y-26828688D01*
X122152809Y-26828688D01*
X121657571Y-27171545D02*
X121657571Y-26371545D01*
X121200428Y-27171545D01*
X121200428Y-26371545D01*
X120819476Y-27171545D02*
X120819476Y-26371545D01*
X120629000Y-26371545D01*
X120514714Y-26409641D01*
X120438523Y-26485831D01*
X120400428Y-26562021D01*
X120362333Y-26714402D01*
X120362333Y-26828688D01*
X120400428Y-26981069D01*
X120438523Y-27057260D01*
X120514714Y-27133450D01*
X120629000Y-27171545D01*
X120819476Y-27171545D01*
X121690213Y-29643450D02*
X121575927Y-29681545D01*
X121385451Y-29681545D01*
X121309260Y-29643450D01*
X121271165Y-29605355D01*
X121233070Y-29529164D01*
X121233070Y-29452974D01*
X121271165Y-29376783D01*
X121309260Y-29338688D01*
X121385451Y-29300593D01*
X121537832Y-29262498D01*
X121614022Y-29224402D01*
X121652118Y-29186307D01*
X121690213Y-29110117D01*
X121690213Y-29033926D01*
X121652118Y-28957736D01*
X121614022Y-28919641D01*
X121537832Y-28881545D01*
X121347356Y-28881545D01*
X121233070Y-28919641D01*
X121004499Y-28881545D02*
X120547356Y-28881545D01*
X120775927Y-29681545D02*
X120775927Y-28881545D01*
X130020476Y-51001545D02*
X130020476Y-50201545D01*
X129830000Y-50201545D01*
X129715714Y-50239641D01*
X129639523Y-50315831D01*
X129601428Y-50392021D01*
X129563333Y-50544402D01*
X129563333Y-50658688D01*
X129601428Y-50811069D01*
X129639523Y-50887260D01*
X129715714Y-50963450D01*
X129830000Y-51001545D01*
X130020476Y-51001545D01*
X128839523Y-50201545D02*
X129220476Y-50201545D01*
X129258571Y-50582498D01*
X129220476Y-50544402D01*
X129144285Y-50506307D01*
X128953809Y-50506307D01*
X128877619Y-50544402D01*
X128839523Y-50582498D01*
X128801428Y-50658688D01*
X128801428Y-50849164D01*
X128839523Y-50925355D01*
X128877619Y-50963450D01*
X128953809Y-51001545D01*
X129144285Y-51001545D01*
X129220476Y-50963450D01*
X129258571Y-50925355D01*
X132941476Y-39871545D02*
X132941476Y-39071545D01*
X132751000Y-39071545D01*
X132636714Y-39109641D01*
X132560523Y-39185831D01*
X132522428Y-39262021D01*
X132484333Y-39414402D01*
X132484333Y-39528688D01*
X132522428Y-39681069D01*
X132560523Y-39757260D01*
X132636714Y-39833450D01*
X132751000Y-39871545D01*
X132941476Y-39871545D01*
X131798619Y-39338212D02*
X131798619Y-39871545D01*
X131989095Y-39033450D02*
X132179571Y-39604879D01*
X131684333Y-39604879D01*
X133454991Y-50703938D02*
X133407851Y-50798219D01*
X133407851Y-50845360D01*
X133431421Y-50916070D01*
X133502132Y-50986781D01*
X133572842Y-51010351D01*
X133619983Y-51010351D01*
X133690693Y-50986781D01*
X133879255Y-50798219D01*
X133384280Y-50303244D01*
X133219289Y-50468236D01*
X133195719Y-50538947D01*
X133195719Y-50586087D01*
X133219289Y-50656798D01*
X133266429Y-50703938D01*
X133337140Y-50727508D01*
X133384280Y-50727508D01*
X133454991Y-50703938D01*
X133619983Y-50538947D01*
X132653603Y-51033921D02*
X132889306Y-50798219D01*
X133148578Y-51010351D01*
X133101438Y-51010351D01*
X133030727Y-51033921D01*
X132912876Y-51151773D01*
X132889306Y-51222483D01*
X132889306Y-51269624D01*
X132912876Y-51340334D01*
X133030727Y-51458185D01*
X133101438Y-51481756D01*
X133148578Y-51481756D01*
X133219289Y-51458185D01*
X133337140Y-51340334D01*
X133360710Y-51269624D01*
X133360710Y-51222483D01*
X132960523Y-31489641D02*
X133036714Y-31451545D01*
X133151000Y-31451545D01*
X133265285Y-31489641D01*
X133341476Y-31565831D01*
X133379571Y-31642021D01*
X133417666Y-31794402D01*
X133417666Y-31908688D01*
X133379571Y-32061069D01*
X133341476Y-32137260D01*
X133265285Y-32213450D01*
X133151000Y-32251545D01*
X133074809Y-32251545D01*
X132960523Y-32213450D01*
X132922428Y-32175355D01*
X132922428Y-31908688D01*
X133074809Y-31908688D01*
X132579571Y-32251545D02*
X132579571Y-31451545D01*
X132122428Y-32251545D01*
X132122428Y-31451545D01*
X131741476Y-32251545D02*
X131741476Y-31451545D01*
X131551000Y-31451545D01*
X131436714Y-31489641D01*
X131360523Y-31565831D01*
X131322428Y-31642021D01*
X131284333Y-31794402D01*
X131284333Y-31908688D01*
X131322428Y-32061069D01*
X131360523Y-32137260D01*
X131436714Y-32213450D01*
X131551000Y-32251545D01*
X131741476Y-32251545D01*
X121695666Y-41992498D02*
X121962333Y-41992498D01*
X121962333Y-42411545D02*
X121962333Y-41611545D01*
X121581380Y-41611545D01*
X121352809Y-41611545D02*
X120819476Y-41611545D01*
X121162333Y-42411545D01*
X132960523Y-28949641D02*
X133036714Y-28911545D01*
X133151000Y-28911545D01*
X133265285Y-28949641D01*
X133341476Y-29025831D01*
X133379571Y-29102021D01*
X133417666Y-29254402D01*
X133417666Y-29368688D01*
X133379571Y-29521069D01*
X133341476Y-29597260D01*
X133265285Y-29673450D01*
X133151000Y-29711545D01*
X133074809Y-29711545D01*
X132960523Y-29673450D01*
X132922428Y-29635355D01*
X132922428Y-29368688D01*
X133074809Y-29368688D01*
X132579571Y-29711545D02*
X132579571Y-28911545D01*
X132122428Y-29711545D01*
X132122428Y-28911545D01*
X131741476Y-29711545D02*
X131741476Y-28911545D01*
X131551000Y-28911545D01*
X131436714Y-28949641D01*
X131360523Y-29025831D01*
X131322428Y-29102021D01*
X131284333Y-29254402D01*
X131284333Y-29368688D01*
X131322428Y-29521069D01*
X131360523Y-29597260D01*
X131436714Y-29673450D01*
X131551000Y-29711545D01*
X131741476Y-29711545D01*
X121752809Y-47072498D02*
X121638523Y-47110593D01*
X121600428Y-47148688D01*
X121562333Y-47224879D01*
X121562333Y-47339164D01*
X121600428Y-47415355D01*
X121638523Y-47453450D01*
X121714714Y-47491545D01*
X122019476Y-47491545D01*
X122019476Y-46691545D01*
X121752809Y-46691545D01*
X121676619Y-46729641D01*
X121638523Y-46767736D01*
X121600428Y-46843926D01*
X121600428Y-46920117D01*
X121638523Y-46996307D01*
X121676619Y-47034402D01*
X121752809Y-47072498D01*
X122019476Y-47072498D01*
X121295666Y-46691545D02*
X120800428Y-46691545D01*
X121067095Y-46996307D01*
X120952809Y-46996307D01*
X120876619Y-47034402D01*
X120838523Y-47072498D01*
X120800428Y-47148688D01*
X120800428Y-47339164D01*
X120838523Y-47415355D01*
X120876619Y-47453450D01*
X120952809Y-47491545D01*
X121181380Y-47491545D01*
X121257571Y-47453450D01*
X121295666Y-47415355D01*
X121695666Y-39452498D02*
X121962333Y-39452498D01*
X121962333Y-39871545D02*
X121962333Y-39071545D01*
X121581380Y-39071545D01*
X120933761Y-39071545D02*
X121086142Y-39071545D01*
X121162333Y-39109641D01*
X121200428Y-39147736D01*
X121276619Y-39262021D01*
X121314714Y-39414402D01*
X121314714Y-39719164D01*
X121276619Y-39795355D01*
X121238523Y-39833450D01*
X121162333Y-39871545D01*
X121009952Y-39871545D01*
X120933761Y-39833450D01*
X120895666Y-39795355D01*
X120857571Y-39719164D01*
X120857571Y-39528688D01*
X120895666Y-39452498D01*
X120933761Y-39414402D01*
X121009952Y-39376307D01*
X121162333Y-39376307D01*
X121238523Y-39414402D01*
X121276619Y-39452498D01*
X121314714Y-39528688D01*
X121752809Y-44532498D02*
X121638523Y-44570593D01*
X121600428Y-44608688D01*
X121562333Y-44684879D01*
X121562333Y-44799164D01*
X121600428Y-44875355D01*
X121638523Y-44913450D01*
X121714714Y-44951545D01*
X122019476Y-44951545D01*
X122019476Y-44151545D01*
X121752809Y-44151545D01*
X121676619Y-44189641D01*
X121638523Y-44227736D01*
X121600428Y-44303926D01*
X121600428Y-44380117D01*
X121638523Y-44456307D01*
X121676619Y-44494402D01*
X121752809Y-44532498D01*
X122019476Y-44532498D01*
X120800428Y-44951545D02*
X121257571Y-44951545D01*
X121029000Y-44951545D02*
X121029000Y-44151545D01*
X121105190Y-44265831D01*
X121181380Y-44342021D01*
X121257571Y-44380117D01*
X132941476Y-27171545D02*
X132941476Y-26371545D01*
X132751000Y-26371545D01*
X132636714Y-26409641D01*
X132560523Y-26485831D01*
X132522428Y-26562021D01*
X132484333Y-26714402D01*
X132484333Y-26828688D01*
X132522428Y-26981069D01*
X132560523Y-27057260D01*
X132636714Y-27133450D01*
X132751000Y-27171545D01*
X132941476Y-27171545D01*
X132179571Y-26447736D02*
X132141476Y-26409641D01*
X132065285Y-26371545D01*
X131874809Y-26371545D01*
X131798619Y-26409641D01*
X131760523Y-26447736D01*
X131722428Y-26523926D01*
X131722428Y-26600117D01*
X131760523Y-26714402D01*
X132217666Y-27171545D01*
X131722428Y-27171545D01*
X132941476Y-44951545D02*
X132941476Y-44151545D01*
X132751000Y-44151545D01*
X132636714Y-44189641D01*
X132560523Y-44265831D01*
X132522428Y-44342021D01*
X132484333Y-44494402D01*
X132484333Y-44608688D01*
X132522428Y-44761069D01*
X132560523Y-44837260D01*
X132636714Y-44913450D01*
X132751000Y-44951545D01*
X132941476Y-44951545D01*
X132217666Y-44151545D02*
X131684333Y-44151545D01*
X132027190Y-44951545D01*
X122495666Y-31451545D02*
X122229000Y-32251545D01*
X121962333Y-31451545D01*
X121238523Y-32175355D02*
X121276619Y-32213450D01*
X121390904Y-32251545D01*
X121467095Y-32251545D01*
X121581380Y-32213450D01*
X121657571Y-32137260D01*
X121695666Y-32061069D01*
X121733761Y-31908688D01*
X121733761Y-31794402D01*
X121695666Y-31642021D01*
X121657571Y-31565831D01*
X121581380Y-31489641D01*
X121467095Y-31451545D01*
X121390904Y-31451545D01*
X121276619Y-31489641D01*
X121238523Y-31527736D01*
X120438523Y-32175355D02*
X120476619Y-32213450D01*
X120590904Y-32251545D01*
X120667095Y-32251545D01*
X120781380Y-32213450D01*
X120857571Y-32137260D01*
X120895666Y-32061069D01*
X120933761Y-31908688D01*
X120933761Y-31794402D01*
X120895666Y-31642021D01*
X120857571Y-31565831D01*
X120781380Y-31489641D01*
X120667095Y-31451545D01*
X120590904Y-31451545D01*
X120476619Y-31489641D01*
X120438523Y-31527736D01*
X132941476Y-37331545D02*
X132941476Y-36531545D01*
X132751000Y-36531545D01*
X132636714Y-36569641D01*
X132560523Y-36645831D01*
X132522428Y-36722021D01*
X132484333Y-36874402D01*
X132484333Y-36988688D01*
X132522428Y-37141069D01*
X132560523Y-37217260D01*
X132636714Y-37293450D01*
X132751000Y-37331545D01*
X132941476Y-37331545D01*
X131989095Y-36531545D02*
X131912904Y-36531545D01*
X131836714Y-36569641D01*
X131798619Y-36607736D01*
X131760523Y-36683926D01*
X131722428Y-36836307D01*
X131722428Y-37026783D01*
X131760523Y-37179164D01*
X131798619Y-37255355D01*
X131836714Y-37293450D01*
X131912904Y-37331545D01*
X131989095Y-37331545D01*
X132065285Y-37293450D01*
X132103380Y-37255355D01*
X132141476Y-37179164D01*
X132179571Y-37026783D01*
X132179571Y-36836307D01*
X132141476Y-36683926D01*
X132103380Y-36607736D01*
X132065285Y-36569641D01*
X131989095Y-36531545D01*
X122623333Y-50789641D02*
X122856666Y-50789641D01*
X122856666Y-51156307D02*
X122856666Y-50456307D01*
X122523333Y-50456307D01*
X122123333Y-50456307D02*
X122056666Y-50456307D01*
X121990000Y-50489641D01*
X121956666Y-50522974D01*
X121923333Y-50589641D01*
X121890000Y-50722974D01*
X121890000Y-50889641D01*
X121923333Y-51022974D01*
X121956666Y-51089641D01*
X121990000Y-51122974D01*
X122056666Y-51156307D01*
X122123333Y-51156307D01*
X122190000Y-51122974D01*
X122223333Y-51089641D01*
X122256666Y-51022974D01*
X122290000Y-50889641D01*
X122290000Y-50722974D01*
X122256666Y-50589641D01*
X122223333Y-50522974D01*
X122190000Y-50489641D01*
X122123333Y-50456307D01*
X132652348Y-23831545D02*
X132195205Y-23831545D01*
X132423776Y-24631545D02*
X132423776Y-23831545D01*
X132004729Y-23831545D02*
X131471395Y-24631545D01*
X131471395Y-23831545D02*
X132004729Y-24631545D01*
X131014252Y-23831545D02*
X130938062Y-23831545D01*
X130861872Y-23869641D01*
X130823776Y-23907736D01*
X130785681Y-23983926D01*
X130747586Y-24136307D01*
X130747586Y-24326783D01*
X130785681Y-24479164D01*
X130823776Y-24555355D01*
X130861872Y-24593450D01*
X130938062Y-24631545D01*
X131014252Y-24631545D01*
X131090443Y-24593450D01*
X131128538Y-24555355D01*
X131166633Y-24479164D01*
X131204729Y-24326783D01*
X131204729Y-24136307D01*
X131166633Y-23983926D01*
X131128538Y-23907736D01*
X131090443Y-23869641D01*
X131014252Y-23831545D01*
X129833300Y-23793450D02*
X130519014Y-24822021D01*
X129566633Y-24631545D02*
X129566633Y-23831545D01*
X129376157Y-23831545D01*
X129261872Y-23869641D01*
X129185681Y-23945831D01*
X129147586Y-24022021D01*
X129109491Y-24174402D01*
X129109491Y-24288688D01*
X129147586Y-24441069D01*
X129185681Y-24517260D01*
X129261872Y-24593450D01*
X129376157Y-24631545D01*
X129566633Y-24631545D01*
X128842824Y-23831545D02*
X128347586Y-23831545D01*
X128614252Y-24136307D01*
X128499967Y-24136307D01*
X128423776Y-24174402D01*
X128385681Y-24212498D01*
X128347586Y-24288688D01*
X128347586Y-24479164D01*
X128385681Y-24555355D01*
X128423776Y-24593450D01*
X128499967Y-24631545D01*
X128728538Y-24631545D01*
X128804729Y-24593450D01*
X128842824Y-24555355D01*
X120725702Y-51104632D02*
X120631421Y-51057492D01*
X120584280Y-51057492D01*
X120513570Y-51081062D01*
X120442859Y-51151773D01*
X120419289Y-51222483D01*
X120419289Y-51269624D01*
X120442859Y-51340334D01*
X120631421Y-51528896D01*
X121126396Y-51033921D01*
X120961404Y-50868930D01*
X120890693Y-50845360D01*
X120843553Y-50845360D01*
X120772842Y-50868930D01*
X120725702Y-50916070D01*
X120702132Y-50986781D01*
X120702132Y-51033921D01*
X120725702Y-51104632D01*
X120890693Y-51269624D01*
X120419289Y-50326815D02*
X120513570Y-50421096D01*
X120537140Y-50491806D01*
X120537140Y-50538947D01*
X120513570Y-50656798D01*
X120442859Y-50774649D01*
X120254297Y-50963211D01*
X120183587Y-50986781D01*
X120136446Y-50986781D01*
X120065735Y-50963211D01*
X119971455Y-50868930D01*
X119947884Y-50798219D01*
X119947884Y-50751079D01*
X119971455Y-50680368D01*
X120089306Y-50562517D01*
X120160016Y-50538947D01*
X120207157Y-50538947D01*
X120277867Y-50562517D01*
X120372148Y-50656798D01*
X120395719Y-50727508D01*
X120395719Y-50774649D01*
X120372148Y-50845360D01*
X124616666Y-50582498D02*
X124883333Y-50582498D01*
X124883333Y-51001545D02*
X124883333Y-50201545D01*
X124502380Y-50201545D01*
X123778571Y-51001545D02*
X124235714Y-51001545D01*
X124007142Y-51001545D02*
X124007142Y-50201545D01*
X124083333Y-50315831D01*
X124159523Y-50392021D01*
X124235714Y-50430117D01*
X121752809Y-49612498D02*
X121638523Y-49650593D01*
X121600428Y-49688688D01*
X121562333Y-49764879D01*
X121562333Y-49879164D01*
X121600428Y-49955355D01*
X121638523Y-49993450D01*
X121714714Y-50031545D01*
X122019476Y-50031545D01*
X122019476Y-49231545D01*
X121752809Y-49231545D01*
X121676619Y-49269641D01*
X121638523Y-49307736D01*
X121600428Y-49383926D01*
X121600428Y-49460117D01*
X121638523Y-49536307D01*
X121676619Y-49574402D01*
X121752809Y-49612498D01*
X122019476Y-49612498D01*
X121257571Y-49307736D02*
X121219476Y-49269641D01*
X121143285Y-49231545D01*
X120952809Y-49231545D01*
X120876619Y-49269641D01*
X120838523Y-49307736D01*
X120800428Y-49383926D01*
X120800428Y-49460117D01*
X120838523Y-49574402D01*
X121295666Y-50031545D01*
X120800428Y-50031545D01*
X132674809Y-49612498D02*
X132560523Y-49650593D01*
X132522428Y-49688688D01*
X132484333Y-49764879D01*
X132484333Y-49879164D01*
X132522428Y-49955355D01*
X132560523Y-49993450D01*
X132636714Y-50031545D01*
X132941476Y-50031545D01*
X132941476Y-49231545D01*
X132674809Y-49231545D01*
X132598619Y-49269641D01*
X132560523Y-49307736D01*
X132522428Y-49383926D01*
X132522428Y-49460117D01*
X132560523Y-49536307D01*
X132598619Y-49574402D01*
X132674809Y-49612498D01*
X132941476Y-49612498D01*
X131798619Y-49498212D02*
X131798619Y-50031545D01*
X131989095Y-49193450D02*
X132179571Y-49764879D01*
X131684333Y-49764879D01*
X121695666Y-36912498D02*
X121962333Y-36912498D01*
X121962333Y-37331545D02*
X121962333Y-36531545D01*
X121581380Y-36531545D01*
X120895666Y-36531545D02*
X121276619Y-36531545D01*
X121314714Y-36912498D01*
X121276619Y-36874402D01*
X121200428Y-36836307D01*
X121009952Y-36836307D01*
X120933761Y-36874402D01*
X120895666Y-36912498D01*
X120857571Y-36988688D01*
X120857571Y-37179164D01*
X120895666Y-37255355D01*
X120933761Y-37293450D01*
X121009952Y-37331545D01*
X121200428Y-37331545D01*
X121276619Y-37293450D01*
X121314714Y-37255355D01*
X121752809Y-24212498D02*
X121638523Y-24250593D01*
X121600428Y-24288688D01*
X121562333Y-24364879D01*
X121562333Y-24479164D01*
X121600428Y-24555355D01*
X121638523Y-24593450D01*
X121714714Y-24631545D01*
X122019476Y-24631545D01*
X122019476Y-23831545D01*
X121752809Y-23831545D01*
X121676619Y-23869641D01*
X121638523Y-23907736D01*
X121600428Y-23983926D01*
X121600428Y-24060117D01*
X121638523Y-24136307D01*
X121676619Y-24174402D01*
X121752809Y-24212498D01*
X122019476Y-24212498D01*
X121067095Y-23831545D02*
X120990904Y-23831545D01*
X120914714Y-23869641D01*
X120876619Y-23907736D01*
X120838523Y-23983926D01*
X120800428Y-24136307D01*
X120800428Y-24326783D01*
X120838523Y-24479164D01*
X120876619Y-24555355D01*
X120914714Y-24593450D01*
X120990904Y-24631545D01*
X121067095Y-24631545D01*
X121143285Y-24593450D01*
X121181380Y-24555355D01*
X121219476Y-24479164D01*
X121257571Y-24326783D01*
X121257571Y-24136307D01*
X121219476Y-23983926D01*
X121181380Y-23907736D01*
X121143285Y-23869641D01*
X121067095Y-23831545D01*
%TO.C,D5*%
X129836326Y-82994045D02*
X129836326Y-82194045D01*
X129645850Y-82194045D01*
X129531564Y-82232141D01*
X129455373Y-82308331D01*
X129417278Y-82384521D01*
X129379183Y-82536902D01*
X129379183Y-82651188D01*
X129417278Y-82803569D01*
X129455373Y-82879760D01*
X129531564Y-82955950D01*
X129645850Y-82994045D01*
X129836326Y-82994045D01*
X128655373Y-82194045D02*
X129036326Y-82194045D01*
X129074421Y-82574998D01*
X129036326Y-82536902D01*
X128960135Y-82498807D01*
X128769659Y-82498807D01*
X128693469Y-82536902D01*
X128655373Y-82574998D01*
X128617278Y-82651188D01*
X128617278Y-82841664D01*
X128655373Y-82917855D01*
X128693469Y-82955950D01*
X128769659Y-82994045D01*
X128960135Y-82994045D01*
X129036326Y-82955950D01*
X129074421Y-82917855D01*
%TO.C,J0*%
X148802500Y-31097141D02*
X148802500Y-37197141D01*
X160902500Y-36947141D02*
X162902500Y-36947141D01*
X160902500Y-31097141D02*
X148802500Y-31097141D01*
X160902500Y-31347141D02*
X162902500Y-31347141D01*
X162902500Y-31347141D02*
X162902500Y-36947141D01*
X160902500Y-31097141D02*
X160902500Y-37197141D01*
X160902500Y-37197141D02*
X148802500Y-37197141D01*
%TO.C,MX19*%
X101840000Y-86514641D02*
X100840000Y-86514641D01*
X114840000Y-72514641D02*
X114840000Y-73514641D01*
X100840000Y-86514641D02*
X100840000Y-85514641D01*
X114840000Y-85514641D02*
X114840000Y-86514641D01*
X114840000Y-86514641D02*
X113840000Y-86514641D01*
X113840000Y-72514641D02*
X114840000Y-72514641D01*
X100840000Y-72514641D02*
X101840000Y-72514641D01*
X100840000Y-73514641D02*
X100840000Y-72514641D01*
%TO.C,MX11*%
X84677500Y-85514641D02*
X84677500Y-86514641D01*
X84677500Y-72514641D02*
X84677500Y-73514641D01*
X70677500Y-73514641D02*
X70677500Y-72514641D01*
X83677500Y-72514641D02*
X84677500Y-72514641D01*
X71677500Y-86514641D02*
X70677500Y-86514641D01*
X70677500Y-72514641D02*
X71677500Y-72514641D01*
X70677500Y-86514641D02*
X70677500Y-85514641D01*
X84677500Y-86514641D02*
X83677500Y-86514641D01*
%TO.C,MX20*%
X120396250Y-87595891D02*
X120396250Y-88595891D01*
X120396250Y-100595891D02*
X120396250Y-101595891D01*
X106396250Y-101595891D02*
X106396250Y-100595891D01*
X106396250Y-87595891D02*
X107396250Y-87595891D01*
X106396250Y-88595891D02*
X106396250Y-87595891D01*
X119396250Y-87595891D02*
X120396250Y-87595891D01*
X120396250Y-101595891D02*
X119396250Y-101595891D01*
X107396250Y-101595891D02*
X106396250Y-101595891D01*
%TO.C,MX12*%
X70677500Y-87595891D02*
X71677500Y-87595891D01*
X71677500Y-101595891D02*
X70677500Y-101595891D01*
X84677500Y-100595891D02*
X84677500Y-101595891D01*
X70677500Y-88595891D02*
X70677500Y-87595891D01*
X84677500Y-101595891D02*
X83677500Y-101595891D01*
X70677500Y-101595891D02*
X70677500Y-100595891D01*
X83677500Y-87595891D02*
X84677500Y-87595891D01*
X84677500Y-87595891D02*
X84677500Y-88595891D01*
%TO.C,MX18*%
X101840000Y-71433391D02*
X100840000Y-71433391D01*
X100840000Y-71433391D02*
X100840000Y-70433391D01*
X114840000Y-70433391D02*
X114840000Y-71433391D01*
X100840000Y-57433391D02*
X101840000Y-57433391D01*
X114840000Y-71433391D02*
X113840000Y-71433391D01*
X113840000Y-57433391D02*
X114840000Y-57433391D01*
X100840000Y-58433391D02*
X100840000Y-57433391D01*
X114840000Y-57433391D02*
X114840000Y-58433391D01*
%TO.C,MX10*%
X70677500Y-71433391D02*
X70677500Y-70433391D01*
X83677500Y-57433391D02*
X84677500Y-57433391D01*
X84677500Y-57433391D02*
X84677500Y-58433391D01*
X84677500Y-71433391D02*
X83677500Y-71433391D01*
X70677500Y-58433391D02*
X70677500Y-57433391D01*
X70677500Y-57433391D02*
X71677500Y-57433391D01*
X71677500Y-71433391D02*
X70677500Y-71433391D01*
X84677500Y-70433391D02*
X84677500Y-71433391D01*
%TO.C,MX15*%
X99758750Y-85514641D02*
X99758750Y-86514641D01*
X85758750Y-72514641D02*
X86758750Y-72514641D01*
X99758750Y-72514641D02*
X99758750Y-73514641D01*
X85758750Y-86514641D02*
X85758750Y-85514641D01*
X99758750Y-86514641D02*
X98758750Y-86514641D01*
X86758750Y-86514641D02*
X85758750Y-86514641D01*
X98758750Y-72514641D02*
X99758750Y-72514641D01*
X85758750Y-73514641D02*
X85758750Y-72514641D01*
%TO.C,MX7*%
X69596250Y-57433391D02*
X69596250Y-58433391D01*
X56596250Y-71433391D02*
X55596250Y-71433391D01*
X68596250Y-57433391D02*
X69596250Y-57433391D01*
X55596250Y-57433391D02*
X56596250Y-57433391D01*
X55596250Y-58433391D02*
X55596250Y-57433391D01*
X55596250Y-71433391D02*
X55596250Y-70433391D01*
X69596250Y-71433391D02*
X68596250Y-71433391D01*
X69596250Y-70433391D02*
X69596250Y-71433391D01*
%TO.C,MX3*%
X40515000Y-56352141D02*
X40515000Y-55352141D01*
X54515000Y-56352141D02*
X53515000Y-56352141D01*
X41515000Y-56352141D02*
X40515000Y-56352141D01*
X40515000Y-42352141D02*
X41515000Y-42352141D01*
X40515000Y-43352141D02*
X40515000Y-42352141D01*
X53515000Y-42352141D02*
X54515000Y-42352141D01*
X54515000Y-42352141D02*
X54515000Y-43352141D01*
X54515000Y-55352141D02*
X54515000Y-56352141D01*
%TO.C,MX14*%
X85758750Y-57433391D02*
X86758750Y-57433391D01*
X86758750Y-71433391D02*
X85758750Y-71433391D01*
X99758750Y-71433391D02*
X98758750Y-71433391D01*
X85758750Y-58433391D02*
X85758750Y-57433391D01*
X99758750Y-70433391D02*
X99758750Y-71433391D01*
X99758750Y-57433391D02*
X99758750Y-58433391D01*
X85758750Y-71433391D02*
X85758750Y-70433391D01*
X98758750Y-57433391D02*
X99758750Y-57433391D01*
%TO.C,MX0*%
X38433750Y-42352141D02*
X39433750Y-42352141D01*
X39433750Y-55352141D02*
X39433750Y-56352141D01*
X25433750Y-42352141D02*
X26433750Y-42352141D01*
X39433750Y-56352141D02*
X38433750Y-56352141D01*
X39433750Y-42352141D02*
X39433750Y-43352141D01*
X26433750Y-56352141D02*
X25433750Y-56352141D01*
X25433750Y-56352141D02*
X25433750Y-55352141D01*
X25433750Y-43352141D02*
X25433750Y-42352141D01*
%TO.C,MX8*%
X69596250Y-86514641D02*
X68596250Y-86514641D01*
X69596250Y-85514641D02*
X69596250Y-86514641D01*
X68596250Y-72514641D02*
X69596250Y-72514641D01*
X55596250Y-72514641D02*
X56596250Y-72514641D01*
X55596250Y-86514641D02*
X55596250Y-85514641D01*
X69596250Y-72514641D02*
X69596250Y-73514641D01*
X56596250Y-86514641D02*
X55596250Y-86514641D01*
X55596250Y-73514641D02*
X55596250Y-72514641D01*
%TO.C,MX22*%
X107396250Y-131758391D02*
X106396250Y-131758391D01*
X120396250Y-130758391D02*
X120396250Y-131758391D01*
X106396250Y-131758391D02*
X106396250Y-130758391D01*
X120396250Y-117758391D02*
X120396250Y-118758391D01*
X120396250Y-131758391D02*
X119396250Y-131758391D01*
X119396250Y-117758391D02*
X120396250Y-117758391D01*
X106396250Y-118758391D02*
X106396250Y-117758391D01*
X106396250Y-117758391D02*
X107396250Y-117758391D01*
%TO.C,MX16*%
X85758750Y-88595891D02*
X85758750Y-87595891D01*
X99758750Y-87595891D02*
X99758750Y-88595891D01*
X85758750Y-87595891D02*
X86758750Y-87595891D01*
X99758750Y-101595891D02*
X98758750Y-101595891D01*
X99758750Y-100595891D02*
X99758750Y-101595891D01*
X86758750Y-101595891D02*
X85758750Y-101595891D01*
X98758750Y-87595891D02*
X99758750Y-87595891D01*
X85758750Y-101595891D02*
X85758750Y-100595891D01*
%TO.C,MX13*%
X85758750Y-42352141D02*
X86758750Y-42352141D01*
X99758750Y-42352141D02*
X99758750Y-43352141D01*
X99758750Y-55352141D02*
X99758750Y-56352141D01*
X85758750Y-56352141D02*
X85758750Y-55352141D01*
X86758750Y-56352141D02*
X85758750Y-56352141D01*
X85758750Y-43352141D02*
X85758750Y-42352141D01*
X99758750Y-56352141D02*
X98758750Y-56352141D01*
X98758750Y-42352141D02*
X99758750Y-42352141D01*
%TO.C,MX21*%
X120396250Y-115677141D02*
X120396250Y-116677141D01*
X107396250Y-116677141D02*
X106396250Y-116677141D01*
X119396250Y-102677141D02*
X120396250Y-102677141D01*
X120396250Y-116677141D02*
X119396250Y-116677141D01*
X106396250Y-116677141D02*
X106396250Y-115677141D01*
X106396250Y-103677141D02*
X106396250Y-102677141D01*
X106396250Y-102677141D02*
X107396250Y-102677141D01*
X120396250Y-102677141D02*
X120396250Y-103677141D01*
%TO.C,MX17*%
X100840000Y-56352141D02*
X100840000Y-55352141D01*
X100840000Y-42352141D02*
X101840000Y-42352141D01*
X114840000Y-42352141D02*
X114840000Y-43352141D01*
X113840000Y-42352141D02*
X114840000Y-42352141D01*
X101840000Y-56352141D02*
X100840000Y-56352141D01*
X114840000Y-56352141D02*
X113840000Y-56352141D01*
X114840000Y-55352141D02*
X114840000Y-56352141D01*
X100840000Y-43352141D02*
X100840000Y-42352141D01*
%TO.C,MX6*%
X68596250Y-42352141D02*
X69596250Y-42352141D01*
X69596250Y-42352141D02*
X69596250Y-43352141D01*
X56596250Y-56352141D02*
X55596250Y-56352141D01*
X55596250Y-43352141D02*
X55596250Y-42352141D01*
X55596250Y-56352141D02*
X55596250Y-55352141D01*
X69596250Y-55352141D02*
X69596250Y-56352141D01*
X69596250Y-56352141D02*
X68596250Y-56352141D01*
X55596250Y-42352141D02*
X56596250Y-42352141D01*
%TO.C,MX4*%
X40515000Y-71433391D02*
X40515000Y-70433391D01*
X41515000Y-71433391D02*
X40515000Y-71433391D01*
X53515000Y-57433391D02*
X54515000Y-57433391D01*
X54515000Y-57433391D02*
X54515000Y-58433391D01*
X40515000Y-58433391D02*
X40515000Y-57433391D01*
X40515000Y-57433391D02*
X41515000Y-57433391D01*
X54515000Y-71433391D02*
X53515000Y-71433391D01*
X54515000Y-70433391D02*
X54515000Y-71433391D01*
%TO.C,MX2*%
X26433750Y-86514641D02*
X25433750Y-86514641D01*
X25433750Y-86514641D02*
X25433750Y-85514641D01*
X25433750Y-73514641D02*
X25433750Y-72514641D01*
X38433750Y-72514641D02*
X39433750Y-72514641D01*
X25433750Y-72514641D02*
X26433750Y-72514641D01*
X39433750Y-86514641D02*
X38433750Y-86514641D01*
X39433750Y-85514641D02*
X39433750Y-86514641D01*
X39433750Y-72514641D02*
X39433750Y-73514641D01*
%TO.C,MX9*%
X84677500Y-56352141D02*
X83677500Y-56352141D01*
X70677500Y-42352141D02*
X71677500Y-42352141D01*
X71677500Y-56352141D02*
X70677500Y-56352141D01*
X70677500Y-56352141D02*
X70677500Y-55352141D01*
X70677500Y-43352141D02*
X70677500Y-42352141D01*
X84677500Y-55352141D02*
X84677500Y-56352141D01*
X83677500Y-42352141D02*
X84677500Y-42352141D01*
X84677500Y-42352141D02*
X84677500Y-43352141D01*
%TO.C,MX5*%
X40515000Y-73514641D02*
X40515000Y-72514641D01*
X41515000Y-86514641D02*
X40515000Y-86514641D01*
X53515000Y-72514641D02*
X54515000Y-72514641D01*
X54515000Y-86514641D02*
X53515000Y-86514641D01*
X40515000Y-72514641D02*
X41515000Y-72514641D01*
X54515000Y-85514641D02*
X54515000Y-86514641D01*
X54515000Y-72514641D02*
X54515000Y-73514641D01*
X40515000Y-86514641D02*
X40515000Y-85514641D01*
%TO.C,MX1*%
X25433750Y-71433391D02*
X25433750Y-70433391D01*
X26433750Y-71433391D02*
X25433750Y-71433391D01*
X39433750Y-57433391D02*
X39433750Y-58433391D01*
X25433750Y-57433391D02*
X26433750Y-57433391D01*
X25433750Y-58433391D02*
X25433750Y-57433391D01*
X39433750Y-70433391D02*
X39433750Y-71433391D01*
X38433750Y-57433391D02*
X39433750Y-57433391D01*
X39433750Y-71433391D02*
X38433750Y-71433391D01*
%TO.C,D22*%
X148271250Y-130504141D02*
X148271250Y-128980141D01*
X152970250Y-128980141D02*
X152970250Y-130504141D01*
X153097250Y-130504141D02*
X153097250Y-128980141D01*
X148271250Y-128980141D02*
X153351250Y-128980141D01*
X152589250Y-128980141D02*
X152589250Y-130504141D01*
X153351250Y-128980141D02*
X153351250Y-130504141D01*
X152716250Y-128980141D02*
X152716250Y-130504141D01*
X148271250Y-128980141D02*
X148779250Y-128980141D01*
X152843250Y-130504141D02*
X152843250Y-128980141D01*
X153224250Y-128980141D02*
X153224250Y-130504141D01*
X153351250Y-130504141D02*
X148271250Y-130504141D01*
%TO.C,D4*%
X52163250Y-34206141D02*
X50639250Y-34206141D01*
X52163250Y-34460141D02*
X50639250Y-34460141D01*
X50639250Y-34587141D02*
X52163250Y-34587141D01*
X50639250Y-34079141D02*
X52163250Y-34079141D01*
X50639250Y-33952141D02*
X52163250Y-33952141D01*
X50639250Y-34714141D02*
X52163250Y-34714141D01*
X50639250Y-39032141D02*
X50639250Y-38524141D01*
X52163250Y-39032141D02*
X50639250Y-39032141D01*
X52163250Y-33952141D02*
X52163250Y-39032141D01*
X50639250Y-34333141D02*
X52163250Y-34333141D01*
X50639250Y-39032141D02*
X50639250Y-33952141D01*
%TO.C,D17*%
X103249250Y-29093141D02*
X104773250Y-29093141D01*
X103249250Y-28712141D02*
X104773250Y-28712141D01*
X104773250Y-33792141D02*
X103249250Y-33792141D01*
X104773250Y-29220141D02*
X103249250Y-29220141D01*
X104773250Y-28966141D02*
X103249250Y-28966141D01*
X104773250Y-28712141D02*
X104773250Y-33792141D01*
X103249250Y-29474141D02*
X104773250Y-29474141D01*
X103249250Y-28839141D02*
X104773250Y-28839141D01*
X103249250Y-29347141D02*
X104773250Y-29347141D01*
X103249250Y-33792141D02*
X103249250Y-33284141D01*
X103249250Y-33792141D02*
X103249250Y-28712141D01*
%TO.C,D19*%
X123114250Y-73360141D02*
X123114250Y-74884141D01*
X122606250Y-73360141D02*
X122606250Y-74884141D01*
X122479250Y-73360141D02*
X122479250Y-74884141D01*
X123241250Y-73360141D02*
X123241250Y-74884141D01*
X122987250Y-74884141D02*
X122987250Y-73360141D01*
X122733250Y-74884141D02*
X122733250Y-73360141D01*
X118161250Y-73360141D02*
X118669250Y-73360141D01*
X122860250Y-73360141D02*
X122860250Y-74884141D01*
X123241250Y-74884141D02*
X118161250Y-74884141D01*
X118161250Y-74884141D02*
X118161250Y-73360141D01*
X118161250Y-73360141D02*
X123241250Y-73360141D01*
%TO.C,D15*%
X125381250Y-75850141D02*
X125381250Y-77374141D01*
X120301250Y-75850141D02*
X120809250Y-75850141D01*
X124619250Y-75850141D02*
X124619250Y-77374141D01*
X125000250Y-75850141D02*
X125000250Y-77374141D01*
X125127250Y-77374141D02*
X125127250Y-75850141D01*
X125381250Y-77374141D02*
X120301250Y-77374141D01*
X120301250Y-75850141D02*
X125381250Y-75850141D01*
X124873250Y-77374141D02*
X124873250Y-75850141D01*
X124746250Y-75850141D02*
X124746250Y-77374141D01*
X125254250Y-75850141D02*
X125254250Y-77374141D01*
X120301250Y-77374141D02*
X120301250Y-75850141D01*
%TO.C,D3*%
X44133250Y-28712141D02*
X44133250Y-33792141D01*
X42609250Y-33792141D02*
X42609250Y-33284141D01*
X44133250Y-33792141D02*
X42609250Y-33792141D01*
X44133250Y-28966141D02*
X42609250Y-28966141D01*
X42609250Y-29093141D02*
X44133250Y-29093141D01*
X44133250Y-29220141D02*
X42609250Y-29220141D01*
X42609250Y-28839141D02*
X44133250Y-28839141D01*
X42609250Y-29347141D02*
X44133250Y-29347141D01*
X42609250Y-33792141D02*
X42609250Y-28712141D01*
X42609250Y-29474141D02*
X44133250Y-29474141D01*
X42609250Y-28712141D02*
X44133250Y-28712141D01*
%TO.C,D10*%
X80959250Y-34714141D02*
X82483250Y-34714141D01*
X82483250Y-39032141D02*
X80959250Y-39032141D01*
X82483250Y-34206141D02*
X80959250Y-34206141D01*
X80959250Y-34079141D02*
X82483250Y-34079141D01*
X80959250Y-39032141D02*
X80959250Y-33952141D01*
X80959250Y-33952141D02*
X82483250Y-33952141D01*
X82483250Y-33952141D02*
X82483250Y-39032141D01*
X82483250Y-34460141D02*
X80959250Y-34460141D01*
X80959250Y-34333141D02*
X82483250Y-34333141D01*
X80959250Y-39032141D02*
X80959250Y-38524141D01*
X80959250Y-34587141D02*
X82483250Y-34587141D01*
%TO.C,D16*%
X153264250Y-94100141D02*
X153264250Y-95624141D01*
X152883250Y-95624141D02*
X152883250Y-94100141D01*
X153010250Y-94100141D02*
X153010250Y-95624141D01*
X152756250Y-94100141D02*
X152756250Y-95624141D01*
X152629250Y-94100141D02*
X152629250Y-95624141D01*
X153137250Y-95624141D02*
X153137250Y-94100141D01*
X148311250Y-95624141D02*
X148311250Y-94100141D01*
X153391250Y-95624141D02*
X148311250Y-95624141D01*
X148311250Y-94100141D02*
X148819250Y-94100141D01*
X153391250Y-94100141D02*
X153391250Y-95624141D01*
X148311250Y-94100141D02*
X153391250Y-94100141D01*
%TO.C,D21*%
X152950250Y-115030141D02*
X152950250Y-116554141D01*
X148251250Y-115030141D02*
X148759250Y-115030141D01*
X152823250Y-116554141D02*
X152823250Y-115030141D01*
X153331250Y-116554141D02*
X148251250Y-116554141D01*
X153077250Y-116554141D02*
X153077250Y-115030141D01*
X153204250Y-115030141D02*
X153204250Y-116554141D01*
X152696250Y-115030141D02*
X152696250Y-116554141D01*
X148251250Y-115030141D02*
X153331250Y-115030141D01*
X148251250Y-116554141D02*
X148251250Y-115030141D01*
X152569250Y-115030141D02*
X152569250Y-116554141D01*
X153331250Y-115030141D02*
X153331250Y-116554141D01*
%TO.C,REF\u002A\u002A*%
G36*
X158710218Y-50113833D02*
G01*
X158695327Y-50203600D01*
X158664685Y-50274186D01*
X158618024Y-50326093D01*
X158555074Y-50359827D01*
X158534735Y-50365788D01*
X158462112Y-50374112D01*
X158385428Y-50367087D01*
X158316163Y-50345406D01*
X158291762Y-50333100D01*
X158256775Y-50312020D01*
X158235572Y-50294675D01*
X158232442Y-50290712D01*
X158226585Y-50276218D01*
X158235024Y-50260462D01*
X158260721Y-50236601D01*
X158273122Y-50226213D01*
X158297552Y-50207204D01*
X158310361Y-50199434D01*
X158314030Y-50200235D01*
X158335061Y-50208886D01*
X158366460Y-50224072D01*
X158376697Y-50229067D01*
X158437090Y-50247616D01*
X158489557Y-50242835D01*
X158535565Y-50214641D01*
X158540919Y-50209432D01*
X158566513Y-50176800D01*
X158581137Y-50145483D01*
X158589236Y-50110904D01*
X158209282Y-50110904D01*
X158209352Y-50044889D01*
X158209392Y-50038323D01*
X158214522Y-49985359D01*
X158347599Y-49985359D01*
X158349170Y-49996344D01*
X158357238Y-50003914D01*
X158376467Y-50008116D01*
X158411519Y-50009924D01*
X158467054Y-50010310D01*
X158497929Y-50009909D01*
X158543502Y-50007570D01*
X158574848Y-50003606D01*
X158586510Y-49998554D01*
X158576564Y-49956968D01*
X158547447Y-49918154D01*
X158505452Y-49891227D01*
X158456940Y-49881913D01*
X158421223Y-49892413D01*
X158385520Y-49918081D01*
X158358379Y-49951522D01*
X158347599Y-49985359D01*
X158214522Y-49985359D01*
X158217258Y-49957106D01*
X158240155Y-49891036D01*
X158280107Y-49834081D01*
X158304479Y-49809989D01*
X158354815Y-49777738D01*
X158414919Y-49762111D01*
X158490838Y-49761012D01*
X158527510Y-49765320D01*
X158595203Y-49787690D01*
X158647030Y-49828404D01*
X158683445Y-49888090D01*
X158704901Y-49967377D01*
X158707079Y-49998554D01*
X158711853Y-50066894D01*
X158710218Y-50113833D01*
G37*
D11*
X158710218Y-50113833D02*
X158695327Y-50203600D01*
X158664685Y-50274186D01*
X158618024Y-50326093D01*
X158555074Y-50359827D01*
X158534735Y-50365788D01*
X158462112Y-50374112D01*
X158385428Y-50367087D01*
X158316163Y-50345406D01*
X158291762Y-50333100D01*
X158256775Y-50312020D01*
X158235572Y-50294675D01*
X158232442Y-50290712D01*
X158226585Y-50276218D01*
X158235024Y-50260462D01*
X158260721Y-50236601D01*
X158273122Y-50226213D01*
X158297552Y-50207204D01*
X158310361Y-50199434D01*
X158314030Y-50200235D01*
X158335061Y-50208886D01*
X158366460Y-50224072D01*
X158376697Y-50229067D01*
X158437090Y-50247616D01*
X158489557Y-50242835D01*
X158535565Y-50214641D01*
X158540919Y-50209432D01*
X158566513Y-50176800D01*
X158581137Y-50145483D01*
X158589236Y-50110904D01*
X158209282Y-50110904D01*
X158209352Y-50044889D01*
X158209392Y-50038323D01*
X158214522Y-49985359D01*
X158347599Y-49985359D01*
X158349170Y-49996344D01*
X158357238Y-50003914D01*
X158376467Y-50008116D01*
X158411519Y-50009924D01*
X158467054Y-50010310D01*
X158497929Y-50009909D01*
X158543502Y-50007570D01*
X158574848Y-50003606D01*
X158586510Y-49998554D01*
X158576564Y-49956968D01*
X158547447Y-49918154D01*
X158505452Y-49891227D01*
X158456940Y-49881913D01*
X158421223Y-49892413D01*
X158385520Y-49918081D01*
X158358379Y-49951522D01*
X158347599Y-49985359D01*
X158214522Y-49985359D01*
X158217258Y-49957106D01*
X158240155Y-49891036D01*
X158280107Y-49834081D01*
X158304479Y-49809989D01*
X158354815Y-49777738D01*
X158414919Y-49762111D01*
X158490838Y-49761012D01*
X158527510Y-49765320D01*
X158595203Y-49787690D01*
X158647030Y-49828404D01*
X158683445Y-49888090D01*
X158704901Y-49967377D01*
X158707079Y-49998554D01*
X158711853Y-50066894D01*
X158710218Y-50113833D01*
G36*
X162158921Y-49130077D02*
G01*
X162157822Y-49168512D01*
X162145426Y-49252508D01*
X162118108Y-49318736D01*
X162074441Y-49369925D01*
X162012995Y-49408804D01*
X161953388Y-49426953D01*
X161878610Y-49430425D01*
X161803164Y-49417071D01*
X161735866Y-49387566D01*
X161710928Y-49371153D01*
X161683451Y-49350114D01*
X161670914Y-49336270D01*
X161671624Y-49330558D01*
X161685658Y-49311096D01*
X161712033Y-49287517D01*
X161757740Y-49252654D01*
X161811299Y-49279403D01*
X161825782Y-49286023D01*
X161868416Y-49300414D01*
X161904149Y-49306151D01*
X161930498Y-49301423D01*
X161971847Y-49278655D01*
X162006604Y-49243311D01*
X162026483Y-49202414D01*
X162034583Y-49167834D01*
X161654629Y-49167834D01*
X161654699Y-49101820D01*
X161655274Y-49080898D01*
X161659472Y-49036003D01*
X161792945Y-49036003D01*
X161793190Y-49038575D01*
X161800104Y-49046584D01*
X161819641Y-49051505D01*
X161855967Y-49053984D01*
X161913248Y-49054666D01*
X161932075Y-49054658D01*
X161980970Y-49054206D01*
X162010363Y-49052254D01*
X162024615Y-49047699D01*
X162028082Y-49039440D01*
X162025125Y-49026374D01*
X162024673Y-49024893D01*
X161999199Y-48979426D01*
X161959039Y-48948122D01*
X161911151Y-48936468D01*
X161893449Y-48937400D01*
X161860594Y-48948549D01*
X161829075Y-48976904D01*
X161820585Y-48986930D01*
X161800836Y-49015564D01*
X161792945Y-49036003D01*
X161659472Y-49036003D01*
X161660012Y-49030232D01*
X161667959Y-48988307D01*
X161676668Y-48964837D01*
X161707290Y-48913787D01*
X161748299Y-48867424D01*
X161791668Y-48835655D01*
X161804199Y-48829755D01*
X161877161Y-48810187D01*
X161951668Y-48812250D01*
X162021717Y-48835072D01*
X162081307Y-48877780D01*
X162113538Y-48917166D01*
X162139892Y-48972651D01*
X162153982Y-49039440D01*
X162154522Y-49042002D01*
X162158921Y-49130077D01*
G37*
X162158921Y-49130077D02*
X162157822Y-49168512D01*
X162145426Y-49252508D01*
X162118108Y-49318736D01*
X162074441Y-49369925D01*
X162012995Y-49408804D01*
X161953388Y-49426953D01*
X161878610Y-49430425D01*
X161803164Y-49417071D01*
X161735866Y-49387566D01*
X161710928Y-49371153D01*
X161683451Y-49350114D01*
X161670914Y-49336270D01*
X161671624Y-49330558D01*
X161685658Y-49311096D01*
X161712033Y-49287517D01*
X161757740Y-49252654D01*
X161811299Y-49279403D01*
X161825782Y-49286023D01*
X161868416Y-49300414D01*
X161904149Y-49306151D01*
X161930498Y-49301423D01*
X161971847Y-49278655D01*
X162006604Y-49243311D01*
X162026483Y-49202414D01*
X162034583Y-49167834D01*
X161654629Y-49167834D01*
X161654699Y-49101820D01*
X161655274Y-49080898D01*
X161659472Y-49036003D01*
X161792945Y-49036003D01*
X161793190Y-49038575D01*
X161800104Y-49046584D01*
X161819641Y-49051505D01*
X161855967Y-49053984D01*
X161913248Y-49054666D01*
X161932075Y-49054658D01*
X161980970Y-49054206D01*
X162010363Y-49052254D01*
X162024615Y-49047699D01*
X162028082Y-49039440D01*
X162025125Y-49026374D01*
X162024673Y-49024893D01*
X161999199Y-48979426D01*
X161959039Y-48948122D01*
X161911151Y-48936468D01*
X161893449Y-48937400D01*
X161860594Y-48948549D01*
X161829075Y-48976904D01*
X161820585Y-48986930D01*
X161800836Y-49015564D01*
X161792945Y-49036003D01*
X161659472Y-49036003D01*
X161660012Y-49030232D01*
X161667959Y-48988307D01*
X161676668Y-48964837D01*
X161707290Y-48913787D01*
X161748299Y-48867424D01*
X161791668Y-48835655D01*
X161804199Y-48829755D01*
X161877161Y-48810187D01*
X161951668Y-48812250D01*
X162021717Y-48835072D01*
X162081307Y-48877780D01*
X162113538Y-48917166D01*
X162139892Y-48972651D01*
X162153982Y-49039440D01*
X162154522Y-49042002D01*
X162158921Y-49130077D01*
G36*
X160811889Y-44647159D02*
G01*
X160868737Y-44948711D01*
X161078501Y-45035182D01*
X161288264Y-45121653D01*
X161539910Y-44950536D01*
X161589716Y-44916802D01*
X161655744Y-44872522D01*
X161712910Y-44834702D01*
X161758244Y-44805283D01*
X161788780Y-44786208D01*
X161801546Y-44779419D01*
X161809387Y-44784247D01*
X161832825Y-44804480D01*
X161868294Y-44837684D01*
X161912789Y-44880811D01*
X161963305Y-44930811D01*
X162016836Y-44984636D01*
X162070377Y-45039236D01*
X162120923Y-45091564D01*
X162165468Y-45138569D01*
X162201007Y-45177204D01*
X162224534Y-45204419D01*
X162233044Y-45217165D01*
X162231065Y-45222641D01*
X162217357Y-45247068D01*
X162192325Y-45287270D01*
X162157999Y-45340093D01*
X162116407Y-45402388D01*
X162069579Y-45471003D01*
X162043880Y-45508424D01*
X161999673Y-45573573D01*
X161961772Y-45630430D01*
X161932198Y-45675911D01*
X161912972Y-45706934D01*
X161906114Y-45720415D01*
X161906226Y-45721162D01*
X161912276Y-45738251D01*
X161926154Y-45773147D01*
X161945927Y-45821292D01*
X161969660Y-45878127D01*
X161995418Y-45939094D01*
X162021266Y-45999633D01*
X162045271Y-46055188D01*
X162065498Y-46101198D01*
X162080011Y-46133106D01*
X162086877Y-46146353D01*
X162090939Y-46147528D01*
X162115621Y-46152828D01*
X162159611Y-46161608D01*
X162219387Y-46173181D01*
X162291429Y-46186862D01*
X162372216Y-46201964D01*
X162414794Y-46209971D01*
X162492945Y-46225248D01*
X162561275Y-46239356D01*
X162616051Y-46251486D01*
X162653537Y-46260827D01*
X162670000Y-46266568D01*
X162672957Y-46272260D01*
X162677862Y-46300071D01*
X162681716Y-46346391D01*
X162684521Y-46406861D01*
X162686281Y-46477124D01*
X162686999Y-46552821D01*
X162686677Y-46629594D01*
X162685319Y-46703085D01*
X162682928Y-46768935D01*
X162679506Y-46822786D01*
X162675056Y-46860279D01*
X162669582Y-46877057D01*
X162666260Y-46878950D01*
X162641487Y-46887067D01*
X162598511Y-46897807D01*
X162542302Y-46909994D01*
X162477825Y-46922451D01*
X162456070Y-46926418D01*
X162355593Y-46944870D01*
X162276626Y-46959700D01*
X162216434Y-46971521D01*
X162172278Y-46980950D01*
X162141420Y-46988601D01*
X162121125Y-46995089D01*
X162108654Y-47001029D01*
X162101271Y-47007035D01*
X162100413Y-47008043D01*
X162088338Y-47029060D01*
X162070471Y-47067517D01*
X162048542Y-47118902D01*
X162024284Y-47178704D01*
X161999427Y-47242411D01*
X161975705Y-47305512D01*
X161954847Y-47363496D01*
X161938587Y-47411850D01*
X161928656Y-47446063D01*
X161926785Y-47461624D01*
X161928036Y-47463643D01*
X161940986Y-47483169D01*
X161965340Y-47519183D01*
X161998840Y-47568369D01*
X162039227Y-47627408D01*
X162084245Y-47692983D01*
X162096600Y-47711025D01*
X162140045Y-47775740D01*
X162177591Y-47833617D01*
X162207094Y-47881223D01*
X162226414Y-47915126D01*
X162233405Y-47931893D01*
X162231898Y-47936302D01*
X162216195Y-47958023D01*
X162185214Y-47993495D01*
X162141173Y-48040329D01*
X162086290Y-48096137D01*
X162022786Y-48158533D01*
X161986488Y-48193458D01*
X161929095Y-48247852D01*
X161878861Y-48294443D01*
X161838484Y-48330777D01*
X161810661Y-48354402D01*
X161798090Y-48362865D01*
X161789452Y-48359728D01*
X161762860Y-48344888D01*
X161724241Y-48320618D01*
X161678634Y-48289993D01*
X161646207Y-48267644D01*
X161581470Y-48223263D01*
X161512386Y-48176128D01*
X161449287Y-48133296D01*
X161325678Y-48049688D01*
X161221917Y-48105791D01*
X161197484Y-48118740D01*
X161153052Y-48140890D01*
X161118691Y-48156182D01*
X161100328Y-48161884D01*
X161094318Y-48154562D01*
X161079395Y-48126682D01*
X161057352Y-48080716D01*
X161029417Y-48019582D01*
X160996817Y-47946196D01*
X160960776Y-47863476D01*
X160922523Y-47774338D01*
X160883283Y-47681700D01*
X160844283Y-47588478D01*
X160806749Y-47497591D01*
X160771909Y-47411955D01*
X160740988Y-47334486D01*
X160715214Y-47268103D01*
X160695811Y-47215723D01*
X160684008Y-47180262D01*
X160681031Y-47164637D01*
X160681232Y-47164180D01*
X160695101Y-47149736D01*
X160724111Y-47127115D01*
X160762272Y-47101005D01*
X160774317Y-47093033D01*
X160865969Y-47017397D01*
X160941823Y-46927310D01*
X161000081Y-46826522D01*
X161038948Y-46718781D01*
X161056628Y-46607838D01*
X161051326Y-46497444D01*
X161029847Y-46399256D01*
X160991282Y-46300107D01*
X160935062Y-46211653D01*
X160857910Y-46127628D01*
X160827595Y-46100786D01*
X160729594Y-46034651D01*
X160623727Y-45990111D01*
X160513061Y-45966766D01*
X160400664Y-45964219D01*
X160289605Y-45982070D01*
X160182951Y-46019921D01*
X160083770Y-46077373D01*
X159995131Y-46154028D01*
X159920100Y-46249486D01*
X159905675Y-46273126D01*
X159856643Y-46381175D01*
X159830603Y-46493689D01*
X159826872Y-46607755D01*
X159844768Y-46720459D01*
X159883609Y-46828886D01*
X159942714Y-46930123D01*
X160021400Y-47021255D01*
X160118985Y-47099369D01*
X160122154Y-47101474D01*
X160159911Y-47128081D01*
X160188209Y-47150702D01*
X160201134Y-47164637D01*
X160199503Y-47175562D01*
X160189364Y-47207372D01*
X160171384Y-47256675D01*
X160146792Y-47320554D01*
X160116811Y-47396089D01*
X160082670Y-47480364D01*
X160045592Y-47570461D01*
X160006806Y-47663462D01*
X159967536Y-47756449D01*
X159929009Y-47846505D01*
X159892450Y-47930712D01*
X159859086Y-48006151D01*
X159830143Y-48069906D01*
X159806846Y-48119058D01*
X159790423Y-48150690D01*
X159782098Y-48161884D01*
X159775174Y-48160368D01*
X159747977Y-48149472D01*
X159707780Y-48130369D01*
X159660509Y-48105791D01*
X159556748Y-48049688D01*
X159433139Y-48133296D01*
X159396620Y-48158054D01*
X159328694Y-48204312D01*
X159260975Y-48250644D01*
X159203791Y-48289993D01*
X159172232Y-48311438D01*
X159131214Y-48338080D01*
X159100801Y-48356319D01*
X159085946Y-48363082D01*
X159079565Y-48360211D01*
X159056496Y-48342626D01*
X159020933Y-48311664D01*
X158975971Y-48270372D01*
X158924706Y-48221794D01*
X158870233Y-48168976D01*
X158815648Y-48114964D01*
X158764047Y-48062802D01*
X158718524Y-48015537D01*
X158682175Y-47976213D01*
X158658095Y-47947877D01*
X158649381Y-47933573D01*
X158649883Y-47930852D01*
X158660255Y-47908701D01*
X158682412Y-47870376D01*
X158714212Y-47819341D01*
X158753516Y-47759055D01*
X158798181Y-47692983D01*
X158810707Y-47674758D01*
X158854693Y-47610626D01*
X158893437Y-47553930D01*
X158924682Y-47507985D01*
X158946169Y-47476111D01*
X158955640Y-47461624D01*
X158955873Y-47461003D01*
X158953078Y-47443280D01*
X158942403Y-47407376D01*
X158925581Y-47357803D01*
X158904343Y-47299073D01*
X158880421Y-47235697D01*
X158855546Y-47172187D01*
X158831450Y-47113054D01*
X158809865Y-47062810D01*
X158792523Y-47025967D01*
X158781155Y-47007035D01*
X158780016Y-47005860D01*
X158771876Y-46999914D01*
X158758129Y-46993917D01*
X158736037Y-46987255D01*
X158702863Y-46979314D01*
X158655870Y-46969478D01*
X158592320Y-46957132D01*
X158509476Y-46941661D01*
X158404600Y-46922451D01*
X158382848Y-46918408D01*
X158320536Y-46905910D01*
X158268119Y-46894068D01*
X158230566Y-46884058D01*
X158212843Y-46877057D01*
X158209878Y-46871216D01*
X158204935Y-46843157D01*
X158201018Y-46796641D01*
X158198129Y-46736027D01*
X158196273Y-46665673D01*
X158195452Y-46589937D01*
X158195668Y-46513178D01*
X158196926Y-46439753D01*
X158199228Y-46374021D01*
X158202576Y-46320341D01*
X158206974Y-46283071D01*
X158212426Y-46266568D01*
X158217991Y-46264130D01*
X158245678Y-46256446D01*
X158292479Y-46245577D01*
X158354657Y-46232333D01*
X158428479Y-46217525D01*
X158510210Y-46201964D01*
X158554836Y-46193650D01*
X158631324Y-46179233D01*
X158697160Y-46166608D01*
X158748823Y-46156462D01*
X158782793Y-46149482D01*
X158795548Y-46146353D01*
X158796028Y-46145709D01*
X158804151Y-46129322D01*
X158819637Y-46094993D01*
X158840550Y-46047277D01*
X158864955Y-45990727D01*
X158890916Y-45929899D01*
X158916497Y-45869347D01*
X158939762Y-45813626D01*
X158958777Y-45767291D01*
X158971605Y-45734896D01*
X158976312Y-45720996D01*
X158974236Y-45716106D01*
X158960420Y-45692833D01*
X158935360Y-45653660D01*
X158901068Y-45601661D01*
X158859559Y-45539909D01*
X158812846Y-45471477D01*
X158787218Y-45434001D01*
X158742990Y-45368297D01*
X158705070Y-45310633D01*
X158675480Y-45264155D01*
X158656243Y-45232006D01*
X158649381Y-45217331D01*
X158654149Y-45209371D01*
X158674093Y-45185587D01*
X158706813Y-45149592D01*
X158749305Y-45104436D01*
X158798565Y-45053169D01*
X158851591Y-44998842D01*
X158905377Y-44944505D01*
X158956921Y-44893208D01*
X159003220Y-44848000D01*
X159041269Y-44811933D01*
X159068065Y-44788055D01*
X159080605Y-44779419D01*
X159087566Y-44782777D01*
X159113127Y-44798351D01*
X159154374Y-44824856D01*
X159208337Y-44860351D01*
X159272042Y-44902891D01*
X159342516Y-44950536D01*
X159594162Y-45121653D01*
X160013688Y-44948711D01*
X160070536Y-44647159D01*
X160127385Y-44345607D01*
X160755040Y-44345607D01*
X160811889Y-44647159D01*
G37*
X160811889Y-44647159D02*
X160868737Y-44948711D01*
X161078501Y-45035182D01*
X161288264Y-45121653D01*
X161539910Y-44950536D01*
X161589716Y-44916802D01*
X161655744Y-44872522D01*
X161712910Y-44834702D01*
X161758244Y-44805283D01*
X161788780Y-44786208D01*
X161801546Y-44779419D01*
X161809387Y-44784247D01*
X161832825Y-44804480D01*
X161868294Y-44837684D01*
X161912789Y-44880811D01*
X161963305Y-44930811D01*
X162016836Y-44984636D01*
X162070377Y-45039236D01*
X162120923Y-45091564D01*
X162165468Y-45138569D01*
X162201007Y-45177204D01*
X162224534Y-45204419D01*
X162233044Y-45217165D01*
X162231065Y-45222641D01*
X162217357Y-45247068D01*
X162192325Y-45287270D01*
X162157999Y-45340093D01*
X162116407Y-45402388D01*
X162069579Y-45471003D01*
X162043880Y-45508424D01*
X161999673Y-45573573D01*
X161961772Y-45630430D01*
X161932198Y-45675911D01*
X161912972Y-45706934D01*
X161906114Y-45720415D01*
X161906226Y-45721162D01*
X161912276Y-45738251D01*
X161926154Y-45773147D01*
X161945927Y-45821292D01*
X161969660Y-45878127D01*
X161995418Y-45939094D01*
X162021266Y-45999633D01*
X162045271Y-46055188D01*
X162065498Y-46101198D01*
X162080011Y-46133106D01*
X162086877Y-46146353D01*
X162090939Y-46147528D01*
X162115621Y-46152828D01*
X162159611Y-46161608D01*
X162219387Y-46173181D01*
X162291429Y-46186862D01*
X162372216Y-46201964D01*
X162414794Y-46209971D01*
X162492945Y-46225248D01*
X162561275Y-46239356D01*
X162616051Y-46251486D01*
X162653537Y-46260827D01*
X162670000Y-46266568D01*
X162672957Y-46272260D01*
X162677862Y-46300071D01*
X162681716Y-46346391D01*
X162684521Y-46406861D01*
X162686281Y-46477124D01*
X162686999Y-46552821D01*
X162686677Y-46629594D01*
X162685319Y-46703085D01*
X162682928Y-46768935D01*
X162679506Y-46822786D01*
X162675056Y-46860279D01*
X162669582Y-46877057D01*
X162666260Y-46878950D01*
X162641487Y-46887067D01*
X162598511Y-46897807D01*
X162542302Y-46909994D01*
X162477825Y-46922451D01*
X162456070Y-46926418D01*
X162355593Y-46944870D01*
X162276626Y-46959700D01*
X162216434Y-46971521D01*
X162172278Y-46980950D01*
X162141420Y-46988601D01*
X162121125Y-46995089D01*
X162108654Y-47001029D01*
X162101271Y-47007035D01*
X162100413Y-47008043D01*
X162088338Y-47029060D01*
X162070471Y-47067517D01*
X162048542Y-47118902D01*
X162024284Y-47178704D01*
X161999427Y-47242411D01*
X161975705Y-47305512D01*
X161954847Y-47363496D01*
X161938587Y-47411850D01*
X161928656Y-47446063D01*
X161926785Y-47461624D01*
X161928036Y-47463643D01*
X161940986Y-47483169D01*
X161965340Y-47519183D01*
X161998840Y-47568369D01*
X162039227Y-47627408D01*
X162084245Y-47692983D01*
X162096600Y-47711025D01*
X162140045Y-47775740D01*
X162177591Y-47833617D01*
X162207094Y-47881223D01*
X162226414Y-47915126D01*
X162233405Y-47931893D01*
X162231898Y-47936302D01*
X162216195Y-47958023D01*
X162185214Y-47993495D01*
X162141173Y-48040329D01*
X162086290Y-48096137D01*
X162022786Y-48158533D01*
X161986488Y-48193458D01*
X161929095Y-48247852D01*
X161878861Y-48294443D01*
X161838484Y-48330777D01*
X161810661Y-48354402D01*
X161798090Y-48362865D01*
X161789452Y-48359728D01*
X161762860Y-48344888D01*
X161724241Y-48320618D01*
X161678634Y-48289993D01*
X161646207Y-48267644D01*
X161581470Y-48223263D01*
X161512386Y-48176128D01*
X161449287Y-48133296D01*
X161325678Y-48049688D01*
X161221917Y-48105791D01*
X161197484Y-48118740D01*
X161153052Y-48140890D01*
X161118691Y-48156182D01*
X161100328Y-48161884D01*
X161094318Y-48154562D01*
X161079395Y-48126682D01*
X161057352Y-48080716D01*
X161029417Y-48019582D01*
X160996817Y-47946196D01*
X160960776Y-47863476D01*
X160922523Y-47774338D01*
X160883283Y-47681700D01*
X160844283Y-47588478D01*
X160806749Y-47497591D01*
X160771909Y-47411955D01*
X160740988Y-47334486D01*
X160715214Y-47268103D01*
X160695811Y-47215723D01*
X160684008Y-47180262D01*
X160681031Y-47164637D01*
X160681232Y-47164180D01*
X160695101Y-47149736D01*
X160724111Y-47127115D01*
X160762272Y-47101005D01*
X160774317Y-47093033D01*
X160865969Y-47017397D01*
X160941823Y-46927310D01*
X161000081Y-46826522D01*
X161038948Y-46718781D01*
X161056628Y-46607838D01*
X161051326Y-46497444D01*
X161029847Y-46399256D01*
X160991282Y-46300107D01*
X160935062Y-46211653D01*
X160857910Y-46127628D01*
X160827595Y-46100786D01*
X160729594Y-46034651D01*
X160623727Y-45990111D01*
X160513061Y-45966766D01*
X160400664Y-45964219D01*
X160289605Y-45982070D01*
X160182951Y-46019921D01*
X160083770Y-46077373D01*
X159995131Y-46154028D01*
X159920100Y-46249486D01*
X159905675Y-46273126D01*
X159856643Y-46381175D01*
X159830603Y-46493689D01*
X159826872Y-46607755D01*
X159844768Y-46720459D01*
X159883609Y-46828886D01*
X159942714Y-46930123D01*
X160021400Y-47021255D01*
X160118985Y-47099369D01*
X160122154Y-47101474D01*
X160159911Y-47128081D01*
X160188209Y-47150702D01*
X160201134Y-47164637D01*
X160199503Y-47175562D01*
X160189364Y-47207372D01*
X160171384Y-47256675D01*
X160146792Y-47320554D01*
X160116811Y-47396089D01*
X160082670Y-47480364D01*
X160045592Y-47570461D01*
X160006806Y-47663462D01*
X159967536Y-47756449D01*
X159929009Y-47846505D01*
X159892450Y-47930712D01*
X159859086Y-48006151D01*
X159830143Y-48069906D01*
X159806846Y-48119058D01*
X159790423Y-48150690D01*
X159782098Y-48161884D01*
X159775174Y-48160368D01*
X159747977Y-48149472D01*
X159707780Y-48130369D01*
X159660509Y-48105791D01*
X159556748Y-48049688D01*
X159433139Y-48133296D01*
X159396620Y-48158054D01*
X159328694Y-48204312D01*
X159260975Y-48250644D01*
X159203791Y-48289993D01*
X159172232Y-48311438D01*
X159131214Y-48338080D01*
X159100801Y-48356319D01*
X159085946Y-48363082D01*
X159079565Y-48360211D01*
X159056496Y-48342626D01*
X159020933Y-48311664D01*
X158975971Y-48270372D01*
X158924706Y-48221794D01*
X158870233Y-48168976D01*
X158815648Y-48114964D01*
X158764047Y-48062802D01*
X158718524Y-48015537D01*
X158682175Y-47976213D01*
X158658095Y-47947877D01*
X158649381Y-47933573D01*
X158649883Y-47930852D01*
X158660255Y-47908701D01*
X158682412Y-47870376D01*
X158714212Y-47819341D01*
X158753516Y-47759055D01*
X158798181Y-47692983D01*
X158810707Y-47674758D01*
X158854693Y-47610626D01*
X158893437Y-47553930D01*
X158924682Y-47507985D01*
X158946169Y-47476111D01*
X158955640Y-47461624D01*
X158955873Y-47461003D01*
X158953078Y-47443280D01*
X158942403Y-47407376D01*
X158925581Y-47357803D01*
X158904343Y-47299073D01*
X158880421Y-47235697D01*
X158855546Y-47172187D01*
X158831450Y-47113054D01*
X158809865Y-47062810D01*
X158792523Y-47025967D01*
X158781155Y-47007035D01*
X158780016Y-47005860D01*
X158771876Y-46999914D01*
X158758129Y-46993917D01*
X158736037Y-46987255D01*
X158702863Y-46979314D01*
X158655870Y-46969478D01*
X158592320Y-46957132D01*
X158509476Y-46941661D01*
X158404600Y-46922451D01*
X158382848Y-46918408D01*
X158320536Y-46905910D01*
X158268119Y-46894068D01*
X158230566Y-46884058D01*
X158212843Y-46877057D01*
X158209878Y-46871216D01*
X158204935Y-46843157D01*
X158201018Y-46796641D01*
X158198129Y-46736027D01*
X158196273Y-46665673D01*
X158195452Y-46589937D01*
X158195668Y-46513178D01*
X158196926Y-46439753D01*
X158199228Y-46374021D01*
X158202576Y-46320341D01*
X158206974Y-46283071D01*
X158212426Y-46266568D01*
X158217991Y-46264130D01*
X158245678Y-46256446D01*
X158292479Y-46245577D01*
X158354657Y-46232333D01*
X158428479Y-46217525D01*
X158510210Y-46201964D01*
X158554836Y-46193650D01*
X158631324Y-46179233D01*
X158697160Y-46166608D01*
X158748823Y-46156462D01*
X158782793Y-46149482D01*
X158795548Y-46146353D01*
X158796028Y-46145709D01*
X158804151Y-46129322D01*
X158819637Y-46094993D01*
X158840550Y-46047277D01*
X158864955Y-45990727D01*
X158890916Y-45929899D01*
X158916497Y-45869347D01*
X158939762Y-45813626D01*
X158958777Y-45767291D01*
X158971605Y-45734896D01*
X158976312Y-45720996D01*
X158974236Y-45716106D01*
X158960420Y-45692833D01*
X158935360Y-45653660D01*
X158901068Y-45601661D01*
X158859559Y-45539909D01*
X158812846Y-45471477D01*
X158787218Y-45434001D01*
X158742990Y-45368297D01*
X158705070Y-45310633D01*
X158675480Y-45264155D01*
X158656243Y-45232006D01*
X158649381Y-45217331D01*
X158654149Y-45209371D01*
X158674093Y-45185587D01*
X158706813Y-45149592D01*
X158749305Y-45104436D01*
X158798565Y-45053169D01*
X158851591Y-44998842D01*
X158905377Y-44944505D01*
X158956921Y-44893208D01*
X159003220Y-44848000D01*
X159041269Y-44811933D01*
X159068065Y-44788055D01*
X159080605Y-44779419D01*
X159087566Y-44782777D01*
X159113127Y-44798351D01*
X159154374Y-44824856D01*
X159208337Y-44860351D01*
X159272042Y-44902891D01*
X159342516Y-44950536D01*
X159594162Y-45121653D01*
X160013688Y-44948711D01*
X160070536Y-44647159D01*
X160127385Y-44345607D01*
X160755040Y-44345607D01*
X160811889Y-44647159D01*
G36*
X159227797Y-49011483D02*
G01*
X159228857Y-49099535D01*
X159233009Y-49170651D01*
X159241421Y-49222340D01*
X159255257Y-49257501D01*
X159275682Y-49279030D01*
X159303864Y-49289823D01*
X159340965Y-49292777D01*
X159376390Y-49290141D01*
X159405000Y-49279820D01*
X159425796Y-49258913D01*
X159439942Y-49224522D01*
X159448603Y-49173751D01*
X159452945Y-49103704D01*
X159454133Y-49011483D01*
X159454133Y-48815755D01*
X159579876Y-48815755D01*
X159579876Y-49051719D01*
X159579660Y-49114702D01*
X159577984Y-49196148D01*
X159573777Y-49258262D01*
X159566021Y-49304599D01*
X159553696Y-49338714D01*
X159535785Y-49364163D01*
X159511267Y-49384503D01*
X159479123Y-49403288D01*
X159411625Y-49427069D01*
X159341181Y-49428621D01*
X159274764Y-49406721D01*
X159245786Y-49392524D01*
X159231409Y-49390402D01*
X159227797Y-49400434D01*
X159221799Y-49411697D01*
X159200330Y-49417630D01*
X159158638Y-49419320D01*
X159089480Y-49419320D01*
X159089480Y-48815755D01*
X159227797Y-48815755D01*
X159227797Y-49011483D01*
G37*
X159227797Y-49011483D02*
X159228857Y-49099535D01*
X159233009Y-49170651D01*
X159241421Y-49222340D01*
X159255257Y-49257501D01*
X159275682Y-49279030D01*
X159303864Y-49289823D01*
X159340965Y-49292777D01*
X159376390Y-49290141D01*
X159405000Y-49279820D01*
X159425796Y-49258913D01*
X159439942Y-49224522D01*
X159448603Y-49173751D01*
X159452945Y-49103704D01*
X159454133Y-49011483D01*
X159454133Y-48815755D01*
X159579876Y-48815755D01*
X159579876Y-49051719D01*
X159579660Y-49114702D01*
X159577984Y-49196148D01*
X159573777Y-49258262D01*
X159566021Y-49304599D01*
X159553696Y-49338714D01*
X159535785Y-49364163D01*
X159511267Y-49384503D01*
X159479123Y-49403288D01*
X159411625Y-49427069D01*
X159341181Y-49428621D01*
X159274764Y-49406721D01*
X159245786Y-49392524D01*
X159231409Y-49390402D01*
X159227797Y-49400434D01*
X159221799Y-49411697D01*
X159200330Y-49417630D01*
X159158638Y-49419320D01*
X159089480Y-49419320D01*
X159089480Y-48815755D01*
X159227797Y-48815755D01*
X159227797Y-49011483D01*
G36*
X161330105Y-48814565D02*
G01*
X161387426Y-48832575D01*
X161412699Y-48844815D01*
X161425410Y-48846079D01*
X161428292Y-48834939D01*
X161428295Y-48834602D01*
X161434506Y-48823228D01*
X161455928Y-48817397D01*
X161497450Y-48815755D01*
X161566609Y-48815755D01*
X161566609Y-49419320D01*
X161428292Y-49419320D01*
X161428292Y-49211273D01*
X161428197Y-49141020D01*
X161427551Y-49083311D01*
X161425820Y-49042928D01*
X161422474Y-49015756D01*
X161416981Y-48997681D01*
X161408810Y-48984588D01*
X161397428Y-48972362D01*
X161381924Y-48959358D01*
X161337343Y-48941886D01*
X161290547Y-48947014D01*
X161247680Y-48974648D01*
X161235427Y-48987509D01*
X161226632Y-49000525D01*
X161220733Y-49017847D01*
X161217151Y-49043642D01*
X161215309Y-49082080D01*
X161214628Y-49137330D01*
X161214530Y-49213559D01*
X161214530Y-49419320D01*
X161076213Y-49419320D01*
X161076489Y-49196126D01*
X161076508Y-49186185D01*
X161077707Y-49091247D01*
X161081391Y-49017499D01*
X161088506Y-48961355D01*
X161100000Y-48919228D01*
X161116818Y-48887532D01*
X161139909Y-48862682D01*
X161170217Y-48841091D01*
X161201512Y-48826143D01*
X161264537Y-48812562D01*
X161330105Y-48814565D01*
G37*
X161330105Y-48814565D02*
X161387426Y-48832575D01*
X161412699Y-48844815D01*
X161425410Y-48846079D01*
X161428292Y-48834939D01*
X161428295Y-48834602D01*
X161434506Y-48823228D01*
X161455928Y-48817397D01*
X161497450Y-48815755D01*
X161566609Y-48815755D01*
X161566609Y-49419320D01*
X161428292Y-49419320D01*
X161428292Y-49211273D01*
X161428197Y-49141020D01*
X161427551Y-49083311D01*
X161425820Y-49042928D01*
X161422474Y-49015756D01*
X161416981Y-48997681D01*
X161408810Y-48984588D01*
X161397428Y-48972362D01*
X161381924Y-48959358D01*
X161337343Y-48941886D01*
X161290547Y-48947014D01*
X161247680Y-48974648D01*
X161235427Y-48987509D01*
X161226632Y-49000525D01*
X161220733Y-49017847D01*
X161217151Y-49043642D01*
X161215309Y-49082080D01*
X161214628Y-49137330D01*
X161214530Y-49213559D01*
X161214530Y-49419320D01*
X161076213Y-49419320D01*
X161076489Y-49196126D01*
X161076508Y-49186185D01*
X161077707Y-49091247D01*
X161081391Y-49017499D01*
X161088506Y-48961355D01*
X161100000Y-48919228D01*
X161116818Y-48887532D01*
X161139909Y-48862682D01*
X161170217Y-48841091D01*
X161201512Y-48826143D01*
X161264537Y-48812562D01*
X161330105Y-48814565D01*
G36*
X161541460Y-50374963D02*
G01*
X161415718Y-50374963D01*
X161415718Y-50180881D01*
X161415578Y-50135735D01*
X161414149Y-50060964D01*
X161410529Y-50005608D01*
X161403934Y-49965843D01*
X161393579Y-49937841D01*
X161378678Y-49917776D01*
X161358446Y-49901822D01*
X161336359Y-49889933D01*
X161310205Y-49886562D01*
X161273008Y-49894058D01*
X161261055Y-49897179D01*
X161231218Y-49901876D01*
X161209883Y-49895146D01*
X161185155Y-49874318D01*
X161180463Y-49869788D01*
X161154520Y-49841767D01*
X161137791Y-49818984D01*
X161135496Y-49813496D01*
X161140043Y-49793229D01*
X161163102Y-49777025D01*
X161199495Y-49765654D01*
X161244044Y-49759881D01*
X161291572Y-49760475D01*
X161336900Y-49768204D01*
X161374851Y-49783835D01*
X161386881Y-49791134D01*
X161407132Y-49801817D01*
X161414629Y-49799371D01*
X161415718Y-49783788D01*
X161415973Y-49778194D01*
X161422039Y-49765801D01*
X161440856Y-49760161D01*
X161478589Y-49758824D01*
X161541460Y-49758824D01*
X161541460Y-50374963D01*
G37*
X161541460Y-50374963D02*
X161415718Y-50374963D01*
X161415718Y-50180881D01*
X161415578Y-50135735D01*
X161414149Y-50060964D01*
X161410529Y-50005608D01*
X161403934Y-49965843D01*
X161393579Y-49937841D01*
X161378678Y-49917776D01*
X161358446Y-49901822D01*
X161336359Y-49889933D01*
X161310205Y-49886562D01*
X161273008Y-49894058D01*
X161261055Y-49897179D01*
X161231218Y-49901876D01*
X161209883Y-49895146D01*
X161185155Y-49874318D01*
X161180463Y-49869788D01*
X161154520Y-49841767D01*
X161137791Y-49818984D01*
X161135496Y-49813496D01*
X161140043Y-49793229D01*
X161163102Y-49777025D01*
X161199495Y-49765654D01*
X161244044Y-49759881D01*
X161291572Y-49760475D01*
X161336900Y-49768204D01*
X161374851Y-49783835D01*
X161386881Y-49791134D01*
X161407132Y-49801817D01*
X161414629Y-49799371D01*
X161415718Y-49783788D01*
X161415973Y-49778194D01*
X161422039Y-49765801D01*
X161440856Y-49760161D01*
X161478589Y-49758824D01*
X161541460Y-49758824D01*
X161541460Y-50374963D01*
G36*
X160546374Y-48815348D02*
G01*
X160618995Y-48833549D01*
X160672046Y-48867285D01*
X160705829Y-48916783D01*
X160720647Y-48982267D01*
X160717647Y-49044961D01*
X160695993Y-49097840D01*
X160654467Y-49136937D01*
X160592236Y-49163014D01*
X160508469Y-49176836D01*
X160454040Y-49184081D01*
X160404360Y-49199756D01*
X160378711Y-49222455D01*
X160377162Y-49252139D01*
X160387484Y-49270648D01*
X160419451Y-49292584D01*
X160464895Y-49302959D01*
X160518149Y-49301540D01*
X160573548Y-49288093D01*
X160625428Y-49262384D01*
X160677153Y-49228154D01*
X160722648Y-49274190D01*
X160768143Y-49320225D01*
X160730421Y-49351017D01*
X160715753Y-49361715D01*
X160674483Y-49386021D01*
X160629827Y-49406966D01*
X160594484Y-49418986D01*
X160542734Y-49427693D01*
X160478935Y-49427808D01*
X160400700Y-49418222D01*
X160330222Y-49393924D01*
X160280336Y-49355329D01*
X160250923Y-49302339D01*
X160241865Y-49234859D01*
X160248421Y-49175495D01*
X160269470Y-49126893D01*
X160307364Y-49092087D01*
X160364504Y-49068939D01*
X160443285Y-49055311D01*
X160452334Y-49054324D01*
X160501385Y-49048033D01*
X160541175Y-49041450D01*
X160563812Y-49035849D01*
X160571366Y-49031338D01*
X160584137Y-49008082D01*
X160582063Y-48978312D01*
X160564995Y-48952468D01*
X160556033Y-48946832D01*
X160518688Y-48937801D01*
X160470450Y-48938408D01*
X160420150Y-48948019D01*
X160376615Y-48965999D01*
X160330872Y-48992988D01*
X160295390Y-48951525D01*
X160286780Y-48940991D01*
X160267383Y-48912773D01*
X160259397Y-48893649D01*
X160267783Y-48881922D01*
X160293726Y-48863617D01*
X160331188Y-48843918D01*
X160336466Y-48841511D01*
X160385866Y-48822623D01*
X160433483Y-48813593D01*
X160492572Y-48811780D01*
X160546374Y-48815348D01*
G37*
X160546374Y-48815348D02*
X160618995Y-48833549D01*
X160672046Y-48867285D01*
X160705829Y-48916783D01*
X160720647Y-48982267D01*
X160717647Y-49044961D01*
X160695993Y-49097840D01*
X160654467Y-49136937D01*
X160592236Y-49163014D01*
X160508469Y-49176836D01*
X160454040Y-49184081D01*
X160404360Y-49199756D01*
X160378711Y-49222455D01*
X160377162Y-49252139D01*
X160387484Y-49270648D01*
X160419451Y-49292584D01*
X160464895Y-49302959D01*
X160518149Y-49301540D01*
X160573548Y-49288093D01*
X160625428Y-49262384D01*
X160677153Y-49228154D01*
X160722648Y-49274190D01*
X160768143Y-49320225D01*
X160730421Y-49351017D01*
X160715753Y-49361715D01*
X160674483Y-49386021D01*
X160629827Y-49406966D01*
X160594484Y-49418986D01*
X160542734Y-49427693D01*
X160478935Y-49427808D01*
X160400700Y-49418222D01*
X160330222Y-49393924D01*
X160280336Y-49355329D01*
X160250923Y-49302339D01*
X160241865Y-49234859D01*
X160248421Y-49175495D01*
X160269470Y-49126893D01*
X160307364Y-49092087D01*
X160364504Y-49068939D01*
X160443285Y-49055311D01*
X160452334Y-49054324D01*
X160501385Y-49048033D01*
X160541175Y-49041450D01*
X160563812Y-49035849D01*
X160571366Y-49031338D01*
X160584137Y-49008082D01*
X160582063Y-48978312D01*
X160564995Y-48952468D01*
X160556033Y-48946832D01*
X160518688Y-48937801D01*
X160470450Y-48938408D01*
X160420150Y-48948019D01*
X160376615Y-48965999D01*
X160330872Y-48992988D01*
X160295390Y-48951525D01*
X160286780Y-48940991D01*
X160267383Y-48912773D01*
X160259397Y-48893649D01*
X160267783Y-48881922D01*
X160293726Y-48863617D01*
X160331188Y-48843918D01*
X160336466Y-48841511D01*
X160385866Y-48822623D01*
X160433483Y-48813593D01*
X160492572Y-48811780D01*
X160546374Y-48815348D01*
G36*
X158734628Y-48811086D02*
G01*
X158765454Y-48820709D01*
X158803416Y-48836704D01*
X158821796Y-48845300D01*
X158835061Y-48846854D01*
X158837995Y-48834939D01*
X158837998Y-48834602D01*
X158844209Y-48823228D01*
X158865631Y-48817397D01*
X158907153Y-48815755D01*
X158976312Y-48815755D01*
X158976312Y-49419320D01*
X158837995Y-49419320D01*
X158837995Y-49003168D01*
X158803610Y-48971302D01*
X158792868Y-48962245D01*
X158760870Y-48946771D01*
X158721465Y-48946151D01*
X158667812Y-48959805D01*
X158649725Y-48960670D01*
X158628508Y-48947424D01*
X158600268Y-48915941D01*
X158586569Y-48898526D01*
X158570368Y-48873938D01*
X158567871Y-48858286D01*
X158576942Y-48845082D01*
X158604789Y-48828386D01*
X158648040Y-48815171D01*
X158694964Y-48808619D01*
X158734628Y-48811086D01*
G37*
X158734628Y-48811086D02*
X158765454Y-48820709D01*
X158803416Y-48836704D01*
X158821796Y-48845300D01*
X158835061Y-48846854D01*
X158837995Y-48834939D01*
X158837998Y-48834602D01*
X158844209Y-48823228D01*
X158865631Y-48817397D01*
X158907153Y-48815755D01*
X158976312Y-48815755D01*
X158976312Y-49419320D01*
X158837995Y-49419320D01*
X158837995Y-49003168D01*
X158803610Y-48971302D01*
X158792868Y-48962245D01*
X158760870Y-48946771D01*
X158721465Y-48946151D01*
X158667812Y-48959805D01*
X158649725Y-48960670D01*
X158628508Y-48947424D01*
X158600268Y-48915941D01*
X158586569Y-48898526D01*
X158570368Y-48873938D01*
X158567871Y-48858286D01*
X158576942Y-48845082D01*
X158604789Y-48828386D01*
X158648040Y-48815171D01*
X158694964Y-48808619D01*
X158734628Y-48811086D01*
G36*
X160176849Y-49200706D02*
G01*
X160161344Y-49276679D01*
X160133610Y-49334652D01*
X160091398Y-49378441D01*
X160032460Y-49411863D01*
X160009576Y-49419817D01*
X159950312Y-49429742D01*
X159887947Y-49429472D01*
X159835323Y-49418571D01*
X159834289Y-49418175D01*
X159791881Y-49393228D01*
X159749037Y-49354609D01*
X159713486Y-49310447D01*
X159692959Y-49268868D01*
X159686874Y-49238475D01*
X159681664Y-49181570D01*
X159680791Y-49130846D01*
X159807476Y-49130846D01*
X159815049Y-49191686D01*
X159832841Y-49241679D01*
X159859796Y-49274345D01*
X159870013Y-49279953D01*
X159908973Y-49290148D01*
X159954036Y-49292245D01*
X159991948Y-49285161D01*
X160006744Y-49275002D01*
X160027514Y-49239475D01*
X160040583Y-49183873D01*
X160045124Y-49110907D01*
X160045051Y-49089903D01*
X160043474Y-49047344D01*
X160038228Y-49019580D01*
X160027223Y-48999066D01*
X160008368Y-48978253D01*
X159972489Y-48953028D01*
X159925780Y-48942714D01*
X159880651Y-48952537D01*
X159843180Y-48980946D01*
X159819443Y-49026394D01*
X159811175Y-49065638D01*
X159807476Y-49130846D01*
X159680791Y-49130846D01*
X159680549Y-49116762D01*
X159683344Y-49052257D01*
X159689866Y-48996262D01*
X159699932Y-48956983D01*
X159723377Y-48912513D01*
X159773137Y-48857833D01*
X159836738Y-48823196D01*
X159912290Y-48809486D01*
X159997899Y-48817589D01*
X160012144Y-48821040D01*
X160078482Y-48850805D01*
X160128471Y-48899671D01*
X160162112Y-48967642D01*
X160179406Y-49054721D01*
X160179910Y-49110907D01*
X160180357Y-49160912D01*
X160176849Y-49200706D01*
G37*
X160176849Y-49200706D02*
X160161344Y-49276679D01*
X160133610Y-49334652D01*
X160091398Y-49378441D01*
X160032460Y-49411863D01*
X160009576Y-49419817D01*
X159950312Y-49429742D01*
X159887947Y-49429472D01*
X159835323Y-49418571D01*
X159834289Y-49418175D01*
X159791881Y-49393228D01*
X159749037Y-49354609D01*
X159713486Y-49310447D01*
X159692959Y-49268868D01*
X159686874Y-49238475D01*
X159681664Y-49181570D01*
X159680791Y-49130846D01*
X159807476Y-49130846D01*
X159815049Y-49191686D01*
X159832841Y-49241679D01*
X159859796Y-49274345D01*
X159870013Y-49279953D01*
X159908973Y-49290148D01*
X159954036Y-49292245D01*
X159991948Y-49285161D01*
X160006744Y-49275002D01*
X160027514Y-49239475D01*
X160040583Y-49183873D01*
X160045124Y-49110907D01*
X160045051Y-49089903D01*
X160043474Y-49047344D01*
X160038228Y-49019580D01*
X160027223Y-48999066D01*
X160008368Y-48978253D01*
X159972489Y-48953028D01*
X159925780Y-48942714D01*
X159880651Y-48952537D01*
X159843180Y-48980946D01*
X159819443Y-49026394D01*
X159811175Y-49065638D01*
X159807476Y-49130846D01*
X159680791Y-49130846D01*
X159680549Y-49116762D01*
X159683344Y-49052257D01*
X159689866Y-48996262D01*
X159699932Y-48956983D01*
X159723377Y-48912513D01*
X159773137Y-48857833D01*
X159836738Y-48823196D01*
X159912290Y-48809486D01*
X159997899Y-48817589D01*
X160012144Y-48821040D01*
X160078482Y-48850805D01*
X160128471Y-48899671D01*
X160162112Y-48967642D01*
X160179406Y-49054721D01*
X160179910Y-49110907D01*
X160180357Y-49160912D01*
X160176849Y-49200706D01*
G36*
X161136667Y-50167712D02*
G01*
X161133462Y-50205159D01*
X161132913Y-50208591D01*
X161111338Y-50269976D01*
X161071938Y-50322018D01*
X161020252Y-50357276D01*
X160964748Y-50371870D01*
X160896477Y-50370738D01*
X160833673Y-50351170D01*
X160817315Y-50342912D01*
X160796279Y-50334064D01*
X160788274Y-50336817D01*
X160787005Y-50351170D01*
X160786422Y-50358327D01*
X160778894Y-50368913D01*
X160757988Y-50373786D01*
X160717846Y-50374963D01*
X160648688Y-50374963D01*
X160648688Y-50073071D01*
X160787005Y-50073071D01*
X160787996Y-50125371D01*
X160792019Y-50160191D01*
X160800608Y-50184046D01*
X160815297Y-50204036D01*
X160854084Y-50233759D01*
X160899474Y-50243723D01*
X160943489Y-50231401D01*
X160980560Y-50197029D01*
X160990359Y-50171876D01*
X160997597Y-50127335D01*
X161000779Y-50073296D01*
X160999777Y-50017869D01*
X160994461Y-49969163D01*
X160984704Y-49935289D01*
X160981587Y-49929734D01*
X160951538Y-49901815D01*
X160910815Y-49889447D01*
X160867079Y-49892324D01*
X160827991Y-49910141D01*
X160801210Y-49942593D01*
X160800103Y-49945322D01*
X160793463Y-49975775D01*
X160788778Y-50021280D01*
X160787005Y-50073071D01*
X160648688Y-50073071D01*
X160648688Y-49519914D01*
X160787005Y-49519914D01*
X160787005Y-49813019D01*
X160812624Y-49789834D01*
X160837292Y-49775423D01*
X160883980Y-49763377D01*
X160938556Y-49759495D01*
X160991854Y-49764261D01*
X161034707Y-49778155D01*
X161065378Y-49797920D01*
X161096971Y-49831590D01*
X161118233Y-49876871D01*
X161131014Y-49938122D01*
X161137164Y-50019704D01*
X161138068Y-50052681D01*
X161138133Y-50073296D01*
X161138261Y-50113954D01*
X161136667Y-50167712D01*
G37*
X161136667Y-50167712D02*
X161133462Y-50205159D01*
X161132913Y-50208591D01*
X161111338Y-50269976D01*
X161071938Y-50322018D01*
X161020252Y-50357276D01*
X160964748Y-50371870D01*
X160896477Y-50370738D01*
X160833673Y-50351170D01*
X160817315Y-50342912D01*
X160796279Y-50334064D01*
X160788274Y-50336817D01*
X160787005Y-50351170D01*
X160786422Y-50358327D01*
X160778894Y-50368913D01*
X160757988Y-50373786D01*
X160717846Y-50374963D01*
X160648688Y-50374963D01*
X160648688Y-50073071D01*
X160787005Y-50073071D01*
X160787996Y-50125371D01*
X160792019Y-50160191D01*
X160800608Y-50184046D01*
X160815297Y-50204036D01*
X160854084Y-50233759D01*
X160899474Y-50243723D01*
X160943489Y-50231401D01*
X160980560Y-50197029D01*
X160990359Y-50171876D01*
X160997597Y-50127335D01*
X161000779Y-50073296D01*
X160999777Y-50017869D01*
X160994461Y-49969163D01*
X160984704Y-49935289D01*
X160981587Y-49929734D01*
X160951538Y-49901815D01*
X160910815Y-49889447D01*
X160867079Y-49892324D01*
X160827991Y-49910141D01*
X160801210Y-49942593D01*
X160800103Y-49945322D01*
X160793463Y-49975775D01*
X160788778Y-50021280D01*
X160787005Y-50073071D01*
X160648688Y-50073071D01*
X160648688Y-49519914D01*
X160787005Y-49519914D01*
X160787005Y-49813019D01*
X160812624Y-49789834D01*
X160837292Y-49775423D01*
X160883980Y-49763377D01*
X160938556Y-49759495D01*
X160991854Y-49764261D01*
X161034707Y-49778155D01*
X161065378Y-49797920D01*
X161096971Y-49831590D01*
X161118233Y-49876871D01*
X161131014Y-49938122D01*
X161137164Y-50019704D01*
X161138068Y-50052681D01*
X161138133Y-50073296D01*
X161138261Y-50113954D01*
X161136667Y-50167712D01*
G36*
X158380909Y-48818634D02*
G01*
X158449521Y-48845365D01*
X158507548Y-48889492D01*
X158550407Y-48950099D01*
X158553301Y-48956278D01*
X158571676Y-49016550D01*
X158580857Y-49088548D01*
X158580785Y-49163510D01*
X158571401Y-49232677D01*
X158552649Y-49287290D01*
X158529495Y-49325353D01*
X158478530Y-49379276D01*
X158414806Y-49413552D01*
X158360285Y-49427413D01*
X158277267Y-49428926D01*
X158197826Y-49408023D01*
X158127379Y-49365605D01*
X158081784Y-49328021D01*
X158122851Y-49285651D01*
X158148796Y-49260550D01*
X158172264Y-49246575D01*
X158194024Y-49249652D01*
X158221856Y-49268428D01*
X158232954Y-49275779D01*
X158279837Y-49290824D01*
X158333724Y-49290814D01*
X158384175Y-49275309D01*
X158403172Y-49262857D01*
X158431037Y-49226087D01*
X158445006Y-49172080D01*
X158445905Y-49098472D01*
X158445903Y-49098430D01*
X158435509Y-49032574D01*
X158412614Y-48986913D01*
X158374939Y-48958669D01*
X158320208Y-48945061D01*
X158285741Y-48943231D01*
X158255626Y-48950725D01*
X158224740Y-48972436D01*
X158184772Y-49006067D01*
X158134156Y-48965391D01*
X158115663Y-48949808D01*
X158092565Y-48927481D01*
X158083539Y-48914324D01*
X158086736Y-48908394D01*
X158105146Y-48890189D01*
X158134473Y-48867036D01*
X158157420Y-48851971D01*
X158230274Y-48821021D01*
X158306299Y-48810214D01*
X158380909Y-48818634D01*
G37*
X158380909Y-48818634D02*
X158449521Y-48845365D01*
X158507548Y-48889492D01*
X158550407Y-48950099D01*
X158553301Y-48956278D01*
X158571676Y-49016550D01*
X158580857Y-49088548D01*
X158580785Y-49163510D01*
X158571401Y-49232677D01*
X158552649Y-49287290D01*
X158529495Y-49325353D01*
X158478530Y-49379276D01*
X158414806Y-49413552D01*
X158360285Y-49427413D01*
X158277267Y-49428926D01*
X158197826Y-49408023D01*
X158127379Y-49365605D01*
X158081784Y-49328021D01*
X158122851Y-49285651D01*
X158148796Y-49260550D01*
X158172264Y-49246575D01*
X158194024Y-49249652D01*
X158221856Y-49268428D01*
X158232954Y-49275779D01*
X158279837Y-49290824D01*
X158333724Y-49290814D01*
X158384175Y-49275309D01*
X158403172Y-49262857D01*
X158431037Y-49226087D01*
X158445006Y-49172080D01*
X158445905Y-49098472D01*
X158445903Y-49098430D01*
X158435509Y-49032574D01*
X158412614Y-48986913D01*
X158374939Y-48958669D01*
X158320208Y-48945061D01*
X158285741Y-48943231D01*
X158255626Y-48950725D01*
X158224740Y-48972436D01*
X158184772Y-49006067D01*
X158134156Y-48965391D01*
X158115663Y-48949808D01*
X158092565Y-48927481D01*
X158083539Y-48914324D01*
X158086736Y-48908394D01*
X158105146Y-48890189D01*
X158134473Y-48867036D01*
X158157420Y-48851971D01*
X158230274Y-48821021D01*
X158306299Y-48810214D01*
X158380909Y-48818634D01*
G36*
X160280497Y-49956271D02*
G01*
X160297497Y-50006991D01*
X160317607Y-50063138D01*
X160334399Y-50105673D01*
X160346486Y-50131131D01*
X160352480Y-50136044D01*
X160353926Y-50131771D01*
X160361754Y-50105563D01*
X160374223Y-50061790D01*
X160389947Y-50005352D01*
X160407543Y-49941151D01*
X160455414Y-49765112D01*
X160528507Y-49761293D01*
X160534677Y-49760987D01*
X160574092Y-49760582D01*
X160593033Y-49764628D01*
X160595445Y-49773867D01*
X160592398Y-49782890D01*
X160582374Y-49813773D01*
X160566680Y-49862685D01*
X160546434Y-49926128D01*
X160522756Y-50000603D01*
X160496763Y-50082612D01*
X160404236Y-50374963D01*
X160288493Y-50374963D01*
X160233957Y-50189493D01*
X160223886Y-50155435D01*
X160205275Y-50093519D01*
X160189372Y-50041928D01*
X160177609Y-50005271D01*
X160171418Y-49988159D01*
X160169654Y-49986882D01*
X160161071Y-49997920D01*
X160148816Y-50027110D01*
X160134926Y-50069891D01*
X160134192Y-50072404D01*
X160115596Y-50135541D01*
X160094318Y-50207030D01*
X160074821Y-50271875D01*
X160043205Y-50376263D01*
X159984902Y-50372469D01*
X159926598Y-50368676D01*
X159872598Y-50198923D01*
X159848890Y-50124334D01*
X159822333Y-50040680D01*
X159796904Y-49960483D01*
X159775854Y-49893998D01*
X159733109Y-49758824D01*
X159876112Y-49758824D01*
X159910774Y-49887711D01*
X159919988Y-49921766D01*
X159937415Y-49985256D01*
X159953554Y-50043015D01*
X159965822Y-50085755D01*
X159986209Y-50154914D01*
X160116245Y-49765112D01*
X160165976Y-49761378D01*
X160215706Y-49757645D01*
X160280497Y-49956271D01*
G37*
X160280497Y-49956271D02*
X160297497Y-50006991D01*
X160317607Y-50063138D01*
X160334399Y-50105673D01*
X160346486Y-50131131D01*
X160352480Y-50136044D01*
X160353926Y-50131771D01*
X160361754Y-50105563D01*
X160374223Y-50061790D01*
X160389947Y-50005352D01*
X160407543Y-49941151D01*
X160455414Y-49765112D01*
X160528507Y-49761293D01*
X160534677Y-49760987D01*
X160574092Y-49760582D01*
X160593033Y-49764628D01*
X160595445Y-49773867D01*
X160592398Y-49782890D01*
X160582374Y-49813773D01*
X160566680Y-49862685D01*
X160546434Y-49926128D01*
X160522756Y-50000603D01*
X160496763Y-50082612D01*
X160404236Y-50374963D01*
X160288493Y-50374963D01*
X160233957Y-50189493D01*
X160223886Y-50155435D01*
X160205275Y-50093519D01*
X160189372Y-50041928D01*
X160177609Y-50005271D01*
X160171418Y-49988159D01*
X160169654Y-49986882D01*
X160161071Y-49997920D01*
X160148816Y-50027110D01*
X160134926Y-50069891D01*
X160134192Y-50072404D01*
X160115596Y-50135541D01*
X160094318Y-50207030D01*
X160074821Y-50271875D01*
X160043205Y-50376263D01*
X159984902Y-50372469D01*
X159926598Y-50368676D01*
X159872598Y-50198923D01*
X159848890Y-50124334D01*
X159822333Y-50040680D01*
X159796904Y-49960483D01*
X159775854Y-49893998D01*
X159733109Y-49758824D01*
X159876112Y-49758824D01*
X159910774Y-49887711D01*
X159919988Y-49921766D01*
X159937415Y-49985256D01*
X159953554Y-50043015D01*
X159965822Y-50085755D01*
X159986209Y-50154914D01*
X160116245Y-49765112D01*
X160165976Y-49761378D01*
X160215706Y-49757645D01*
X160280497Y-49956271D01*
G36*
X158917765Y-49767106D02*
G01*
X158955755Y-49784886D01*
X158988886Y-49810947D01*
X158988886Y-49784886D01*
X158989711Y-49774990D01*
X158997393Y-49764499D01*
X159018167Y-49759866D01*
X159058044Y-49758824D01*
X159127203Y-49758824D01*
X159127203Y-50374963D01*
X158988886Y-50374963D01*
X158988886Y-50174367D01*
X158988869Y-50162851D01*
X158987689Y-50081899D01*
X158984794Y-50015958D01*
X158980388Y-49968399D01*
X158974681Y-49942593D01*
X158969440Y-49932851D01*
X158937176Y-49902297D01*
X158893230Y-49888772D01*
X158845243Y-49895082D01*
X158833473Y-49899358D01*
X158808398Y-49906917D01*
X158791262Y-49904569D01*
X158774018Y-49889205D01*
X158748624Y-49857712D01*
X158707436Y-49805709D01*
X158736386Y-49782266D01*
X158763905Y-49768156D01*
X158812245Y-49758627D01*
X158866730Y-49758315D01*
X158917765Y-49767106D01*
G37*
X158917765Y-49767106D02*
X158955755Y-49784886D01*
X158988886Y-49810947D01*
X158988886Y-49784886D01*
X158989711Y-49774990D01*
X158997393Y-49764499D01*
X159018167Y-49759866D01*
X159058044Y-49758824D01*
X159127203Y-49758824D01*
X159127203Y-50374963D01*
X158988886Y-50374963D01*
X158988886Y-50174367D01*
X158988869Y-50162851D01*
X158987689Y-50081899D01*
X158984794Y-50015958D01*
X158980388Y-49968399D01*
X158974681Y-49942593D01*
X158969440Y-49932851D01*
X158937176Y-49902297D01*
X158893230Y-49888772D01*
X158845243Y-49895082D01*
X158833473Y-49899358D01*
X158808398Y-49906917D01*
X158791262Y-49904569D01*
X158774018Y-49889205D01*
X158748624Y-49857712D01*
X158707436Y-49805709D01*
X158736386Y-49782266D01*
X158763905Y-49768156D01*
X158812245Y-49758627D01*
X158866730Y-49758315D01*
X158917765Y-49767106D01*
G36*
X159721744Y-50266560D02*
G01*
X159688777Y-50315396D01*
X159638770Y-50350527D01*
X159633862Y-50352662D01*
X159579146Y-50368044D01*
X159517493Y-50374040D01*
X159458876Y-50370374D01*
X159413267Y-50356770D01*
X159395049Y-50347895D01*
X159381679Y-50345778D01*
X159378688Y-50356847D01*
X159373024Y-50367083D01*
X159351107Y-50373179D01*
X159308568Y-50374963D01*
X159238448Y-50374963D01*
X159242180Y-50154914D01*
X159378688Y-50154914D01*
X159383424Y-50187807D01*
X159403836Y-50224072D01*
X159411371Y-50230738D01*
X159442253Y-50244761D01*
X159488713Y-50248369D01*
X159516590Y-50246960D01*
X159568755Y-50236345D01*
X159601087Y-50216566D01*
X159611992Y-50188965D01*
X159599874Y-50154884D01*
X159592804Y-50145965D01*
X159561224Y-50125959D01*
X159511244Y-50114536D01*
X159439987Y-50110904D01*
X159378688Y-50110904D01*
X159378688Y-50154914D01*
X159242180Y-50154914D01*
X159242553Y-50132909D01*
X159243669Y-50076935D01*
X159246606Y-49993137D01*
X159251558Y-49929061D01*
X159259502Y-49881214D01*
X159271417Y-49846103D01*
X159288280Y-49820234D01*
X159311072Y-49800115D01*
X159340769Y-49782251D01*
X159356089Y-49775431D01*
X159409089Y-49762558D01*
X159473013Y-49757236D01*
X159539102Y-49759368D01*
X159598599Y-49768855D01*
X159642747Y-49785602D01*
X159658104Y-49795326D01*
X159693460Y-49824146D01*
X159705426Y-49848278D01*
X159702520Y-49852941D01*
X159684409Y-49869229D01*
X159655172Y-49890958D01*
X159640225Y-49901128D01*
X159614770Y-49915538D01*
X159598228Y-49916914D01*
X159582870Y-49906968D01*
X159544594Y-49886825D01*
X159493090Y-49878541D01*
X159440457Y-49884883D01*
X159439461Y-49885171D01*
X159402338Y-49901299D01*
X159383963Y-49926546D01*
X159378880Y-49968299D01*
X159378688Y-50008020D01*
X159509923Y-50012309D01*
X159530831Y-50013014D01*
X159583543Y-50015467D01*
X159618881Y-50019321D01*
X159642767Y-50026019D01*
X159661124Y-50037005D01*
X159679876Y-50053721D01*
X159710837Y-50092385D01*
X159733529Y-50149597D01*
X159735754Y-50188965D01*
X159736913Y-50209474D01*
X159721744Y-50266560D01*
G37*
X159721744Y-50266560D02*
X159688777Y-50315396D01*
X159638770Y-50350527D01*
X159633862Y-50352662D01*
X159579146Y-50368044D01*
X159517493Y-50374040D01*
X159458876Y-50370374D01*
X159413267Y-50356770D01*
X159395049Y-50347895D01*
X159381679Y-50345778D01*
X159378688Y-50356847D01*
X159373024Y-50367083D01*
X159351107Y-50373179D01*
X159308568Y-50374963D01*
X159238448Y-50374963D01*
X159242180Y-50154914D01*
X159378688Y-50154914D01*
X159383424Y-50187807D01*
X159403836Y-50224072D01*
X159411371Y-50230738D01*
X159442253Y-50244761D01*
X159488713Y-50248369D01*
X159516590Y-50246960D01*
X159568755Y-50236345D01*
X159601087Y-50216566D01*
X159611992Y-50188965D01*
X159599874Y-50154884D01*
X159592804Y-50145965D01*
X159561224Y-50125959D01*
X159511244Y-50114536D01*
X159439987Y-50110904D01*
X159378688Y-50110904D01*
X159378688Y-50154914D01*
X159242180Y-50154914D01*
X159242553Y-50132909D01*
X159243669Y-50076935D01*
X159246606Y-49993137D01*
X159251558Y-49929061D01*
X159259502Y-49881214D01*
X159271417Y-49846103D01*
X159288280Y-49820234D01*
X159311072Y-49800115D01*
X159340769Y-49782251D01*
X159356089Y-49775431D01*
X159409089Y-49762558D01*
X159473013Y-49757236D01*
X159539102Y-49759368D01*
X159598599Y-49768855D01*
X159642747Y-49785602D01*
X159658104Y-49795326D01*
X159693460Y-49824146D01*
X159705426Y-49848278D01*
X159702520Y-49852941D01*
X159684409Y-49869229D01*
X159655172Y-49890958D01*
X159640225Y-49901128D01*
X159614770Y-49915538D01*
X159598228Y-49916914D01*
X159582870Y-49906968D01*
X159544594Y-49886825D01*
X159493090Y-49878541D01*
X159440457Y-49884883D01*
X159439461Y-49885171D01*
X159402338Y-49901299D01*
X159383963Y-49926546D01*
X159378880Y-49968299D01*
X159378688Y-50008020D01*
X159509923Y-50012309D01*
X159530831Y-50013014D01*
X159583543Y-50015467D01*
X159618881Y-50019321D01*
X159642767Y-50026019D01*
X159661124Y-50037005D01*
X159679876Y-50053721D01*
X159710837Y-50092385D01*
X159733529Y-50149597D01*
X159735754Y-50188965D01*
X159736913Y-50209474D01*
X159721744Y-50266560D01*
G36*
X158065325Y-49173262D02*
G01*
X158065115Y-49175155D01*
X158047035Y-49263466D01*
X158014370Y-49332127D01*
X157966101Y-49382647D01*
X157901213Y-49416534D01*
X157889301Y-49420409D01*
X157815471Y-49431829D01*
X157739114Y-49425461D01*
X157668126Y-49402704D01*
X157610404Y-49364960D01*
X157567167Y-49325013D01*
X157613125Y-49288673D01*
X157659083Y-49252334D01*
X157714469Y-49279242D01*
X157778556Y-49301046D01*
X157835132Y-49301699D01*
X157881420Y-49281666D01*
X157914730Y-49241456D01*
X157926671Y-49217363D01*
X157933337Y-49196771D01*
X157929480Y-49182861D01*
X157912175Y-49174322D01*
X157878497Y-49169845D01*
X157825521Y-49168119D01*
X157750322Y-49167834D01*
X157567995Y-49167834D01*
X157567995Y-49080633D01*
X157569357Y-49042351D01*
X157697734Y-49042351D01*
X157703899Y-49049392D01*
X157722154Y-49053057D01*
X157756852Y-49054447D01*
X157812346Y-49054666D01*
X157842103Y-49054317D01*
X157889062Y-49052008D01*
X157920916Y-49047963D01*
X157932648Y-49042683D01*
X157929646Y-49023203D01*
X157908488Y-48985927D01*
X157873231Y-48955305D01*
X157831199Y-48936809D01*
X157789720Y-48935914D01*
X157758497Y-48950745D01*
X157723118Y-48984496D01*
X157700622Y-49026374D01*
X157699305Y-49030831D01*
X157697734Y-49042351D01*
X157569357Y-49042351D01*
X157569636Y-49034512D01*
X157574455Y-48988881D01*
X157581340Y-48958034D01*
X157586359Y-48946258D01*
X157622890Y-48893808D01*
X157675675Y-48850062D01*
X157737404Y-48821420D01*
X157769602Y-48813598D01*
X157846320Y-48810037D01*
X157914679Y-48828150D01*
X157972799Y-48865920D01*
X158018802Y-48921332D01*
X158050810Y-48992370D01*
X158060400Y-49042683D01*
X158066944Y-49077019D01*
X158065325Y-49173262D01*
G37*
X158065325Y-49173262D02*
X158065115Y-49175155D01*
X158047035Y-49263466D01*
X158014370Y-49332127D01*
X157966101Y-49382647D01*
X157901213Y-49416534D01*
X157889301Y-49420409D01*
X157815471Y-49431829D01*
X157739114Y-49425461D01*
X157668126Y-49402704D01*
X157610404Y-49364960D01*
X157567167Y-49325013D01*
X157613125Y-49288673D01*
X157659083Y-49252334D01*
X157714469Y-49279242D01*
X157778556Y-49301046D01*
X157835132Y-49301699D01*
X157881420Y-49281666D01*
X157914730Y-49241456D01*
X157926671Y-49217363D01*
X157933337Y-49196771D01*
X157929480Y-49182861D01*
X157912175Y-49174322D01*
X157878497Y-49169845D01*
X157825521Y-49168119D01*
X157750322Y-49167834D01*
X157567995Y-49167834D01*
X157567995Y-49080633D01*
X157569357Y-49042351D01*
X157697734Y-49042351D01*
X157703899Y-49049392D01*
X157722154Y-49053057D01*
X157756852Y-49054447D01*
X157812346Y-49054666D01*
X157842103Y-49054317D01*
X157889062Y-49052008D01*
X157920916Y-49047963D01*
X157932648Y-49042683D01*
X157929646Y-49023203D01*
X157908488Y-48985927D01*
X157873231Y-48955305D01*
X157831199Y-48936809D01*
X157789720Y-48935914D01*
X157758497Y-48950745D01*
X157723118Y-48984496D01*
X157700622Y-49026374D01*
X157699305Y-49030831D01*
X157697734Y-49042351D01*
X157569357Y-49042351D01*
X157569636Y-49034512D01*
X157574455Y-48988881D01*
X157581340Y-48958034D01*
X157586359Y-48946258D01*
X157622890Y-48893808D01*
X157675675Y-48850062D01*
X157737404Y-48821420D01*
X157769602Y-48813598D01*
X157846320Y-48810037D01*
X157914679Y-48828150D01*
X157972799Y-48865920D01*
X158018802Y-48921332D01*
X158050810Y-48992370D01*
X158060400Y-49042683D01*
X158066944Y-49077019D01*
X158065325Y-49173262D01*
G36*
X162154657Y-50209023D02*
G01*
X162139335Y-50273620D01*
X162105253Y-50322204D01*
X162050718Y-50357213D01*
X162022536Y-50365730D01*
X161974264Y-50372369D01*
X161921478Y-50373954D01*
X161873853Y-50370301D01*
X161841066Y-50361224D01*
X161821152Y-50353954D01*
X161801655Y-50361224D01*
X161794523Y-50365436D01*
X161766057Y-50372267D01*
X161727559Y-50374963D01*
X161667203Y-50374963D01*
X161667203Y-50159252D01*
X161805520Y-50159252D01*
X161810168Y-50196045D01*
X161828515Y-50228410D01*
X161839014Y-50235415D01*
X161876488Y-50246332D01*
X161923273Y-50249058D01*
X161969152Y-50243520D01*
X162003910Y-50229646D01*
X162021226Y-50211302D01*
X162031856Y-50178707D01*
X162022429Y-50152870D01*
X161991264Y-50130404D01*
X161941167Y-50115991D01*
X161875082Y-50110904D01*
X161805520Y-50110904D01*
X161805520Y-50159252D01*
X161667203Y-50159252D01*
X161667203Y-50131625D01*
X161667207Y-50110581D01*
X161667437Y-50031263D01*
X161668297Y-49972295D01*
X161670179Y-49929757D01*
X161673474Y-49899733D01*
X161678573Y-49878304D01*
X161685866Y-49861552D01*
X161695746Y-49845560D01*
X161727523Y-49808089D01*
X161772555Y-49779480D01*
X161831710Y-49763696D01*
X161909661Y-49758844D01*
X161912195Y-49758849D01*
X161966380Y-49761296D01*
X162014880Y-49767397D01*
X162047978Y-49775950D01*
X162057052Y-49780237D01*
X162085933Y-49798389D01*
X162112068Y-49819963D01*
X162129264Y-49839377D01*
X162131325Y-49851050D01*
X162127303Y-49854204D01*
X162083476Y-49887880D01*
X162054171Y-49907741D01*
X162034794Y-49915754D01*
X162020753Y-49913887D01*
X162007457Y-49904106D01*
X161982918Y-49891897D01*
X161941564Y-49883756D01*
X161894826Y-49881644D01*
X161852534Y-49885941D01*
X161824517Y-49897028D01*
X161823043Y-49898377D01*
X161810453Y-49923722D01*
X161805520Y-49961552D01*
X161805520Y-50010310D01*
X161921831Y-50010357D01*
X161975260Y-50011202D01*
X162020235Y-50014881D01*
X162052407Y-50022450D01*
X162078399Y-50034949D01*
X162084448Y-50038788D01*
X162128210Y-50080986D01*
X162151487Y-50136788D01*
X162153455Y-50178707D01*
X162154799Y-50207364D01*
X162154657Y-50209023D01*
G37*
X162154657Y-50209023D02*
X162139335Y-50273620D01*
X162105253Y-50322204D01*
X162050718Y-50357213D01*
X162022536Y-50365730D01*
X161974264Y-50372369D01*
X161921478Y-50373954D01*
X161873853Y-50370301D01*
X161841066Y-50361224D01*
X161821152Y-50353954D01*
X161801655Y-50361224D01*
X161794523Y-50365436D01*
X161766057Y-50372267D01*
X161727559Y-50374963D01*
X161667203Y-50374963D01*
X161667203Y-50159252D01*
X161805520Y-50159252D01*
X161810168Y-50196045D01*
X161828515Y-50228410D01*
X161839014Y-50235415D01*
X161876488Y-50246332D01*
X161923273Y-50249058D01*
X161969152Y-50243520D01*
X162003910Y-50229646D01*
X162021226Y-50211302D01*
X162031856Y-50178707D01*
X162022429Y-50152870D01*
X161991264Y-50130404D01*
X161941167Y-50115991D01*
X161875082Y-50110904D01*
X161805520Y-50110904D01*
X161805520Y-50159252D01*
X161667203Y-50159252D01*
X161667203Y-50131625D01*
X161667207Y-50110581D01*
X161667437Y-50031263D01*
X161668297Y-49972295D01*
X161670179Y-49929757D01*
X161673474Y-49899733D01*
X161678573Y-49878304D01*
X161685866Y-49861552D01*
X161695746Y-49845560D01*
X161727523Y-49808089D01*
X161772555Y-49779480D01*
X161831710Y-49763696D01*
X161909661Y-49758844D01*
X161912195Y-49758849D01*
X161966380Y-49761296D01*
X162014880Y-49767397D01*
X162047978Y-49775950D01*
X162057052Y-49780237D01*
X162085933Y-49798389D01*
X162112068Y-49819963D01*
X162129264Y-49839377D01*
X162131325Y-49851050D01*
X162127303Y-49854204D01*
X162083476Y-49887880D01*
X162054171Y-49907741D01*
X162034794Y-49915754D01*
X162020753Y-49913887D01*
X162007457Y-49904106D01*
X161982918Y-49891897D01*
X161941564Y-49883756D01*
X161894826Y-49881644D01*
X161852534Y-49885941D01*
X161824517Y-49897028D01*
X161823043Y-49898377D01*
X161810453Y-49923722D01*
X161805520Y-49961552D01*
X161805520Y-50010310D01*
X161921831Y-50010357D01*
X161975260Y-50011202D01*
X162020235Y-50014881D01*
X162052407Y-50022450D01*
X162078399Y-50034949D01*
X162084448Y-50038788D01*
X162128210Y-50080986D01*
X162151487Y-50136788D01*
X162153455Y-50178707D01*
X162154799Y-50207364D01*
X162154657Y-50209023D01*
G36*
X162657426Y-50372477D02*
G01*
X162591411Y-50368676D01*
X162588272Y-50167488D01*
X162587344Y-50118566D01*
X162584708Y-50045067D01*
X162580183Y-49991132D01*
X162572938Y-49953136D01*
X162562142Y-49927454D01*
X162546962Y-49910461D01*
X162526566Y-49898530D01*
X162488297Y-49886346D01*
X162450238Y-49891081D01*
X162410049Y-49917120D01*
X162371361Y-49949674D01*
X162371361Y-50374963D01*
X162233044Y-50374963D01*
X162233044Y-50144317D01*
X162233177Y-50072023D01*
X162233913Y-50007782D01*
X162235681Y-49960759D01*
X162238911Y-49926689D01*
X162244030Y-49901311D01*
X162251467Y-49880362D01*
X162261650Y-49859577D01*
X162264064Y-49855165D01*
X162296175Y-49812188D01*
X162333756Y-49782154D01*
X162379064Y-49766384D01*
X162439061Y-49759363D01*
X162499143Y-49763166D01*
X162548025Y-49778009D01*
X162585124Y-49797193D01*
X162585124Y-49382000D01*
X162534292Y-49408495D01*
X162513058Y-49418121D01*
X162446036Y-49431733D01*
X162379430Y-49422325D01*
X162317687Y-49391046D01*
X162265257Y-49339043D01*
X162257043Y-49326821D01*
X162249149Y-49308904D01*
X162244000Y-49284545D01*
X162241027Y-49249068D01*
X162239661Y-49197797D01*
X162239415Y-49144377D01*
X162372249Y-49144377D01*
X162372361Y-49188990D01*
X162375772Y-49218742D01*
X162383437Y-49239976D01*
X162396314Y-49259037D01*
X162412671Y-49276758D01*
X162438829Y-49290169D01*
X162478242Y-49293577D01*
X162513059Y-49290612D01*
X162547520Y-49275772D01*
X162569715Y-49245710D01*
X162581597Y-49197395D01*
X162585124Y-49127791D01*
X162584212Y-49090765D01*
X162575109Y-49020869D01*
X162556328Y-48973605D01*
X162527976Y-48949309D01*
X162499340Y-48942473D01*
X162449470Y-48945678D01*
X162407333Y-48965521D01*
X162397249Y-48974621D01*
X162386563Y-48990364D01*
X162379956Y-49013799D01*
X162376032Y-49050745D01*
X162373397Y-49107021D01*
X162372249Y-49144377D01*
X162239415Y-49144377D01*
X162239331Y-49126058D01*
X162239444Y-49093325D01*
X162241372Y-49017185D01*
X162246740Y-48960307D01*
X162256906Y-48918390D01*
X162273225Y-48887137D01*
X162297053Y-48862247D01*
X162329747Y-48839423D01*
X162356259Y-48826325D01*
X162419115Y-48811880D01*
X162485369Y-48813848D01*
X162544257Y-48832574D01*
X162569530Y-48844814D01*
X162582242Y-48846079D01*
X162585124Y-48834939D01*
X162585126Y-48834602D01*
X162591338Y-48823228D01*
X162612760Y-48817397D01*
X162654282Y-48815755D01*
X162723440Y-48815755D01*
X162723440Y-50376277D01*
X162657426Y-50372477D01*
G37*
X162657426Y-50372477D02*
X162591411Y-50368676D01*
X162588272Y-50167488D01*
X162587344Y-50118566D01*
X162584708Y-50045067D01*
X162580183Y-49991132D01*
X162572938Y-49953136D01*
X162562142Y-49927454D01*
X162546962Y-49910461D01*
X162526566Y-49898530D01*
X162488297Y-49886346D01*
X162450238Y-49891081D01*
X162410049Y-49917120D01*
X162371361Y-49949674D01*
X162371361Y-50374963D01*
X162233044Y-50374963D01*
X162233044Y-50144317D01*
X162233177Y-50072023D01*
X162233913Y-50007782D01*
X162235681Y-49960759D01*
X162238911Y-49926689D01*
X162244030Y-49901311D01*
X162251467Y-49880362D01*
X162261650Y-49859577D01*
X162264064Y-49855165D01*
X162296175Y-49812188D01*
X162333756Y-49782154D01*
X162379064Y-49766384D01*
X162439061Y-49759363D01*
X162499143Y-49763166D01*
X162548025Y-49778009D01*
X162585124Y-49797193D01*
X162585124Y-49382000D01*
X162534292Y-49408495D01*
X162513058Y-49418121D01*
X162446036Y-49431733D01*
X162379430Y-49422325D01*
X162317687Y-49391046D01*
X162265257Y-49339043D01*
X162257043Y-49326821D01*
X162249149Y-49308904D01*
X162244000Y-49284545D01*
X162241027Y-49249068D01*
X162239661Y-49197797D01*
X162239415Y-49144377D01*
X162372249Y-49144377D01*
X162372361Y-49188990D01*
X162375772Y-49218742D01*
X162383437Y-49239976D01*
X162396314Y-49259037D01*
X162412671Y-49276758D01*
X162438829Y-49290169D01*
X162478242Y-49293577D01*
X162513059Y-49290612D01*
X162547520Y-49275772D01*
X162569715Y-49245710D01*
X162581597Y-49197395D01*
X162585124Y-49127791D01*
X162584212Y-49090765D01*
X162575109Y-49020869D01*
X162556328Y-48973605D01*
X162527976Y-48949309D01*
X162499340Y-48942473D01*
X162449470Y-48945678D01*
X162407333Y-48965521D01*
X162397249Y-48974621D01*
X162386563Y-48990364D01*
X162379956Y-49013799D01*
X162376032Y-49050745D01*
X162373397Y-49107021D01*
X162372249Y-49144377D01*
X162239415Y-49144377D01*
X162239331Y-49126058D01*
X162239444Y-49093325D01*
X162241372Y-49017185D01*
X162246740Y-48960307D01*
X162256906Y-48918390D01*
X162273225Y-48887137D01*
X162297053Y-48862247D01*
X162329747Y-48839423D01*
X162356259Y-48826325D01*
X162419115Y-48811880D01*
X162485369Y-48813848D01*
X162544257Y-48832574D01*
X162569530Y-48844814D01*
X162582242Y-48846079D01*
X162585124Y-48834939D01*
X162585126Y-48834602D01*
X162591338Y-48823228D01*
X162612760Y-48817397D01*
X162654282Y-48815755D01*
X162723440Y-48815755D01*
X162723440Y-50376277D01*
X162657426Y-50372477D01*
G36*
X163310873Y-49191451D02*
G01*
X163307188Y-49239473D01*
X163300910Y-49273509D01*
X163290544Y-49300479D01*
X163274592Y-49327299D01*
X163273912Y-49328316D01*
X163234632Y-49371770D01*
X163186572Y-49404913D01*
X163130685Y-49424580D01*
X163057166Y-49430965D01*
X162985109Y-49418409D01*
X162920701Y-49388152D01*
X162870127Y-49341435D01*
X162855608Y-49319362D01*
X162828493Y-49250743D01*
X162815046Y-49166080D01*
X162815276Y-49144664D01*
X162950420Y-49144664D01*
X162950674Y-49184715D01*
X162954921Y-49211454D01*
X162964596Y-49232000D01*
X162981138Y-49253472D01*
X163004093Y-49274780D01*
X163050005Y-49293794D01*
X163099302Y-49290263D01*
X163146417Y-49263835D01*
X163159707Y-49251213D01*
X163173897Y-49229606D01*
X163181766Y-49199235D01*
X163186226Y-49151911D01*
X163187455Y-49116360D01*
X163180724Y-49043761D01*
X163160067Y-48991783D01*
X163125394Y-48960140D01*
X163084749Y-48944988D01*
X163036277Y-48946264D01*
X162991345Y-48971844D01*
X162980603Y-48981583D01*
X162967048Y-48998621D01*
X162959005Y-49020913D01*
X162954543Y-49055088D01*
X162951728Y-49107779D01*
X162950420Y-49144664D01*
X162815276Y-49144664D01*
X162816083Y-49069492D01*
X162817407Y-49055792D01*
X162835874Y-48968049D01*
X162870040Y-48899934D01*
X162919979Y-48851372D01*
X162985761Y-48822289D01*
X163067461Y-48812612D01*
X163098328Y-48813520D01*
X163161628Y-48824634D01*
X163213389Y-48851162D01*
X163261647Y-48896577D01*
X163269365Y-48905692D01*
X163290181Y-48936389D01*
X163303862Y-48971148D01*
X163311448Y-49015197D01*
X163313979Y-49073762D01*
X163313172Y-49116360D01*
X163312497Y-49152072D01*
X163310873Y-49191451D01*
G37*
X163310873Y-49191451D02*
X163307188Y-49239473D01*
X163300910Y-49273509D01*
X163290544Y-49300479D01*
X163274592Y-49327299D01*
X163273912Y-49328316D01*
X163234632Y-49371770D01*
X163186572Y-49404913D01*
X163130685Y-49424580D01*
X163057166Y-49430965D01*
X162985109Y-49418409D01*
X162920701Y-49388152D01*
X162870127Y-49341435D01*
X162855608Y-49319362D01*
X162828493Y-49250743D01*
X162815046Y-49166080D01*
X162815276Y-49144664D01*
X162950420Y-49144664D01*
X162950674Y-49184715D01*
X162954921Y-49211454D01*
X162964596Y-49232000D01*
X162981138Y-49253472D01*
X163004093Y-49274780D01*
X163050005Y-49293794D01*
X163099302Y-49290263D01*
X163146417Y-49263835D01*
X163159707Y-49251213D01*
X163173897Y-49229606D01*
X163181766Y-49199235D01*
X163186226Y-49151911D01*
X163187455Y-49116360D01*
X163180724Y-49043761D01*
X163160067Y-48991783D01*
X163125394Y-48960140D01*
X163084749Y-48944988D01*
X163036277Y-48946264D01*
X162991345Y-48971844D01*
X162980603Y-48981583D01*
X162967048Y-48998621D01*
X162959005Y-49020913D01*
X162954543Y-49055088D01*
X162951728Y-49107779D01*
X162950420Y-49144664D01*
X162815276Y-49144664D01*
X162816083Y-49069492D01*
X162817407Y-49055792D01*
X162835874Y-48968049D01*
X162870040Y-48899934D01*
X162919979Y-48851372D01*
X162985761Y-48822289D01*
X163067461Y-48812612D01*
X163098328Y-48813520D01*
X163161628Y-48824634D01*
X163213389Y-48851162D01*
X163261647Y-48896577D01*
X163269365Y-48905692D01*
X163290181Y-48936389D01*
X163303862Y-48971148D01*
X163311448Y-49015197D01*
X163313979Y-49073762D01*
X163313172Y-49116360D01*
X163312497Y-49152072D01*
X163310873Y-49191451D01*
D10*
%TO.C,D20*%
X152913250Y-90424141D02*
X152913250Y-88900141D01*
X148341250Y-88900141D02*
X148849250Y-88900141D01*
X148341250Y-90424141D02*
X148341250Y-88900141D01*
X152659250Y-88900141D02*
X152659250Y-90424141D01*
X153421250Y-88900141D02*
X153421250Y-90424141D01*
X153294250Y-88900141D02*
X153294250Y-90424141D01*
X153167250Y-90424141D02*
X153167250Y-88900141D01*
X153421250Y-90424141D02*
X148341250Y-90424141D01*
X152786250Y-88900141D02*
X152786250Y-90424141D01*
X153040250Y-88900141D02*
X153040250Y-90424141D01*
X148341250Y-88900141D02*
X153421250Y-88900141D01*
%TO.C,D11*%
X126953250Y-79904141D02*
X126953250Y-78380141D01*
X126826250Y-78380141D02*
X126826250Y-79904141D01*
X122381250Y-78380141D02*
X122889250Y-78380141D01*
X126699250Y-78380141D02*
X126699250Y-79904141D01*
X127334250Y-78380141D02*
X127334250Y-79904141D01*
X122381250Y-78380141D02*
X127461250Y-78380141D01*
X122381250Y-79904141D02*
X122381250Y-78380141D01*
X127207250Y-79904141D02*
X127207250Y-78380141D01*
X127461250Y-78380141D02*
X127461250Y-79904141D01*
X127461250Y-79904141D02*
X122381250Y-79904141D01*
X127080250Y-78380141D02*
X127080250Y-79904141D01*
%TO.C,D13*%
X92313250Y-28966141D02*
X90789250Y-28966141D01*
X92313250Y-29220141D02*
X90789250Y-29220141D01*
X90789250Y-28839141D02*
X92313250Y-28839141D01*
X90789250Y-28712141D02*
X92313250Y-28712141D01*
X92313250Y-33792141D02*
X90789250Y-33792141D01*
X90789250Y-29347141D02*
X92313250Y-29347141D01*
X90789250Y-29093141D02*
X92313250Y-29093141D01*
X90789250Y-33792141D02*
X90789250Y-28712141D01*
X90789250Y-29474141D02*
X92313250Y-29474141D01*
X92313250Y-28712141D02*
X92313250Y-33792141D01*
X90789250Y-33792141D02*
X90789250Y-33284141D01*
%TO.C,D9*%
X73259250Y-29474141D02*
X74783250Y-29474141D01*
X74783250Y-29220141D02*
X73259250Y-29220141D01*
X73259250Y-29093141D02*
X74783250Y-29093141D01*
X73259250Y-29347141D02*
X74783250Y-29347141D01*
X73259250Y-28712141D02*
X74783250Y-28712141D01*
X74783250Y-28966141D02*
X73259250Y-28966141D01*
X73259250Y-33792141D02*
X73259250Y-28712141D01*
X73259250Y-33792141D02*
X73259250Y-33284141D01*
X74783250Y-28712141D02*
X74783250Y-33792141D01*
X73259250Y-28839141D02*
X74783250Y-28839141D01*
X74783250Y-33792141D02*
X73259250Y-33792141D01*
%TO.C,D8*%
X128986250Y-80830141D02*
X128986250Y-82354141D01*
X129367250Y-82354141D02*
X129367250Y-80830141D01*
X124541250Y-82354141D02*
X124541250Y-80830141D01*
X129621250Y-80830141D02*
X129621250Y-82354141D01*
X129621250Y-82354141D02*
X124541250Y-82354141D01*
X124541250Y-80830141D02*
X129621250Y-80830141D01*
X128859250Y-80830141D02*
X128859250Y-82354141D01*
X129113250Y-82354141D02*
X129113250Y-80830141D01*
X129494250Y-80830141D02*
X129494250Y-82354141D01*
X124541250Y-80830141D02*
X125049250Y-80830141D01*
X129240250Y-80830141D02*
X129240250Y-82354141D01*
%TO.C,D0*%
X28349250Y-28839141D02*
X29873250Y-28839141D01*
X28349250Y-29093141D02*
X29873250Y-29093141D01*
X29873250Y-28712141D02*
X29873250Y-33792141D01*
X29873250Y-29220141D02*
X28349250Y-29220141D01*
X28349250Y-33792141D02*
X28349250Y-33284141D01*
X28349250Y-28712141D02*
X29873250Y-28712141D01*
X28349250Y-29474141D02*
X29873250Y-29474141D01*
X28349250Y-29347141D02*
X29873250Y-29347141D01*
X29873250Y-28966141D02*
X28349250Y-28966141D01*
X29873250Y-33792141D02*
X28349250Y-33792141D01*
X28349250Y-33792141D02*
X28349250Y-28712141D01*
%TO.C,D18*%
X111129250Y-34229141D02*
X112653250Y-34229141D01*
X112653250Y-34102141D02*
X112653250Y-39182141D01*
X111129250Y-39182141D02*
X111129250Y-34102141D01*
X111129250Y-34737141D02*
X112653250Y-34737141D01*
X112653250Y-34610141D02*
X111129250Y-34610141D01*
X112653250Y-39182141D02*
X111129250Y-39182141D01*
X111129250Y-34483141D02*
X112653250Y-34483141D01*
X112653250Y-34356141D02*
X111129250Y-34356141D01*
X111129250Y-39182141D02*
X111129250Y-38674141D01*
X111129250Y-34864141D02*
X112653250Y-34864141D01*
X111129250Y-34102141D02*
X112653250Y-34102141D01*
%TO.C,D14*%
X96689250Y-39032141D02*
X96689250Y-33952141D01*
X98213250Y-34206141D02*
X96689250Y-34206141D01*
X98213250Y-33952141D02*
X98213250Y-39032141D01*
X96689250Y-39032141D02*
X96689250Y-38524141D01*
X96689250Y-33952141D02*
X98213250Y-33952141D01*
X98213250Y-39032141D02*
X96689250Y-39032141D01*
X96689250Y-34714141D02*
X98213250Y-34714141D01*
X96689250Y-34333141D02*
X98213250Y-34333141D01*
X98213250Y-34460141D02*
X96689250Y-34460141D01*
X96689250Y-34079141D02*
X98213250Y-34079141D01*
X96689250Y-34587141D02*
X98213250Y-34587141D01*
%TO.C,D2*%
X128761250Y-85720141D02*
X133841250Y-85720141D01*
X133460250Y-85720141D02*
X133460250Y-87244141D01*
X128761250Y-85720141D02*
X129269250Y-85720141D01*
X133333250Y-87244141D02*
X133333250Y-85720141D01*
X133079250Y-85720141D02*
X133079250Y-87244141D01*
X133206250Y-85720141D02*
X133206250Y-87244141D01*
X133714250Y-85720141D02*
X133714250Y-87244141D01*
X128761250Y-87244141D02*
X128761250Y-85720141D01*
X133587250Y-87244141D02*
X133587250Y-85720141D01*
X133841250Y-87244141D02*
X128761250Y-87244141D01*
X133841250Y-85720141D02*
X133841250Y-87244141D01*
%TO.C,D1*%
X35229250Y-39032141D02*
X35229250Y-38524141D01*
X35229250Y-39032141D02*
X35229250Y-33952141D01*
X36753250Y-39032141D02*
X35229250Y-39032141D01*
X36753250Y-34460141D02*
X35229250Y-34460141D01*
X35229250Y-34333141D02*
X36753250Y-34333141D01*
X36753250Y-34206141D02*
X35229250Y-34206141D01*
X36753250Y-33952141D02*
X36753250Y-39032141D01*
X35229250Y-34079141D02*
X36753250Y-34079141D01*
X35229250Y-34587141D02*
X36753250Y-34587141D01*
X35229250Y-34714141D02*
X36753250Y-34714141D01*
X35229250Y-33952141D02*
X36753250Y-33952141D01*
%TO.C,D12*%
X152910250Y-99240141D02*
X152910250Y-100764141D01*
X153291250Y-99240141D02*
X153291250Y-100764141D01*
X152783250Y-100764141D02*
X152783250Y-99240141D01*
X153164250Y-99240141D02*
X153164250Y-100764141D01*
X153037250Y-100764141D02*
X153037250Y-99240141D01*
X152656250Y-99240141D02*
X152656250Y-100764141D01*
X153291250Y-100764141D02*
X148211250Y-100764141D01*
X148211250Y-99240141D02*
X153291250Y-99240141D01*
X152529250Y-99240141D02*
X152529250Y-100764141D01*
X148211250Y-99240141D02*
X148719250Y-99240141D01*
X148211250Y-100764141D02*
X148211250Y-99240141D01*
%TO.C,D6*%
X58179250Y-33792141D02*
X58179250Y-33284141D01*
X59703250Y-28966141D02*
X58179250Y-28966141D01*
X59703250Y-28712141D02*
X59703250Y-33792141D01*
X58179250Y-28839141D02*
X59703250Y-28839141D01*
X58179250Y-29093141D02*
X59703250Y-29093141D01*
X59703250Y-29220141D02*
X58179250Y-29220141D01*
X58179250Y-33792141D02*
X58179250Y-28712141D01*
X58179250Y-29474141D02*
X59703250Y-29474141D01*
X58179250Y-29347141D02*
X59703250Y-29347141D01*
X59703250Y-33792141D02*
X58179250Y-33792141D01*
X58179250Y-28712141D02*
X59703250Y-28712141D01*
%TO.C,D7*%
X67563250Y-34460141D02*
X66039250Y-34460141D01*
X66039250Y-33952141D02*
X67563250Y-33952141D01*
X66039250Y-39032141D02*
X66039250Y-33952141D01*
X66039250Y-34333141D02*
X67563250Y-34333141D01*
X66039250Y-34714141D02*
X67563250Y-34714141D01*
X67563250Y-34206141D02*
X66039250Y-34206141D01*
X66039250Y-34587141D02*
X67563250Y-34587141D01*
X66039250Y-34079141D02*
X67563250Y-34079141D01*
X67563250Y-33952141D02*
X67563250Y-39032141D01*
X66039250Y-39032141D02*
X66039250Y-38524141D01*
X67563250Y-39032141D02*
X66039250Y-39032141D01*
D12*
%TO.C,MC-EC0*%
X116718270Y-51552911D02*
X116718270Y-21072911D01*
X134498270Y-51552911D02*
X116718270Y-51552911D01*
X131958270Y-21072911D02*
X131958270Y-23612911D01*
X134498270Y-21072911D02*
X134498270Y-51552911D01*
X131958270Y-23612911D02*
X134498270Y-23612911D01*
X131958270Y-21072911D02*
X134498270Y-21072911D01*
X116718270Y-18532911D02*
X134498270Y-18532911D01*
X134498270Y-18532911D02*
X134498270Y-21072911D01*
X116718270Y-21072911D02*
X116718270Y-18532911D01*
G36*
X121176702Y-27052271D02*
G01*
X120676702Y-27052271D01*
X120676702Y-26952271D01*
X121176702Y-26952271D01*
X121176702Y-27052271D01*
G37*
D10*
X121176702Y-27052271D02*
X120676702Y-27052271D01*
X120676702Y-26952271D01*
X121176702Y-26952271D01*
X121176702Y-27052271D01*
G36*
X120776702Y-27752271D02*
G01*
X120676702Y-27752271D01*
X120676702Y-27552271D01*
X120776702Y-27552271D01*
X120776702Y-27752271D01*
G37*
X120776702Y-27752271D02*
X120676702Y-27752271D01*
X120676702Y-27552271D01*
X120776702Y-27552271D01*
X120776702Y-27752271D01*
G36*
X121176702Y-27752271D02*
G01*
X121076702Y-27752271D01*
X121076702Y-26952271D01*
X121176702Y-26952271D01*
X121176702Y-27752271D01*
G37*
X121176702Y-27752271D02*
X121076702Y-27752271D01*
X121076702Y-26952271D01*
X121176702Y-26952271D01*
X121176702Y-27752271D01*
G36*
X120776702Y-27252271D02*
G01*
X120676702Y-27252271D01*
X120676702Y-26952271D01*
X120776702Y-26952271D01*
X120776702Y-27252271D01*
G37*
X120776702Y-27252271D02*
X120676702Y-27252271D01*
X120676702Y-26952271D01*
X120776702Y-26952271D01*
X120776702Y-27252271D01*
G36*
X120976702Y-27452271D02*
G01*
X120876702Y-27452271D01*
X120876702Y-27352271D01*
X120976702Y-27352271D01*
X120976702Y-27452271D01*
G37*
X120976702Y-27452271D02*
X120876702Y-27452271D01*
X120876702Y-27352271D01*
X120976702Y-27352271D01*
X120976702Y-27452271D01*
%TO.C,D5*%
X126731250Y-83270141D02*
X127239250Y-83270141D01*
X131684250Y-83270141D02*
X131684250Y-84794141D01*
X131557250Y-84794141D02*
X131557250Y-83270141D01*
X126731250Y-83270141D02*
X131811250Y-83270141D01*
X126731250Y-84794141D02*
X126731250Y-83270141D01*
X131303250Y-84794141D02*
X131303250Y-83270141D01*
X131049250Y-83270141D02*
X131049250Y-84794141D01*
X131430250Y-83270141D02*
X131430250Y-84794141D01*
X131176250Y-83270141D02*
X131176250Y-84794141D01*
X131811250Y-84794141D02*
X126731250Y-84794141D01*
X131811250Y-83270141D02*
X131811250Y-84794141D01*
%TD*%
D13*
%TO.C,D22*%
X154711250Y-129742141D03*
D14*
X146911250Y-129742141D03*
%TD*%
D13*
%TO.C,D4*%
X51401250Y-32592141D03*
D14*
X51401250Y-40392141D03*
%TD*%
D13*
%TO.C,D17*%
X104011250Y-27352141D03*
D14*
X104011250Y-35152141D03*
%TD*%
D13*
%TO.C,D19*%
X124601250Y-74122141D03*
D14*
X116801250Y-74122141D03*
%TD*%
D13*
%TO.C,D15*%
X126741250Y-76612141D03*
D14*
X118941250Y-76612141D03*
%TD*%
D13*
%TO.C,D3*%
X43371250Y-27352141D03*
D14*
X43371250Y-35152141D03*
%TD*%
D13*
%TO.C,D10*%
X81721250Y-32592141D03*
D14*
X81721250Y-40392141D03*
%TD*%
D13*
%TO.C,D16*%
X154751250Y-94862141D03*
D14*
X146951250Y-94862141D03*
%TD*%
D13*
%TO.C,D21*%
X154691250Y-115792141D03*
D14*
X146891250Y-115792141D03*
%TD*%
D13*
%TO.C,D20*%
X154781250Y-89662141D03*
D14*
X146981250Y-89662141D03*
%TD*%
D13*
%TO.C,D11*%
X128821250Y-79142141D03*
D14*
X121021250Y-79142141D03*
%TD*%
D13*
%TO.C,D13*%
X91551250Y-27352141D03*
D14*
X91551250Y-35152141D03*
%TD*%
D13*
%TO.C,D9*%
X74021250Y-27352141D03*
D14*
X74021250Y-35152141D03*
%TD*%
D13*
%TO.C,D8*%
X130981250Y-81592141D03*
D14*
X123181250Y-81592141D03*
%TD*%
D13*
%TO.C,D0*%
X29111250Y-27352141D03*
D14*
X29111250Y-35152141D03*
%TD*%
D13*
%TO.C,D18*%
X111891250Y-32742141D03*
D14*
X111891250Y-40542141D03*
%TD*%
D13*
%TO.C,D14*%
X97451250Y-32592141D03*
D14*
X97451250Y-40392141D03*
%TD*%
D13*
%TO.C,D2*%
X135201250Y-86482141D03*
D14*
X127401250Y-86482141D03*
%TD*%
D13*
%TO.C,D1*%
X35991250Y-32592141D03*
D14*
X35991250Y-40392141D03*
%TD*%
D13*
%TO.C,D12*%
X154651250Y-100002141D03*
D14*
X146851250Y-100002141D03*
%TD*%
D13*
%TO.C,D6*%
X58941250Y-27352141D03*
D14*
X58941250Y-35152141D03*
%TD*%
D13*
%TO.C,D7*%
X66801250Y-32592141D03*
D14*
X66801250Y-40392141D03*
%TD*%
D15*
%TO.C,MC-EC0*%
X133228270Y-22342911D03*
D16*
X133228270Y-24882911D03*
X133228270Y-27422911D03*
X133228270Y-29962911D03*
X133228270Y-32502911D03*
X133228270Y-35042911D03*
X133228270Y-37582911D03*
X133228270Y-40122911D03*
X133228270Y-42662911D03*
X133228270Y-45202911D03*
X133228270Y-47742911D03*
X132999670Y-50282911D03*
X117988270Y-50282911D03*
X117988270Y-47742911D03*
X117988270Y-45202911D03*
X117988270Y-42662911D03*
X117988270Y-40122911D03*
X117988270Y-37582911D03*
X117988270Y-35042911D03*
X117988270Y-32502911D03*
X117988270Y-29962911D03*
X117988270Y-27422911D03*
X117988270Y-24882911D03*
X117988270Y-22342911D03*
X130688270Y-50282911D03*
X128148270Y-50282911D03*
X125608270Y-50282911D03*
X123068270Y-50282911D03*
X120528270Y-50282911D03*
%TD*%
D13*
%TO.C,D5*%
X133171250Y-84032141D03*
D14*
X125371250Y-84032141D03*
%TD*%
%LPC*%
D17*
%TO.C,REF\u002A\u002A*%
X158798750Y-23158391D03*
%TD*%
D14*
%TO.C,R0*%
X144627500Y-40260891D03*
D18*
X144627500Y-25020891D03*
%TD*%
D17*
%TO.C,REF\u002A\u002A*%
X21480000Y-22999641D03*
%TD*%
D19*
%TO.C,J0*%
X159302500Y-34147141D03*
X152302500Y-29547141D03*
X159302500Y-29547141D03*
X152302500Y-34147141D03*
D20*
X149602500Y-27247141D03*
X149602500Y-36447141D03*
X150702500Y-31847141D03*
X154702500Y-31847141D03*
X157702500Y-31847141D03*
%TD*%
D17*
%TO.C,REF\u002A\u002A*%
X158798750Y-136505891D03*
%TD*%
D21*
%TO.C,MX19*%
X102760000Y-79514641D03*
X112920000Y-79514641D03*
D22*
X107840000Y-79514641D03*
D23*
X105300000Y-74434641D03*
X104030000Y-76974641D03*
X111650000Y-76974641D03*
X110380000Y-74434641D03*
%TD*%
D21*
%TO.C,MX11*%
X82757500Y-79514641D03*
X72597500Y-79514641D03*
D22*
X77677500Y-79514641D03*
D23*
X73867500Y-76974641D03*
X75137500Y-74434641D03*
X81487500Y-76974641D03*
X80217500Y-74434641D03*
%TD*%
D21*
%TO.C,MX20*%
X108316250Y-94595891D03*
D22*
X113396250Y-94595891D03*
D21*
X118476250Y-94595891D03*
D23*
X109586250Y-92055891D03*
X110856250Y-89515891D03*
X117206250Y-92055891D03*
X115936250Y-89515891D03*
%TD*%
D22*
%TO.C,MX12*%
X77677500Y-94595891D03*
D21*
X72597500Y-94595891D03*
X82757500Y-94595891D03*
D23*
X75137500Y-89515891D03*
X73867500Y-92055891D03*
X81487500Y-92055891D03*
X80217500Y-89515891D03*
%TD*%
D17*
%TO.C,REF\u002A\u002A*%
X66723750Y-105549641D03*
%TD*%
%TO.C,REF\u002A\u002A*%
X102442500Y-136505891D03*
%TD*%
D21*
%TO.C,MX18*%
X112920000Y-64433391D03*
D22*
X107840000Y-64433391D03*
D21*
X102760000Y-64433391D03*
D23*
X105300000Y-59353391D03*
X104030000Y-61893391D03*
X110380000Y-59353391D03*
X111650000Y-61893391D03*
%TD*%
D17*
%TO.C,REF\u002A\u002A*%
X55611250Y-57130891D03*
%TD*%
D21*
%TO.C,MX10*%
X72597500Y-64433391D03*
D22*
X77677500Y-64433391D03*
D21*
X82757500Y-64433391D03*
D23*
X75137500Y-59353391D03*
X73867500Y-61893391D03*
X80217500Y-59353391D03*
X81487500Y-61893391D03*
%TD*%
D21*
%TO.C,MX15*%
X87678750Y-79514641D03*
D22*
X92758750Y-79514641D03*
D21*
X97838750Y-79514641D03*
D23*
X90218750Y-74434641D03*
X88948750Y-76974641D03*
X96568750Y-76974641D03*
X95298750Y-74434641D03*
%TD*%
D22*
%TO.C,MX7*%
X62596250Y-64433391D03*
D21*
X67676250Y-64433391D03*
X57516250Y-64433391D03*
D23*
X60056250Y-59353391D03*
X58786250Y-61893391D03*
X66406250Y-61893391D03*
X65136250Y-59353391D03*
%TD*%
D21*
%TO.C,MX3*%
X42435000Y-49352141D03*
X52595000Y-49352141D03*
D22*
X47515000Y-49352141D03*
D23*
X44975000Y-44272141D03*
X43705000Y-46812141D03*
X51325000Y-46812141D03*
X50055000Y-44272141D03*
%TD*%
D22*
%TO.C,MX14*%
X92758750Y-64433391D03*
D21*
X97838750Y-64433391D03*
X87678750Y-64433391D03*
D23*
X90218750Y-59353391D03*
X88948750Y-61893391D03*
X95298750Y-59353391D03*
X96568750Y-61893391D03*
%TD*%
D17*
%TO.C,REF\u002A\u002A*%
X100061250Y-57130891D03*
%TD*%
%TO.C,REF\u002A\u002A*%
X21480000Y-90468391D03*
%TD*%
D22*
%TO.C,MX0*%
X32433750Y-49352141D03*
D21*
X27353750Y-49352141D03*
X37513750Y-49352141D03*
D23*
X28623750Y-46812141D03*
X29893750Y-44272141D03*
X34973750Y-44272141D03*
X36243750Y-46812141D03*
%TD*%
D22*
%TO.C,MX8*%
X62596250Y-79514641D03*
D21*
X67676250Y-79514641D03*
X57516250Y-79514641D03*
D23*
X60056250Y-74434641D03*
X58786250Y-76974641D03*
X66406250Y-76974641D03*
X65136250Y-74434641D03*
%TD*%
D17*
%TO.C,REF\u002A\u002A*%
X70692500Y-72212141D03*
%TD*%
D21*
%TO.C,MX22*%
X118476250Y-124758391D03*
D22*
X113396250Y-124758391D03*
D21*
X108316250Y-124758391D03*
D23*
X109586250Y-122218391D03*
X110856250Y-119678391D03*
X115936250Y-119678391D03*
X117206250Y-122218391D03*
%TD*%
D14*
%TO.C,R1*%
X140577500Y-40260891D03*
D18*
X140577500Y-25020891D03*
%TD*%
D21*
%TO.C,MX16*%
X87678750Y-94595891D03*
D22*
X92758750Y-94595891D03*
D21*
X97838750Y-94595891D03*
D23*
X90218750Y-89515891D03*
X88948750Y-92055891D03*
X95298750Y-89515891D03*
X96568750Y-92055891D03*
%TD*%
D17*
%TO.C,REF\u002A\u002A*%
X103236250Y-94437141D03*
%TD*%
D21*
%TO.C,MX13*%
X87678750Y-49352141D03*
X97838750Y-49352141D03*
D22*
X92758750Y-49352141D03*
D23*
X88948750Y-46812141D03*
X90218750Y-44272141D03*
X95298750Y-44272141D03*
X96568750Y-46812141D03*
%TD*%
D21*
%TO.C,MX21*%
X108316250Y-109677141D03*
D22*
X113396250Y-109677141D03*
D21*
X118476250Y-109677141D03*
D23*
X109586250Y-107137141D03*
X110856250Y-104597141D03*
X117206250Y-107137141D03*
X115936250Y-104597141D03*
%TD*%
D21*
%TO.C,MX17*%
X112920000Y-49352141D03*
X102760000Y-49352141D03*
D22*
X107840000Y-49352141D03*
D23*
X105300000Y-44272141D03*
X104030000Y-46812141D03*
X110380000Y-44272141D03*
X111650000Y-46812141D03*
%TD*%
D21*
%TO.C,MX6*%
X57516250Y-49352141D03*
X67676250Y-49352141D03*
D22*
X62596250Y-49352141D03*
D23*
X60056250Y-44272141D03*
X58786250Y-46812141D03*
X65136250Y-44272141D03*
X66406250Y-46812141D03*
%TD*%
D21*
%TO.C,MX4*%
X52595000Y-64433391D03*
X42435000Y-64433391D03*
D22*
X47515000Y-64433391D03*
D23*
X44975000Y-59353391D03*
X43705000Y-61893391D03*
X50055000Y-59353391D03*
X51325000Y-61893391D03*
%TD*%
D21*
%TO.C,MX2*%
X37513750Y-79514641D03*
D22*
X32433750Y-79514641D03*
D21*
X27353750Y-79514641D03*
D23*
X28623750Y-76974641D03*
X29893750Y-74434641D03*
X36243750Y-76974641D03*
X34973750Y-74434641D03*
%TD*%
D22*
%TO.C,MX9*%
X77677500Y-49352141D03*
D21*
X72597500Y-49352141D03*
X82757500Y-49352141D03*
D23*
X73867500Y-46812141D03*
X75137500Y-44272141D03*
X81487500Y-46812141D03*
X80217500Y-44272141D03*
%TD*%
D22*
%TO.C,MX5*%
X47515000Y-79514641D03*
D21*
X52595000Y-79514641D03*
X42435000Y-79514641D03*
D23*
X44975000Y-74434641D03*
X43705000Y-76974641D03*
X51325000Y-76974641D03*
X50055000Y-74434641D03*
%TD*%
D22*
%TO.C,MX1*%
X32433750Y-64433391D03*
D21*
X27353750Y-64433391D03*
X37513750Y-64433391D03*
D23*
X28623750Y-61893391D03*
X29893750Y-59353391D03*
X36243750Y-61893391D03*
X34973750Y-59353391D03*
%TD*%
D13*
%TO.C,D22*%
X154711250Y-129742141D03*
D24*
X152211250Y-129742141D03*
D14*
X146911250Y-129742141D03*
D24*
X149411250Y-129742141D03*
%TD*%
D13*
%TO.C,D4*%
X51401250Y-32592141D03*
D25*
X51401250Y-35092141D03*
D14*
X51401250Y-40392141D03*
D25*
X51401250Y-37892141D03*
%TD*%
D13*
%TO.C,D17*%
X104011250Y-27352141D03*
D25*
X104011250Y-29852141D03*
X104011250Y-32652141D03*
D14*
X104011250Y-35152141D03*
%TD*%
D24*
%TO.C,D19*%
X122101250Y-74122141D03*
D13*
X124601250Y-74122141D03*
D14*
X116801250Y-74122141D03*
D24*
X119301250Y-74122141D03*
%TD*%
D13*
%TO.C,D15*%
X126741250Y-76612141D03*
D24*
X124241250Y-76612141D03*
D14*
X118941250Y-76612141D03*
D24*
X121441250Y-76612141D03*
%TD*%
D25*
%TO.C,D3*%
X43371250Y-29852141D03*
D13*
X43371250Y-27352141D03*
D14*
X43371250Y-35152141D03*
D25*
X43371250Y-32652141D03*
%TD*%
%TO.C,D10*%
X81721250Y-35092141D03*
D13*
X81721250Y-32592141D03*
D25*
X81721250Y-37892141D03*
D14*
X81721250Y-40392141D03*
%TD*%
D13*
%TO.C,D16*%
X154751250Y-94862141D03*
D24*
X152251250Y-94862141D03*
X149451250Y-94862141D03*
D14*
X146951250Y-94862141D03*
%TD*%
D13*
%TO.C,D21*%
X154691250Y-115792141D03*
D24*
X152191250Y-115792141D03*
X149391250Y-115792141D03*
D14*
X146891250Y-115792141D03*
%TD*%
D13*
%TO.C,D20*%
X154781250Y-89662141D03*
D24*
X152281250Y-89662141D03*
X149481250Y-89662141D03*
D14*
X146981250Y-89662141D03*
%TD*%
D13*
%TO.C,D11*%
X128821250Y-79142141D03*
D24*
X126321250Y-79142141D03*
X123521250Y-79142141D03*
D14*
X121021250Y-79142141D03*
%TD*%
D25*
%TO.C,D13*%
X91551250Y-29852141D03*
D13*
X91551250Y-27352141D03*
D14*
X91551250Y-35152141D03*
D25*
X91551250Y-32652141D03*
%TD*%
D13*
%TO.C,D9*%
X74021250Y-27352141D03*
D25*
X74021250Y-29852141D03*
D14*
X74021250Y-35152141D03*
D25*
X74021250Y-32652141D03*
%TD*%
D13*
%TO.C,D8*%
X130981250Y-81592141D03*
D24*
X128481250Y-81592141D03*
D14*
X123181250Y-81592141D03*
D24*
X125681250Y-81592141D03*
%TD*%
D13*
%TO.C,D0*%
X29111250Y-27352141D03*
D25*
X29111250Y-29852141D03*
D14*
X29111250Y-35152141D03*
D25*
X29111250Y-32652141D03*
%TD*%
%TO.C,D18*%
X111891250Y-35242141D03*
D13*
X111891250Y-32742141D03*
D25*
X111891250Y-38042141D03*
D14*
X111891250Y-40542141D03*
%TD*%
D13*
%TO.C,D14*%
X97451250Y-32592141D03*
D25*
X97451250Y-35092141D03*
D14*
X97451250Y-40392141D03*
D25*
X97451250Y-37892141D03*
%TD*%
D13*
%TO.C,D2*%
X135201250Y-86482141D03*
D24*
X132701250Y-86482141D03*
X129901250Y-86482141D03*
D14*
X127401250Y-86482141D03*
%TD*%
D25*
%TO.C,D1*%
X35991250Y-35092141D03*
D13*
X35991250Y-32592141D03*
D14*
X35991250Y-40392141D03*
D25*
X35991250Y-37892141D03*
%TD*%
D24*
%TO.C,D12*%
X152151250Y-100002141D03*
D13*
X154651250Y-100002141D03*
D24*
X149351250Y-100002141D03*
D14*
X146851250Y-100002141D03*
%TD*%
D13*
%TO.C,D6*%
X58941250Y-27352141D03*
D25*
X58941250Y-29852141D03*
D14*
X58941250Y-35152141D03*
D25*
X58941250Y-32652141D03*
%TD*%
D13*
%TO.C,D7*%
X66801250Y-32592141D03*
D25*
X66801250Y-35092141D03*
D14*
X66801250Y-40392141D03*
D25*
X66801250Y-37892141D03*
%TD*%
D26*
%TO.C,MC-EC0*%
X135006270Y-22342911D03*
D15*
X133228270Y-22342911D03*
D26*
X135006270Y-24882911D03*
D16*
X133228270Y-24882911D03*
D26*
X135006270Y-27422911D03*
D16*
X133228270Y-27422911D03*
X133228270Y-29962911D03*
D26*
X135006270Y-29962911D03*
D16*
X133228270Y-32502911D03*
D26*
X135006270Y-32502911D03*
D16*
X133228270Y-35042911D03*
D26*
X135006270Y-35042911D03*
D16*
X133228270Y-37582911D03*
D26*
X135006270Y-37582911D03*
X135006270Y-40122911D03*
D16*
X133228270Y-40122911D03*
D26*
X135006270Y-42662911D03*
D16*
X133228270Y-42662911D03*
X133228270Y-45202911D03*
D26*
X135006270Y-45202911D03*
D16*
X133228270Y-47742911D03*
D26*
X135006270Y-47742911D03*
X135006270Y-50282911D03*
D16*
X132999670Y-50282911D03*
X117988270Y-50282911D03*
D26*
X116210270Y-50282911D03*
X116210270Y-47742911D03*
D16*
X117988270Y-47742911D03*
D26*
X116210270Y-45202911D03*
D16*
X117988270Y-45202911D03*
D26*
X116210270Y-42662911D03*
D16*
X117988270Y-42662911D03*
D26*
X116210270Y-40122911D03*
D16*
X117988270Y-40122911D03*
X117988270Y-37582911D03*
D26*
X116210270Y-37582911D03*
X116210270Y-35042911D03*
D16*
X117988270Y-35042911D03*
D26*
X116210270Y-32502911D03*
D16*
X117988270Y-32502911D03*
X117988270Y-29962911D03*
D26*
X116210270Y-29962911D03*
D16*
X117988270Y-27422911D03*
D26*
X116210270Y-27422911D03*
X116210270Y-24882911D03*
D16*
X117988270Y-24882911D03*
D26*
X116210270Y-22342911D03*
D16*
X117988270Y-22342911D03*
X130688270Y-50282911D03*
D27*
X130688270Y-52187911D03*
D16*
X128148270Y-50282911D03*
D27*
X128148270Y-52187911D03*
X125608270Y-52187911D03*
D16*
X125608270Y-50282911D03*
D27*
X123068270Y-52187911D03*
D16*
X123068270Y-50282911D03*
D27*
X120528270Y-52187911D03*
D16*
X120528270Y-50282911D03*
%TD*%
D13*
%TO.C,D5*%
X133171250Y-84032141D03*
D24*
X130671250Y-84032141D03*
D14*
X125371250Y-84032141D03*
D24*
X127871250Y-84032141D03*
%TD*%
M02*
