%TF.GenerationSoftware,KiCad,Pcbnew,(6.0.5)*%
%TF.CreationDate,2022-05-16T23:14:11-04:00*%
%TF.ProjectId,keybert,6b657962-6572-4742-9e6b-696361645f70,0.0.1a*%
%TF.SameCoordinates,Original*%
%TF.FileFunction,Copper,L1,Top*%
%TF.FilePolarity,Positive*%
%FSLAX46Y46*%
G04 Gerber Fmt 4.6, Leading zero omitted, Abs format (unit mm)*
G04 Created by KiCad (PCBNEW (6.0.5)) date 2022-05-16 23:14:11*
%MOMM*%
%LPD*%
G01*
G04 APERTURE LIST*
%TA.AperFunction,ComponentPad*%
%ADD10C,1.600000*%
%TD*%
%TA.AperFunction,ComponentPad*%
%ADD11O,1.600000X1.600000*%
%TD*%
%TA.AperFunction,ComponentPad*%
%ADD12O,2.200000X1.600000*%
%TD*%
%TA.AperFunction,ComponentPad*%
%ADD13C,2.286000*%
%TD*%
%TA.AperFunction,SMDPad,CuDef*%
%ADD14R,2.900000X0.500000*%
%TD*%
%TA.AperFunction,ComponentPad*%
%ADD15R,1.600000X1.600000*%
%TD*%
%TA.AperFunction,SMDPad,CuDef*%
%ADD16R,1.600000X1.200000*%
%TD*%
%TA.AperFunction,SMDPad,CuDef*%
%ADD17R,1.200000X1.600000*%
%TD*%
%TA.AperFunction,SMDPad,CuDef*%
%ADD18R,0.500000X2.900000*%
%TD*%
%TA.AperFunction,ComponentPad*%
%ADD19R,1.752600X1.752600*%
%TD*%
%TA.AperFunction,ComponentPad*%
%ADD20C,1.752600*%
%TD*%
%TA.AperFunction,Conductor*%
%ADD21C,0.250000*%
%TD*%
%TA.AperFunction,Conductor*%
%ADD22C,0.381000*%
%TD*%
G04 APERTURE END LIST*
D10*
%TO.P,R0,1*%
%TO.N,SDA*%
X144627500Y-40260891D03*
D11*
%TO.P,R0,2*%
%TO.N,VCC*%
X144627500Y-25020891D03*
%TD*%
D12*
%TO.P,J0,1,SLEEVE*%
%TO.N,GND*%
X149602500Y-27247141D03*
X149602500Y-36447141D03*
%TO.P,J0,2,TIP*%
%TO.N,VCC*%
X150702500Y-31847141D03*
%TO.P,J0,3,RING1*%
%TO.N,SCL*%
X154702500Y-31847141D03*
%TO.P,J0,4,RING2*%
%TO.N,SDA*%
X157702500Y-31847141D03*
%TD*%
D13*
%TO.P,MX19,1,COL*%
%TO.N,col5*%
X105300000Y-74434641D03*
X104030000Y-76974641D03*
%TO.P,MX19,2,ROW*%
%TO.N,Net-(D19-Pad2)*%
X111650000Y-76974641D03*
X110380000Y-74434641D03*
%TD*%
%TO.P,MX11,1,COL*%
%TO.N,col3*%
X73867500Y-76974641D03*
X75137500Y-74434641D03*
%TO.P,MX11,2,ROW*%
%TO.N,Net-(D11-Pad2)*%
X81487500Y-76974641D03*
X80217500Y-74434641D03*
%TD*%
%TO.P,MX20,1,COL*%
%TO.N,col3*%
X109586250Y-92055891D03*
X110856250Y-89515891D03*
%TO.P,MX20,2,ROW*%
%TO.N,Net-(D20-Pad2)*%
X117206250Y-92055891D03*
X115936250Y-89515891D03*
%TD*%
%TO.P,MX12,1,COL*%
%TO.N,col1*%
X75137500Y-89515891D03*
X73867500Y-92055891D03*
%TO.P,MX12,2,ROW*%
%TO.N,Net-(D12-Pad2)*%
X81487500Y-92055891D03*
X80217500Y-89515891D03*
%TD*%
%TO.P,MX18,1,COL*%
%TO.N,col5*%
X105300000Y-59353391D03*
X104030000Y-61893391D03*
%TO.P,MX18,2,ROW*%
%TO.N,Net-(D18-Pad2)*%
X110380000Y-59353391D03*
X111650000Y-61893391D03*
%TD*%
%TO.P,MX10,1,COL*%
%TO.N,col3*%
X75137500Y-59353391D03*
X73867500Y-61893391D03*
%TO.P,MX10,2,ROW*%
%TO.N,Net-(D10-Pad2)*%
X80217500Y-59353391D03*
X81487500Y-61893391D03*
%TD*%
%TO.P,MX15,1,COL*%
%TO.N,col4*%
X90218750Y-74434641D03*
X88948750Y-76974641D03*
%TO.P,MX15,2,ROW*%
%TO.N,Net-(D15-Pad2)*%
X96568750Y-76974641D03*
X95298750Y-74434641D03*
%TD*%
%TO.P,MX7,1,COL*%
%TO.N,col2*%
X60056250Y-59353391D03*
X58786250Y-61893391D03*
%TO.P,MX7,2,ROW*%
%TO.N,Net-(D7-Pad2)*%
X66406250Y-61893391D03*
X65136250Y-59353391D03*
%TD*%
%TO.P,MX3,1,COL*%
%TO.N,col1*%
X44975000Y-44272141D03*
X43705000Y-46812141D03*
%TO.P,MX3,2,ROW*%
%TO.N,Net-(D3-Pad2)*%
X51325000Y-46812141D03*
X50055000Y-44272141D03*
%TD*%
%TO.P,MX14,1,COL*%
%TO.N,col4*%
X90218750Y-59353391D03*
X88948750Y-61893391D03*
%TO.P,MX14,2,ROW*%
%TO.N,Net-(D14-Pad2)*%
X95298750Y-59353391D03*
X96568750Y-61893391D03*
%TD*%
%TO.P,MX0,1,COL*%
%TO.N,col0*%
X28623750Y-46812141D03*
X29893750Y-44272141D03*
%TO.P,MX0,2,ROW*%
%TO.N,Net-(D0-Pad2)*%
X34973750Y-44272141D03*
X36243750Y-46812141D03*
%TD*%
%TO.P,MX8,1,COL*%
%TO.N,col2*%
X60056250Y-74434641D03*
X58786250Y-76974641D03*
%TO.P,MX8,2,ROW*%
%TO.N,Net-(D8-Pad2)*%
X66406250Y-76974641D03*
X65136250Y-74434641D03*
%TD*%
%TO.P,MX22,1,COL*%
%TO.N,col5*%
X109586250Y-122218391D03*
X110856250Y-119678391D03*
%TO.P,MX22,2,ROW*%
%TO.N,Net-(D22-Pad2)*%
X115936250Y-119678391D03*
X117206250Y-122218391D03*
%TD*%
D10*
%TO.P,R1,1*%
%TO.N,SCL*%
X140577500Y-40260891D03*
D11*
%TO.P,R1,2*%
%TO.N,VCC*%
X140577500Y-25020891D03*
%TD*%
D13*
%TO.P,MX16,1,COL*%
%TO.N,col2*%
X90218750Y-89515891D03*
X88948750Y-92055891D03*
%TO.P,MX16,2,ROW*%
%TO.N,Net-(D16-Pad2)*%
X95298750Y-89515891D03*
X96568750Y-92055891D03*
%TD*%
%TO.P,MX13,1,COL*%
%TO.N,col4*%
X88948750Y-46812141D03*
X90218750Y-44272141D03*
%TO.P,MX13,2,ROW*%
%TO.N,Net-(D13-Pad2)*%
X95298750Y-44272141D03*
X96568750Y-46812141D03*
%TD*%
%TO.P,MX21,1,COL*%
%TO.N,col4*%
X109586250Y-107137141D03*
X110856250Y-104597141D03*
%TO.P,MX21,2,ROW*%
%TO.N,Net-(D21-Pad2)*%
X117206250Y-107137141D03*
X115936250Y-104597141D03*
%TD*%
%TO.P,MX17,1,COL*%
%TO.N,col5*%
X105300000Y-44272141D03*
X104030000Y-46812141D03*
%TO.P,MX17,2,ROW*%
%TO.N,Net-(D17-Pad2)*%
X110380000Y-44272141D03*
X111650000Y-46812141D03*
%TD*%
%TO.P,MX6,1,COL*%
%TO.N,col2*%
X60056250Y-44272141D03*
X58786250Y-46812141D03*
%TO.P,MX6,2,ROW*%
%TO.N,Net-(D6-Pad2)*%
X65136250Y-44272141D03*
X66406250Y-46812141D03*
%TD*%
%TO.P,MX4,1,COL*%
%TO.N,col1*%
X44975000Y-59353391D03*
X43705000Y-61893391D03*
%TO.P,MX4,2,ROW*%
%TO.N,Net-(D4-Pad2)*%
X50055000Y-59353391D03*
X51325000Y-61893391D03*
%TD*%
%TO.P,MX2,1,COL*%
%TO.N,col0*%
X28623750Y-76974641D03*
X29893750Y-74434641D03*
%TO.P,MX2,2,ROW*%
%TO.N,Net-(D2-Pad2)*%
X36243750Y-76974641D03*
X34973750Y-74434641D03*
%TD*%
%TO.P,MX9,1,COL*%
%TO.N,col3*%
X73867500Y-46812141D03*
X75137500Y-44272141D03*
%TO.P,MX9,2,ROW*%
%TO.N,Net-(D9-Pad2)*%
X81487500Y-46812141D03*
X80217500Y-44272141D03*
%TD*%
%TO.P,MX5,1,COL*%
%TO.N,col1*%
X44975000Y-74434641D03*
X43705000Y-76974641D03*
%TO.P,MX5,2,ROW*%
%TO.N,Net-(D5-Pad2)*%
X51325000Y-76974641D03*
X50055000Y-74434641D03*
%TD*%
%TO.P,MX1,1,COL*%
%TO.N,col0*%
X28623750Y-61893391D03*
X29893750Y-59353391D03*
%TO.P,MX1,2,ROW*%
%TO.N,Net-(D1-Pad2)*%
X36243750Y-61893391D03*
X34973750Y-59353391D03*
%TD*%
D14*
%TO.P,D22,1,K*%
%TO.N,clu0*%
X153311250Y-129742141D03*
D15*
X154711250Y-129742141D03*
D16*
X152211250Y-129742141D03*
D14*
%TO.P,D22,2,A*%
%TO.N,Net-(D22-Pad2)*%
X148311250Y-129742141D03*
D10*
X146911250Y-129742141D03*
D16*
X149411250Y-129742141D03*
%TD*%
D17*
%TO.P,D4,1,K*%
%TO.N,row1*%
X51401250Y-35092141D03*
D15*
X51401250Y-32592141D03*
D18*
X51401250Y-33992141D03*
%TO.P,D4,2,A*%
%TO.N,Net-(D4-Pad2)*%
X51401250Y-38992141D03*
D17*
X51401250Y-37892141D03*
D10*
X51401250Y-40392141D03*
%TD*%
D15*
%TO.P,D17,1,K*%
%TO.N,row0*%
X104011250Y-27352141D03*
D17*
X104011250Y-29852141D03*
D18*
X104011250Y-28752141D03*
%TO.P,D17,2,A*%
%TO.N,Net-(D17-Pad2)*%
X104011250Y-33752141D03*
D17*
X104011250Y-32652141D03*
D10*
X104011250Y-35152141D03*
%TD*%
D14*
%TO.P,D19,1,K*%
%TO.N,row2*%
X123201250Y-74122141D03*
D16*
X122101250Y-74122141D03*
D15*
X124601250Y-74122141D03*
D14*
%TO.P,D19,2,A*%
%TO.N,Net-(D19-Pad2)*%
X118201250Y-74122141D03*
D16*
X119301250Y-74122141D03*
D10*
X116801250Y-74122141D03*
%TD*%
D15*
%TO.P,D15,1,K*%
%TO.N,row2*%
X126741250Y-76612141D03*
D16*
X124241250Y-76612141D03*
D14*
X125341250Y-76612141D03*
D10*
%TO.P,D15,2,A*%
%TO.N,Net-(D15-Pad2)*%
X118941250Y-76612141D03*
D14*
X120341250Y-76612141D03*
D16*
X121441250Y-76612141D03*
%TD*%
D18*
%TO.P,D3,1,K*%
%TO.N,row0*%
X43371250Y-28752141D03*
D15*
X43371250Y-27352141D03*
D17*
X43371250Y-29852141D03*
D10*
%TO.P,D3,2,A*%
%TO.N,Net-(D3-Pad2)*%
X43371250Y-35152141D03*
D18*
X43371250Y-33752141D03*
D17*
X43371250Y-32652141D03*
%TD*%
%TO.P,D10,1,K*%
%TO.N,row1*%
X81721250Y-35092141D03*
D18*
X81721250Y-33992141D03*
D15*
X81721250Y-32592141D03*
D10*
%TO.P,D10,2,A*%
%TO.N,Net-(D10-Pad2)*%
X81721250Y-40392141D03*
D18*
X81721250Y-38992141D03*
D17*
X81721250Y-37892141D03*
%TD*%
D14*
%TO.P,D16,1,K*%
%TO.N,clu0*%
X153351250Y-94862141D03*
D16*
X152251250Y-94862141D03*
D15*
X154751250Y-94862141D03*
D14*
%TO.P,D16,2,A*%
%TO.N,Net-(D16-Pad2)*%
X148351250Y-94862141D03*
D16*
X149451250Y-94862141D03*
D10*
X146951250Y-94862141D03*
%TD*%
D14*
%TO.P,D21,1,K*%
%TO.N,clu0*%
X153291250Y-115792141D03*
D15*
X154691250Y-115792141D03*
D16*
X152191250Y-115792141D03*
%TO.P,D21,2,A*%
%TO.N,Net-(D21-Pad2)*%
X149391250Y-115792141D03*
D14*
X148291250Y-115792141D03*
D10*
X146891250Y-115792141D03*
%TD*%
D15*
%TO.P,D20,1,K*%
%TO.N,clu0*%
X154781250Y-89662141D03*
D14*
X153381250Y-89662141D03*
D16*
X152281250Y-89662141D03*
%TO.P,D20,2,A*%
%TO.N,Net-(D20-Pad2)*%
X149481250Y-89662141D03*
D14*
X148381250Y-89662141D03*
D10*
X146981250Y-89662141D03*
%TD*%
D15*
%TO.P,D11,1,K*%
%TO.N,row2*%
X128821250Y-79142141D03*
D16*
X126321250Y-79142141D03*
D14*
X127421250Y-79142141D03*
%TO.P,D11,2,A*%
%TO.N,Net-(D11-Pad2)*%
X122421250Y-79142141D03*
D16*
X123521250Y-79142141D03*
D10*
X121021250Y-79142141D03*
%TD*%
D17*
%TO.P,D13,1,K*%
%TO.N,row0*%
X91551250Y-29852141D03*
D18*
X91551250Y-28752141D03*
D15*
X91551250Y-27352141D03*
D17*
%TO.P,D13,2,A*%
%TO.N,Net-(D13-Pad2)*%
X91551250Y-32652141D03*
D18*
X91551250Y-33752141D03*
D10*
X91551250Y-35152141D03*
%TD*%
D17*
%TO.P,D9,1,K*%
%TO.N,row0*%
X74021250Y-29852141D03*
D15*
X74021250Y-27352141D03*
D18*
X74021250Y-28752141D03*
%TO.P,D9,2,A*%
%TO.N,Net-(D9-Pad2)*%
X74021250Y-33752141D03*
D10*
X74021250Y-35152141D03*
D17*
X74021250Y-32652141D03*
%TD*%
D15*
%TO.P,D8,1,K*%
%TO.N,row2*%
X130981250Y-81592141D03*
D14*
X129581250Y-81592141D03*
D16*
X128481250Y-81592141D03*
D10*
%TO.P,D8,2,A*%
%TO.N,Net-(D8-Pad2)*%
X123181250Y-81592141D03*
D16*
X125681250Y-81592141D03*
D14*
X124581250Y-81592141D03*
%TD*%
D17*
%TO.P,D0,1,K*%
%TO.N,row0*%
X29111250Y-29852141D03*
D18*
X29111250Y-28752141D03*
D15*
X29111250Y-27352141D03*
D10*
%TO.P,D0,2,A*%
%TO.N,Net-(D0-Pad2)*%
X29111250Y-35152141D03*
D17*
X29111250Y-32652141D03*
D18*
X29111250Y-33752141D03*
%TD*%
D15*
%TO.P,D18,1,K*%
%TO.N,row1*%
X111891250Y-32742141D03*
D17*
X111891250Y-35242141D03*
D18*
X111891250Y-34142141D03*
D17*
%TO.P,D18,2,A*%
%TO.N,Net-(D18-Pad2)*%
X111891250Y-38042141D03*
D18*
X111891250Y-39142141D03*
D10*
X111891250Y-40542141D03*
%TD*%
D15*
%TO.P,D14,1,K*%
%TO.N,row1*%
X97451250Y-32592141D03*
D18*
X97451250Y-33992141D03*
D17*
X97451250Y-35092141D03*
D10*
%TO.P,D14,2,A*%
%TO.N,Net-(D14-Pad2)*%
X97451250Y-40392141D03*
D18*
X97451250Y-38992141D03*
D17*
X97451250Y-37892141D03*
%TD*%
D15*
%TO.P,D2,1,K*%
%TO.N,row2*%
X135201250Y-86482141D03*
D14*
X133801250Y-86482141D03*
D16*
X132701250Y-86482141D03*
D10*
%TO.P,D2,2,A*%
%TO.N,Net-(D2-Pad2)*%
X127401250Y-86482141D03*
D14*
X128801250Y-86482141D03*
D16*
X129901250Y-86482141D03*
%TD*%
D17*
%TO.P,D1,1,K*%
%TO.N,row1*%
X35991250Y-35092141D03*
D15*
X35991250Y-32592141D03*
D18*
X35991250Y-33992141D03*
D10*
%TO.P,D1,2,A*%
%TO.N,Net-(D1-Pad2)*%
X35991250Y-40392141D03*
D17*
X35991250Y-37892141D03*
D18*
X35991250Y-38992141D03*
%TD*%
D14*
%TO.P,D12,1,K*%
%TO.N,clu0*%
X153251250Y-100002141D03*
D16*
X152151250Y-100002141D03*
D15*
X154651250Y-100002141D03*
D14*
%TO.P,D12,2,A*%
%TO.N,Net-(D12-Pad2)*%
X148251250Y-100002141D03*
D16*
X149351250Y-100002141D03*
D10*
X146851250Y-100002141D03*
%TD*%
D18*
%TO.P,D6,1,K*%
%TO.N,row0*%
X58941250Y-28752141D03*
D15*
X58941250Y-27352141D03*
D17*
X58941250Y-29852141D03*
%TO.P,D6,2,A*%
%TO.N,Net-(D6-Pad2)*%
X58941250Y-32652141D03*
D10*
X58941250Y-35152141D03*
D18*
X58941250Y-33752141D03*
%TD*%
D15*
%TO.P,D7,1,K*%
%TO.N,row1*%
X66801250Y-32592141D03*
D17*
X66801250Y-35092141D03*
D18*
X66801250Y-33992141D03*
D10*
%TO.P,D7,2,A*%
%TO.N,Net-(D7-Pad2)*%
X66801250Y-40392141D03*
D18*
X66801250Y-38992141D03*
D17*
X66801250Y-37892141D03*
%TD*%
D19*
%TO.P,MC-EC0,1,TX0/PD3*%
%TO.N,col0*%
X133228270Y-22342911D03*
D20*
%TO.P,MC-EC0,2,RX1/PD2*%
%TO.N,unconnected-(MC-EC0-Pad2)*%
X133228270Y-24882911D03*
%TO.P,MC-EC0,3,GND*%
%TO.N,GND*%
X133228270Y-27422911D03*
%TO.P,MC-EC0,4,GND*%
X133228270Y-29962911D03*
%TO.P,MC-EC0,5,2/PD1*%
%TO.N,SDA*%
X133228270Y-32502911D03*
%TO.P,MC-EC0,6,3/PD0*%
%TO.N,SCL*%
X133228270Y-35042911D03*
%TO.P,MC-EC0,7,4/PD4*%
%TO.N,col5*%
X133228270Y-37582911D03*
%TO.P,MC-EC0,8,5/PC6*%
%TO.N,clu0*%
X133228270Y-40122911D03*
%TO.P,MC-EC0,9,6/PD7*%
%TO.N,unconnected-(MC-EC0-Pad9)*%
X133228270Y-42662911D03*
%TO.P,MC-EC0,10,7/PE6*%
%TO.N,unconnected-(MC-EC0-Pad10)*%
X133228270Y-45202911D03*
%TO.P,MC-EC0,11,8/PB4*%
%TO.N,row2*%
X133228270Y-47742911D03*
%TO.P,MC-EC0,12,9/PB5*%
%TO.N,unconnected-(MC-EC0-Pad12)*%
X132999670Y-50282911D03*
%TO.P,MC-EC0,13,10/PB6*%
%TO.N,unconnected-(MC-EC0-Pad13)*%
X117988270Y-50282911D03*
%TO.P,MC-EC0,14,16/PB2*%
%TO.N,col3*%
X117988270Y-47742911D03*
%TO.P,MC-EC0,15,14/PB3*%
%TO.N,unconnected-(MC-EC0-Pad15)*%
X117988270Y-45202911D03*
%TO.P,MC-EC0,16,15/PB1*%
%TO.N,col2*%
X117988270Y-42662911D03*
%TO.P,MC-EC0,17,A0/PF7*%
%TO.N,col1*%
X117988270Y-40122911D03*
%TO.P,MC-EC0,18,A1/PF6*%
%TO.N,col4*%
X117988270Y-37582911D03*
%TO.P,MC-EC0,19,A2/PF5*%
%TO.N,row1*%
X117988270Y-35042911D03*
%TO.P,MC-EC0,20,A3/PF4*%
%TO.N,row0*%
X117988270Y-32502911D03*
%TO.P,MC-EC0,21,VCC*%
%TO.N,VCC*%
X117988270Y-29962911D03*
%TO.P,MC-EC0,22,RST*%
%TO.N,unconnected-(MC-EC0-Pad22)*%
X117988270Y-27422911D03*
%TO.P,MC-EC0,23,GND*%
%TO.N,GND*%
X117988270Y-24882911D03*
%TO.P,MC-EC0,24,B0*%
%TO.N,unconnected-(MC-EC0-Pad24)*%
X117988270Y-22342911D03*
%TO.P,MC-EC0,25,B7*%
%TO.N,unconnected-(MC-EC0-Pad25)*%
X130688270Y-50282911D03*
%TO.P,MC-EC0,26,D5*%
%TO.N,unconnected-(MC-EC0-Pad26)*%
X128148270Y-50282911D03*
%TO.P,MC-EC0,27,C7*%
%TO.N,unconnected-(MC-EC0-Pad27)*%
X125608270Y-50282911D03*
%TO.P,MC-EC0,28,F1*%
%TO.N,unconnected-(MC-EC0-Pad28)*%
X123068270Y-50282911D03*
%TO.P,MC-EC0,29,F0*%
%TO.N,unconnected-(MC-EC0-Pad29)*%
X120528270Y-50282911D03*
%TD*%
D16*
%TO.P,D5,1,K*%
%TO.N,row2*%
X130671250Y-84032141D03*
D14*
X131771250Y-84032141D03*
D15*
X133171250Y-84032141D03*
D14*
%TO.P,D5,2,A*%
%TO.N,Net-(D5-Pad2)*%
X126771250Y-84032141D03*
D10*
X125371250Y-84032141D03*
D16*
X127871250Y-84032141D03*
%TD*%
D21*
%TO.N,row0*%
X116730000Y-34429641D02*
X119270000Y-34429641D01*
X29551250Y-27352141D02*
X43371250Y-27352141D01*
X109652500Y-27352141D02*
X116730000Y-34429641D01*
X104011250Y-27352141D02*
X109652500Y-27352141D01*
X43371250Y-27352141D02*
X104011250Y-27352141D01*
%TO.N,Net-(D0-Pad2)*%
X29111250Y-35152141D02*
X29111250Y-39679641D01*
X29111250Y-39679641D02*
X36243750Y-46812141D01*
%TO.N,row1*%
X97451250Y-32592141D02*
X98515761Y-31527630D01*
X65736739Y-31527630D02*
X66801250Y-32592141D01*
X111891250Y-35242141D02*
X115161250Y-35242141D01*
X51401250Y-32592141D02*
X52465761Y-31527630D01*
X82785761Y-31527630D02*
X96386739Y-31527630D01*
X96386739Y-31527630D02*
X97451250Y-32592141D01*
X52465761Y-31527630D02*
X65736739Y-31527630D01*
X81721250Y-32592141D02*
X82785761Y-31527630D01*
X98515761Y-31527630D02*
X110676739Y-31527630D01*
X50336739Y-31527630D02*
X51401250Y-32592141D01*
X37055761Y-31527630D02*
X50336739Y-31527630D01*
X116888750Y-36969641D02*
X119270000Y-36969641D01*
X35991250Y-32592141D02*
X37055761Y-31527630D01*
X80656739Y-31527630D02*
X81721250Y-32592141D01*
X66801250Y-32592141D02*
X67865761Y-31527630D01*
X110676739Y-31527630D02*
X111891250Y-32742141D01*
X115161250Y-35242141D02*
X116888750Y-36969641D01*
X67865761Y-31527630D02*
X80656739Y-31527630D01*
%TO.N,Net-(D1-Pad2)*%
X34973750Y-59353391D02*
X36243750Y-60623391D01*
X38739171Y-43140062D02*
X38739171Y-55587970D01*
X35991250Y-40392141D02*
X38739171Y-43140062D01*
X38739171Y-55587970D02*
X34973750Y-59353391D01*
X36243750Y-60623391D02*
X36243750Y-61893391D01*
%TO.N,row2*%
X125550811Y-73172580D02*
X125550811Y-71302580D01*
X139651250Y-51794641D02*
X137526250Y-49669641D01*
X139651250Y-57202141D02*
X139651250Y-51794641D01*
X124601250Y-74122141D02*
X125550811Y-73172580D01*
X125550811Y-71302580D02*
X139651250Y-57202141D01*
X135201250Y-86482141D02*
X135201250Y-84722141D01*
X135201250Y-84722141D02*
X124601250Y-74122141D01*
X137526250Y-49669641D02*
X134510000Y-49669641D01*
%TO.N,Net-(D2-Pad2)*%
X34973750Y-74434641D02*
X36243750Y-75704641D01*
X36243750Y-75704641D02*
X36243750Y-76974641D01*
%TO.N,Net-(D3-Pad2)*%
X43371250Y-38858391D02*
X51325000Y-46812141D01*
X43371250Y-35152141D02*
X43371250Y-38858391D01*
%TO.N,Net-(D4-Pad2)*%
X51325000Y-60623391D02*
X51325000Y-61893391D01*
X52631250Y-56777141D02*
X50055000Y-59353391D01*
X51401250Y-40392141D02*
X53820421Y-42811312D01*
X53820421Y-54702970D02*
X52631250Y-55892141D01*
X53820421Y-42811312D02*
X53820421Y-54702970D01*
X52631250Y-55892141D02*
X52631250Y-56777141D01*
X50055000Y-59353391D02*
X51325000Y-60623391D01*
%TO.N,Net-(D5-Pad2)*%
X51325000Y-75704641D02*
X51325000Y-76974641D01*
X50055000Y-74434641D02*
X51325000Y-75704641D01*
%TO.N,Net-(D6-Pad2)*%
X58941250Y-35152141D02*
X58941250Y-39347141D01*
X58941250Y-39347141D02*
X66406250Y-46812141D01*
%TO.N,Net-(D7-Pad2)*%
X66801250Y-40392141D02*
X68901671Y-42492562D01*
X68901671Y-55587970D02*
X65136250Y-59353391D01*
X65136250Y-59353391D02*
X66406250Y-60623391D01*
X68901671Y-42492562D02*
X68901671Y-55587970D01*
X66406250Y-60623391D02*
X66406250Y-61893391D01*
%TO.N,Net-(D8-Pad2)*%
X66406250Y-75704641D02*
X66406250Y-76974641D01*
X65136250Y-74434641D02*
X66406250Y-75704641D01*
%TO.N,Net-(D9-Pad2)*%
X74021250Y-39345891D02*
X81487500Y-46812141D01*
X74021250Y-35152141D02*
X74021250Y-39345891D01*
%TO.N,Net-(D10-Pad2)*%
X83982921Y-42653812D02*
X83982921Y-55587970D01*
X81487500Y-60623391D02*
X81487500Y-61893391D01*
X83982921Y-55587970D02*
X80217500Y-59353391D01*
X80217500Y-59353391D02*
X81487500Y-60623391D01*
X81721250Y-40392141D02*
X83982921Y-42653812D01*
%TO.N,Net-(D11-Pad2)*%
X80217500Y-74434641D02*
X81487500Y-75704641D01*
X81487500Y-75704641D02*
X81487500Y-76974641D01*
%TO.N,clu0*%
X137394230Y-42049641D02*
X134510000Y-42049641D01*
X154781250Y-89662141D02*
X154781250Y-62737859D01*
X154781250Y-62737859D02*
X138346730Y-46303338D01*
X138346730Y-46303338D02*
X138346730Y-43002141D01*
X154781250Y-89662141D02*
X154781250Y-129672141D01*
X138346730Y-43002141D02*
X137394230Y-42049641D01*
%TO.N,Net-(D12-Pad2)*%
X81487500Y-90785891D02*
X81487500Y-92055891D01*
X80217500Y-89515891D02*
X81487500Y-90785891D01*
%TO.N,Net-(D13-Pad2)*%
X91551250Y-41794641D02*
X96568750Y-46812141D01*
X91551250Y-35152141D02*
X91551250Y-41794641D01*
%TO.N,Net-(D14-Pad2)*%
X97451250Y-40392141D02*
X99064171Y-42005062D01*
X99064171Y-55587970D02*
X95298750Y-59353391D01*
X96568750Y-60623391D02*
X96568750Y-61893391D01*
X95298750Y-59353391D02*
X96568750Y-60623391D01*
X99064171Y-42005062D02*
X99064171Y-55587970D01*
%TO.N,Net-(D15-Pad2)*%
X96568750Y-75704641D02*
X96568750Y-76974641D01*
X95298750Y-74434641D02*
X96568750Y-75704641D01*
%TO.N,Net-(D16-Pad2)*%
X96568750Y-90785891D02*
X96568750Y-92055891D01*
X95298750Y-89515891D02*
X96568750Y-90785891D01*
%TO.N,Net-(D17-Pad2)*%
X104011250Y-39173391D02*
X111650000Y-46812141D01*
X104011250Y-35152141D02*
X104011250Y-39173391D01*
%TO.N,Net-(D18-Pad2)*%
X110380000Y-59353391D02*
X114145421Y-55587970D01*
X111650000Y-61893391D02*
X110380000Y-60623391D01*
X114145421Y-55587970D02*
X114145421Y-42796312D01*
X114145421Y-42796312D02*
X111891250Y-40542141D01*
X110380000Y-60623391D02*
X110380000Y-59353391D01*
%TO.N,Net-(D19-Pad2)*%
X110380000Y-74434641D02*
X111650000Y-75704641D01*
X111650000Y-75704641D02*
X111650000Y-76974641D01*
X114502500Y-74122141D02*
X116801250Y-74122141D01*
X111650000Y-76974641D02*
X114502500Y-74122141D01*
%TO.N,Net-(D20-Pad2)*%
X117206250Y-90785891D02*
X117206250Y-92055891D01*
X115936250Y-89515891D02*
X117206250Y-90785891D01*
X117206250Y-92055891D02*
X144587500Y-92055891D01*
X144587500Y-92055891D02*
X146981250Y-89662141D01*
%TO.N,Net-(D21-Pad2)*%
X118822696Y-107137141D02*
X127477696Y-115792141D01*
X117206250Y-107137141D02*
X118822696Y-107137141D01*
X127477696Y-115792141D02*
X146891250Y-115792141D01*
X117206250Y-105867141D02*
X117206250Y-107137141D01*
X115936250Y-104597141D02*
X117206250Y-105867141D01*
%TO.N,Net-(D22-Pad2)*%
X118822696Y-122218391D02*
X126346446Y-129742141D01*
X117206250Y-122218391D02*
X118822696Y-122218391D01*
X117206250Y-120948391D02*
X117206250Y-122218391D01*
X126346446Y-129742141D02*
X146911250Y-129742141D01*
X115936250Y-119678391D02*
X117206250Y-120948391D01*
%TO.N,col0*%
X28623750Y-46812141D02*
X28623750Y-58083391D01*
X115073311Y-23068830D02*
X115777500Y-22364641D01*
X30934561Y-23068830D02*
X115073311Y-23068830D01*
X27986739Y-26016652D02*
X30934561Y-23068830D01*
X28623750Y-60623391D02*
X28623750Y-61893391D01*
X28623750Y-61893391D02*
X28623750Y-73164641D01*
X28623750Y-58083391D02*
X29893750Y-59353391D01*
X28623750Y-73164641D02*
X29893750Y-74434641D01*
X28623750Y-45542141D02*
X28623750Y-46812141D01*
X115777500Y-22364641D02*
X132605000Y-22364641D01*
X27986739Y-42365130D02*
X27986739Y-26016652D01*
X29893750Y-44272141D02*
X27986739Y-42365130D01*
X29893750Y-44272141D02*
X28623750Y-45542141D01*
X28623750Y-75704641D02*
X28623750Y-76974641D01*
X132605000Y-22364641D02*
X134510000Y-24269641D01*
X29893750Y-59353391D02*
X28623750Y-60623391D01*
X29893750Y-74434641D02*
X28623750Y-75704641D01*
%TO.N,col1*%
X43705000Y-76974641D02*
X43705000Y-79054095D01*
X43705000Y-73164641D02*
X44975000Y-74434641D01*
X43705000Y-46812141D02*
X43705000Y-58083391D01*
X43705000Y-75704641D02*
X43705000Y-76974641D01*
X75137500Y-89515891D02*
X73867500Y-90785891D01*
X44975000Y-59353391D02*
X43705000Y-60623391D01*
X54166796Y-89515891D02*
X75137500Y-89515891D01*
X43705000Y-61893391D02*
X43705000Y-73164641D01*
X73867500Y-90785891D02*
X73867500Y-92055891D01*
X43705000Y-79054095D02*
X54166796Y-89515891D01*
X44975000Y-74434641D02*
X43705000Y-75704641D01*
X43705000Y-45542141D02*
X43705000Y-46812141D01*
X43705000Y-60623391D02*
X43705000Y-61893391D01*
X43705000Y-58083391D02*
X44975000Y-59353391D01*
X44975000Y-44272141D02*
X43705000Y-45542141D01*
%TO.N,col2*%
X58786250Y-45542141D02*
X58786250Y-46812141D01*
X88165000Y-87462141D02*
X90218750Y-89515891D01*
X60056250Y-59353391D02*
X58786250Y-60623391D01*
X58786250Y-73164641D02*
X60056250Y-74434641D01*
X58786250Y-61893391D02*
X58786250Y-73164641D01*
X58786250Y-58083391D02*
X60056250Y-59353391D01*
X58786250Y-76974641D02*
X58786250Y-79054095D01*
X60056250Y-74434641D02*
X58786250Y-75704641D01*
X58786250Y-60623391D02*
X58786250Y-61893391D01*
X58786250Y-75704641D02*
X58786250Y-76974641D01*
X60056250Y-44272141D02*
X58786250Y-45542141D01*
X90218750Y-89515891D02*
X88948750Y-90785891D01*
X67194296Y-87462141D02*
X88165000Y-87462141D01*
X58786250Y-79054095D02*
X67194296Y-87462141D01*
X88948750Y-90785891D02*
X88948750Y-92055891D01*
X58786250Y-46812141D02*
X58786250Y-58083391D01*
%TO.N,col3*%
X73867500Y-58083391D02*
X75137500Y-59353391D01*
X104542980Y-87012621D02*
X109586250Y-92055891D01*
X75137500Y-59353391D02*
X73867500Y-60623391D01*
X73867500Y-60623391D02*
X73867500Y-61893391D01*
X73867500Y-76974641D02*
X73867500Y-79054095D01*
X110856250Y-89515891D02*
X109586250Y-90785891D01*
X75137500Y-44272141D02*
X73867500Y-45542141D01*
X73867500Y-46812141D02*
X73867500Y-58083391D01*
X73867500Y-45542141D02*
X73867500Y-46812141D01*
X75137500Y-74434641D02*
X73867500Y-75704641D01*
X81826026Y-87012621D02*
X104542980Y-87012621D01*
X73867500Y-75704641D02*
X73867500Y-76974641D01*
X73867500Y-79054095D02*
X81826026Y-87012621D01*
X73867500Y-61893391D02*
X73867500Y-73164641D01*
X109586250Y-90785891D02*
X109586250Y-92055891D01*
X73867500Y-73164641D02*
X75137500Y-74434641D01*
%TO.N,col4*%
X90218750Y-74434641D02*
X88948750Y-75704641D01*
X112731250Y-91172141D02*
X111321250Y-92582141D01*
X96457756Y-86563101D02*
X110592210Y-86563101D01*
X110856250Y-93687141D02*
X110856250Y-104597141D01*
X110856250Y-104597141D02*
X109586250Y-105867141D01*
X112731250Y-88702141D02*
X112731250Y-91172141D01*
X90218750Y-44272141D02*
X88948750Y-45542141D01*
X88948750Y-73164641D02*
X90218750Y-74434641D01*
X88948750Y-76974641D02*
X88948750Y-79054095D01*
X88948750Y-60623391D02*
X88948750Y-61893391D01*
X88948750Y-75704641D02*
X88948750Y-76974641D01*
X88948750Y-79054095D02*
X96457756Y-86563101D01*
X109586250Y-105867141D02*
X109586250Y-107137141D01*
X88948750Y-58083391D02*
X90218750Y-59353391D01*
X88948750Y-46812141D02*
X88948750Y-58083391D01*
X90218750Y-59353391D02*
X88948750Y-60623391D01*
X111321250Y-92582141D02*
X111321250Y-93222141D01*
X88948750Y-61893391D02*
X88948750Y-73164641D01*
X88948750Y-45542141D02*
X88948750Y-46812141D01*
X111321250Y-93222141D02*
X110856250Y-93687141D01*
X110592210Y-86563101D02*
X112731250Y-88702141D01*
%TO.N,col5*%
X109586250Y-120948391D02*
X109586250Y-122218391D01*
X110856250Y-119678391D02*
X109586250Y-120948391D01*
X105300000Y-44272141D02*
X104030000Y-45542141D01*
X104030000Y-61893391D02*
X104030000Y-73164641D01*
X105300000Y-59353391D02*
X104030000Y-60623391D01*
X110856250Y-108857687D02*
X110856250Y-119678391D01*
X117250829Y-125263516D02*
X117250829Y-125581720D01*
X104030000Y-60623391D02*
X104030000Y-61893391D01*
X156551250Y-131232141D02*
X156551250Y-63872141D01*
X104030000Y-46812141D02*
X104030000Y-58083391D01*
X104030000Y-75704641D02*
X104030000Y-76974641D01*
X113180770Y-88515944D02*
X113180770Y-91030957D01*
X113180770Y-91030957D02*
X115764671Y-93614858D01*
X115764671Y-93614858D02*
X115764671Y-101668720D01*
X122901250Y-131232141D02*
X156551250Y-131232141D01*
X137685000Y-39509641D02*
X134510000Y-39509641D01*
X117250829Y-125581720D02*
X122901250Y-131232141D01*
X105300000Y-74434641D02*
X104030000Y-75704641D01*
X104030000Y-58083391D02*
X105300000Y-59353391D01*
X138796250Y-40620891D02*
X138796250Y-46117141D01*
X104030000Y-45542141D02*
X104030000Y-46812141D01*
X104030000Y-79365173D02*
X113180770Y-88515944D01*
X156551250Y-63872141D02*
X138796250Y-46117141D01*
X104030000Y-76974641D02*
X104030000Y-79365173D01*
X109586250Y-122218391D02*
X114205704Y-122218391D01*
X113391250Y-106322687D02*
X110856250Y-108857687D01*
X104030000Y-73164641D02*
X105300000Y-74434641D01*
X138796250Y-40620891D02*
X137685000Y-39509641D01*
X114205704Y-122218391D02*
X117250829Y-125263516D01*
X113391250Y-104042141D02*
X113391250Y-106322687D01*
X115764671Y-101668720D02*
X113391250Y-104042141D01*
%TO.N,SCL*%
X137286250Y-36969641D02*
X140577500Y-40260891D01*
X134510000Y-36969641D02*
X137286250Y-36969641D01*
D22*
%TO.N,VCC*%
X140577500Y-25020891D02*
X144627500Y-25020891D01*
D21*
%TO.N,SDA*%
X144627500Y-40260891D02*
X149288750Y-40260891D01*
X149288750Y-40260891D02*
X157702500Y-31847141D01*
X134510000Y-34429641D02*
X138796250Y-34429641D01*
X138796250Y-34429641D02*
X144627500Y-40260891D01*
D22*
%TO.N,GND*%
X134510000Y-29349641D02*
X147500000Y-29349641D01*
X147500000Y-29349641D02*
X149602500Y-27247141D01*
X147500000Y-29349641D02*
X147500000Y-34344641D01*
X131970000Y-26809641D02*
X134510000Y-29349641D01*
X119270000Y-26809641D02*
X131970000Y-26809641D01*
X134510000Y-29349641D02*
X134510000Y-31889641D01*
X147500000Y-34344641D02*
X149602500Y-36447141D01*
%TD*%
M02*
