M48
; DRILL file {KiCad (6.0.5)} date Mon May 16 23:14:24 2022
; FORMAT={-:-/ absolute / inch / decimal}
; #@! TF.CreationDate,2022-05-16T23:14:24-04:00
; #@! TF.GenerationSoftware,Kicad,Pcbnew,(6.0.5)
; #@! TF.FileFunction,Plated,1,2,PTH
FMAT,2
INCH
; #@! TA.AperFunction,Plated,PTH,ComponentDrill
T1C0.0315
; #@! TA.AperFunction,Plated,PTH,ComponentDrill
T2C0.0354
; #@! TA.AperFunction,Plated,PTH,ComponentDrill
T3C0.0394
; #@! TA.AperFunction,Plated,PTH,ComponentDrill
T4C0.0430
; #@! TA.AperFunction,Plated,PTH,ComponentDrill
T5C0.0590
%
G90
G05
T1
X5.5345Y-0.9851
X5.5345Y-1.5851
X5.694Y-0.9851
X5.694Y-1.5851
T3
X1.1461Y-1.0769
X1.1461Y-1.3839
X1.417Y-1.2832
X1.417Y-1.5902
X1.7075Y-1.0769
X1.7075Y-1.3839
X2.0237Y-1.2832
X2.0237Y-1.5902
X2.3205Y-1.0769
X2.3205Y-1.3839
X2.63Y-1.2832
X2.63Y-1.5902
X2.9142Y-1.0769
X2.9142Y-1.3839
X3.2174Y-1.2832
X3.2174Y-1.5902
X3.6044Y-1.0769
X3.6044Y-1.3839
X3.8367Y-1.2832
X3.8367Y-1.5902
X4.0949Y-1.0769
X4.0949Y-1.3839
X4.4052Y-1.2891
X4.4052Y-1.5961
X4.5985Y-2.9182
X4.6827Y-3.0162
X4.7646Y-3.1158
X4.8497Y-3.2123
X4.9056Y-2.9182
X4.9359Y-3.3084
X4.9898Y-3.0162
X5.0158Y-3.4048
X5.0717Y-3.1158
X5.1567Y-3.2123
X5.243Y-3.3084
X5.3229Y-3.4048
X5.7815Y-3.9371
X5.7831Y-4.5587
X5.7839Y-5.108
X5.7855Y-3.7347
X5.7867Y-3.53
X6.0886Y-3.9371
X6.0902Y-4.5587
X6.091Y-5.108
X6.0926Y-3.7347
X6.0938Y-3.53
T4
X4.6452Y-0.8796
X4.6452Y-0.9796
X4.6452Y-1.0796
X4.6452Y-1.1796
X4.6452Y-1.2796
X4.6452Y-1.3796
X4.6452Y-1.4796
X4.6452Y-1.5796
X4.6452Y-1.6796
X4.6452Y-1.7796
X4.6452Y-1.8796
X4.6452Y-1.9796
X4.7452Y-1.9796
X4.8452Y-1.9796
X4.9452Y-1.9796
X5.0452Y-1.9796
X5.1452Y-1.9796
X5.2362Y-1.9796
X5.2452Y-0.8796
X5.2452Y-0.9796
X5.2452Y-1.0796
X5.2452Y-1.1796
X5.2452Y-1.2796
X5.2452Y-1.3796
X5.2452Y-1.4796
X5.2452Y-1.5796
X5.2452Y-1.6796
X5.2452Y-1.7796
X5.2452Y-1.8796
T5
X1.1269Y-1.843
X1.1269Y-2.4367
X1.1269Y-3.0305
X1.1769Y-1.743
X1.1769Y-2.3367
X1.1769Y-2.9305
X1.3769Y-1.743
X1.3769Y-2.3367
X1.3769Y-2.9305
X1.4269Y-1.843
X1.4269Y-2.4367
X1.4269Y-3.0305
X1.7207Y-1.843
X1.7207Y-2.4367
X1.7207Y-3.0305
X1.7707Y-1.743
X1.7707Y-2.3367
X1.7707Y-2.9305
X1.9707Y-1.743
X1.9707Y-2.3367
X1.9707Y-2.9305
X2.0207Y-1.843
X2.0207Y-2.4367
X2.0207Y-3.0305
X2.3144Y-1.843
X2.3144Y-2.4367
X2.3144Y-3.0305
X2.3644Y-1.743
X2.3644Y-2.3367
X2.3644Y-2.9305
X2.5644Y-1.743
X2.5644Y-2.3367
X2.5644Y-2.9305
X2.6144Y-1.843
X2.6144Y-2.4367
X2.6144Y-3.0305
X2.9082Y-1.843
X2.9082Y-2.4367
X2.9082Y-3.0305
X2.9082Y-3.6242
X2.9582Y-1.743
X2.9582Y-2.3367
X2.9582Y-2.9305
X2.9582Y-3.5242
X3.1582Y-1.743
X3.1582Y-2.3367
X3.1582Y-2.9305
X3.1582Y-3.5242
X3.2082Y-1.843
X3.2082Y-2.4367
X3.2082Y-3.0305
X3.2082Y-3.6242
X3.5019Y-1.843
X3.5019Y-2.4367
X3.5019Y-3.0305
X3.5019Y-3.6242
X3.5519Y-1.743
X3.5519Y-2.3367
X3.5519Y-2.9305
X3.5519Y-3.5242
X3.7519Y-1.743
X3.7519Y-2.3367
X3.7519Y-2.9305
X3.7519Y-3.5242
X3.8019Y-1.843
X3.8019Y-2.4367
X3.8019Y-3.0305
X3.8019Y-3.6242
X4.0957Y-1.843
X4.0957Y-2.4367
X4.0957Y-3.0305
X4.1457Y-1.743
X4.1457Y-2.3367
X4.1457Y-2.9305
X4.3144Y-3.6242
X4.3144Y-4.218
X4.3144Y-4.8117
X4.3457Y-1.743
X4.3457Y-2.3367
X4.3457Y-2.9305
X4.3644Y-3.5242
X4.3644Y-4.118
X4.3644Y-4.7117
X4.3957Y-1.843
X4.3957Y-2.4367
X4.3957Y-3.0305
X4.5644Y-3.5242
X4.5644Y-4.118
X4.5644Y-4.7117
X4.6144Y-3.6242
X4.6144Y-4.218
X4.6144Y-4.8117
T2
G00X5.9017Y-1.0727
M15
G01X5.8781Y-1.0727
M16
G05
G00X5.9017Y-1.4349
M15
G01X5.8781Y-1.4349
M16
G05
G00X5.945Y-1.2538
M15
G01X5.9214Y-1.2538
M16
G05
G00X6.1025Y-1.2538
M15
G01X6.0788Y-1.2538
M16
G05
G00X6.2206Y-1.2538
M15
G01X6.1969Y-1.2538
M16
G05
T0
M30
