M48
; DRILL file {KiCad (6.0.5)} date Mon May 16 23:14:24 2022
; FORMAT={-:-/ absolute / inch / decimal}
; #@! TF.CreationDate,2022-05-16T23:14:24-04:00
; #@! TF.GenerationSoftware,Kicad,Pcbnew,(6.0.5)
; #@! TF.FileFunction,NonPlated,1,2,NPTH
FMAT,2
INCH
; #@! TA.AperFunction,NonPlated,NPTH,ComponentDrill
T1C0.0591
; #@! TA.AperFunction,NonPlated,NPTH,ComponentDrill
T2C0.0670
; #@! TA.AperFunction,NonPlated,NPTH,ComponentDrill
T3C0.0866
; #@! TA.AperFunction,NonPlated,NPTH,ComponentDrill
T4C0.1570
%
G90
G05
T1
X5.9962Y-1.1633
X5.9962Y-1.3444
X6.2718Y-1.1633
X6.2718Y-1.3444
T2
X1.0769Y-1.943
X1.0769Y-2.5367
X1.0769Y-3.1305
X1.4769Y-1.943
X1.4769Y-2.5367
X1.4769Y-3.1305
X1.6707Y-1.943
X1.6707Y-2.5367
X1.6707Y-3.1305
X2.0707Y-1.943
X2.0707Y-2.5367
X2.0707Y-3.1305
X2.2644Y-1.943
X2.2644Y-2.5367
X2.2644Y-3.1305
X2.6644Y-1.943
X2.6644Y-2.5367
X2.6644Y-3.1305
X2.8582Y-1.943
X2.8582Y-2.5367
X2.8582Y-3.1305
X2.8582Y-3.7242
X3.2582Y-1.943
X3.2582Y-2.5367
X3.2582Y-3.1305
X3.2582Y-3.7242
X3.4519Y-1.943
X3.4519Y-2.5367
X3.4519Y-3.1305
X3.4519Y-3.7242
X3.8519Y-1.943
X3.8519Y-2.5367
X3.8519Y-3.1305
X3.8519Y-3.7242
X4.0457Y-1.943
X4.0457Y-2.5367
X4.0457Y-3.1305
X4.2644Y-3.7242
X4.2644Y-4.318
X4.2644Y-4.9117
X4.4457Y-1.943
X4.4457Y-2.5367
X4.4457Y-3.1305
X4.6644Y-3.7242
X4.6644Y-4.318
X4.6644Y-4.9117
T3
X0.8457Y-0.9055
X0.8457Y-3.5617
X2.1894Y-2.2492
X2.6269Y-4.1555
X2.7832Y-2.843
X3.9394Y-2.2492
X4.0332Y-5.3742
X4.0644Y-3.718
X6.2519Y-0.9117
X6.2519Y-5.3742
T4
X1.2769Y-1.943
X1.2769Y-2.5367
X1.2769Y-3.1305
X1.8707Y-1.943
X1.8707Y-2.5367
X1.8707Y-3.1305
X2.4644Y-1.943
X2.4644Y-2.5367
X2.4644Y-3.1305
X3.0582Y-1.943
X3.0582Y-2.5367
X3.0582Y-3.1305
X3.0582Y-3.7242
X3.6519Y-1.943
X3.6519Y-2.5367
X3.6519Y-3.1305
X3.6519Y-3.7242
X4.2457Y-1.943
X4.2457Y-2.5367
X4.2457Y-3.1305
X4.4644Y-3.7242
X4.4644Y-4.318
X4.4644Y-4.9117
T0
M30
