%TF.GenerationSoftware,KiCad,Pcbnew,(6.0.5)*%
%TF.CreationDate,2022-05-16T23:14:11-04:00*%
%TF.ProjectId,keybert,6b657962-6572-4742-9e6b-696361645f70,0.0.1a*%
%TF.SameCoordinates,Original*%
%TF.FileFunction,Soldermask,Bot*%
%TF.FilePolarity,Negative*%
%FSLAX46Y46*%
G04 Gerber Fmt 4.6, Leading zero omitted, Abs format (unit mm)*
G04 Created by KiCad (PCBNEW (6.0.5)) date 2022-05-16 23:14:11*
%MOMM*%
%LPD*%
G01*
G04 APERTURE LIST*
%ADD10C,2.200000*%
%ADD11C,1.600000*%
%ADD12O,1.600000X1.600000*%
%ADD13C,1.500000*%
%ADD14O,2.200000X1.600000*%
%ADD15C,1.701800*%
%ADD16C,3.987800*%
%ADD17C,2.286000*%
%ADD18R,1.600000X1.600000*%
%ADD19R,1.600000X1.200000*%
%ADD20R,1.200000X1.600000*%
%ADD21R,3.250000X2.000000*%
%ADD22R,1.752600X1.752600*%
%ADD23C,1.752600*%
%ADD24R,2.000000X3.250000*%
G04 APERTURE END LIST*
D10*
%TO.C,REF\u002A\u002A*%
X158798750Y-23158391D03*
%TD*%
D11*
%TO.C,R0*%
X144627500Y-40260891D03*
D12*
X144627500Y-25020891D03*
%TD*%
D10*
%TO.C,REF\u002A\u002A*%
X21480000Y-22999641D03*
%TD*%
D13*
%TO.C,J0*%
X159302500Y-34147141D03*
X152302500Y-29547141D03*
X159302500Y-29547141D03*
X152302500Y-34147141D03*
D14*
X149602500Y-27247141D03*
X149602500Y-36447141D03*
X150702500Y-31847141D03*
X154702500Y-31847141D03*
X157702500Y-31847141D03*
%TD*%
D10*
%TO.C,REF\u002A\u002A*%
X158798750Y-136505891D03*
%TD*%
D15*
%TO.C,MX19*%
X102760000Y-79514641D03*
X112920000Y-79514641D03*
D16*
X107840000Y-79514641D03*
D17*
X105300000Y-74434641D03*
X104030000Y-76974641D03*
X111650000Y-76974641D03*
X110380000Y-74434641D03*
%TD*%
D15*
%TO.C,MX11*%
X82757500Y-79514641D03*
X72597500Y-79514641D03*
D16*
X77677500Y-79514641D03*
D17*
X73867500Y-76974641D03*
X75137500Y-74434641D03*
X81487500Y-76974641D03*
X80217500Y-74434641D03*
%TD*%
D15*
%TO.C,MX20*%
X108316250Y-94595891D03*
D16*
X113396250Y-94595891D03*
D15*
X118476250Y-94595891D03*
D17*
X109586250Y-92055891D03*
X110856250Y-89515891D03*
X117206250Y-92055891D03*
X115936250Y-89515891D03*
%TD*%
D16*
%TO.C,MX12*%
X77677500Y-94595891D03*
D15*
X72597500Y-94595891D03*
X82757500Y-94595891D03*
D17*
X75137500Y-89515891D03*
X73867500Y-92055891D03*
X81487500Y-92055891D03*
X80217500Y-89515891D03*
%TD*%
D10*
%TO.C,REF\u002A\u002A*%
X66723750Y-105549641D03*
%TD*%
%TO.C,REF\u002A\u002A*%
X102442500Y-136505891D03*
%TD*%
D15*
%TO.C,MX18*%
X112920000Y-64433391D03*
D16*
X107840000Y-64433391D03*
D15*
X102760000Y-64433391D03*
D17*
X105300000Y-59353391D03*
X104030000Y-61893391D03*
X110380000Y-59353391D03*
X111650000Y-61893391D03*
%TD*%
D10*
%TO.C,REF\u002A\u002A*%
X55611250Y-57130891D03*
%TD*%
D15*
%TO.C,MX10*%
X72597500Y-64433391D03*
D16*
X77677500Y-64433391D03*
D15*
X82757500Y-64433391D03*
D17*
X75137500Y-59353391D03*
X73867500Y-61893391D03*
X80217500Y-59353391D03*
X81487500Y-61893391D03*
%TD*%
D15*
%TO.C,MX15*%
X87678750Y-79514641D03*
D16*
X92758750Y-79514641D03*
D15*
X97838750Y-79514641D03*
D17*
X90218750Y-74434641D03*
X88948750Y-76974641D03*
X96568750Y-76974641D03*
X95298750Y-74434641D03*
%TD*%
D16*
%TO.C,MX7*%
X62596250Y-64433391D03*
D15*
X67676250Y-64433391D03*
X57516250Y-64433391D03*
D17*
X60056250Y-59353391D03*
X58786250Y-61893391D03*
X66406250Y-61893391D03*
X65136250Y-59353391D03*
%TD*%
D15*
%TO.C,MX3*%
X42435000Y-49352141D03*
X52595000Y-49352141D03*
D16*
X47515000Y-49352141D03*
D17*
X44975000Y-44272141D03*
X43705000Y-46812141D03*
X51325000Y-46812141D03*
X50055000Y-44272141D03*
%TD*%
D16*
%TO.C,MX14*%
X92758750Y-64433391D03*
D15*
X97838750Y-64433391D03*
X87678750Y-64433391D03*
D17*
X90218750Y-59353391D03*
X88948750Y-61893391D03*
X95298750Y-59353391D03*
X96568750Y-61893391D03*
%TD*%
D10*
%TO.C,REF\u002A\u002A*%
X100061250Y-57130891D03*
%TD*%
%TO.C,REF\u002A\u002A*%
X21480000Y-90468391D03*
%TD*%
D16*
%TO.C,MX0*%
X32433750Y-49352141D03*
D15*
X27353750Y-49352141D03*
X37513750Y-49352141D03*
D17*
X28623750Y-46812141D03*
X29893750Y-44272141D03*
X34973750Y-44272141D03*
X36243750Y-46812141D03*
%TD*%
D16*
%TO.C,MX8*%
X62596250Y-79514641D03*
D15*
X67676250Y-79514641D03*
X57516250Y-79514641D03*
D17*
X60056250Y-74434641D03*
X58786250Y-76974641D03*
X66406250Y-76974641D03*
X65136250Y-74434641D03*
%TD*%
D10*
%TO.C,REF\u002A\u002A*%
X70692500Y-72212141D03*
%TD*%
D15*
%TO.C,MX22*%
X118476250Y-124758391D03*
D16*
X113396250Y-124758391D03*
D15*
X108316250Y-124758391D03*
D17*
X109586250Y-122218391D03*
X110856250Y-119678391D03*
X115936250Y-119678391D03*
X117206250Y-122218391D03*
%TD*%
D11*
%TO.C,R1*%
X140577500Y-40260891D03*
D12*
X140577500Y-25020891D03*
%TD*%
D15*
%TO.C,MX16*%
X87678750Y-94595891D03*
D16*
X92758750Y-94595891D03*
D15*
X97838750Y-94595891D03*
D17*
X90218750Y-89515891D03*
X88948750Y-92055891D03*
X95298750Y-89515891D03*
X96568750Y-92055891D03*
%TD*%
D10*
%TO.C,REF\u002A\u002A*%
X103236250Y-94437141D03*
%TD*%
D15*
%TO.C,MX13*%
X87678750Y-49352141D03*
X97838750Y-49352141D03*
D16*
X92758750Y-49352141D03*
D17*
X88948750Y-46812141D03*
X90218750Y-44272141D03*
X95298750Y-44272141D03*
X96568750Y-46812141D03*
%TD*%
D15*
%TO.C,MX21*%
X108316250Y-109677141D03*
D16*
X113396250Y-109677141D03*
D15*
X118476250Y-109677141D03*
D17*
X109586250Y-107137141D03*
X110856250Y-104597141D03*
X117206250Y-107137141D03*
X115936250Y-104597141D03*
%TD*%
D15*
%TO.C,MX17*%
X112920000Y-49352141D03*
X102760000Y-49352141D03*
D16*
X107840000Y-49352141D03*
D17*
X105300000Y-44272141D03*
X104030000Y-46812141D03*
X110380000Y-44272141D03*
X111650000Y-46812141D03*
%TD*%
D15*
%TO.C,MX6*%
X57516250Y-49352141D03*
X67676250Y-49352141D03*
D16*
X62596250Y-49352141D03*
D17*
X60056250Y-44272141D03*
X58786250Y-46812141D03*
X65136250Y-44272141D03*
X66406250Y-46812141D03*
%TD*%
D15*
%TO.C,MX4*%
X52595000Y-64433391D03*
X42435000Y-64433391D03*
D16*
X47515000Y-64433391D03*
D17*
X44975000Y-59353391D03*
X43705000Y-61893391D03*
X50055000Y-59353391D03*
X51325000Y-61893391D03*
%TD*%
D15*
%TO.C,MX2*%
X37513750Y-79514641D03*
D16*
X32433750Y-79514641D03*
D15*
X27353750Y-79514641D03*
D17*
X28623750Y-76974641D03*
X29893750Y-74434641D03*
X36243750Y-76974641D03*
X34973750Y-74434641D03*
%TD*%
D16*
%TO.C,MX9*%
X77677500Y-49352141D03*
D15*
X72597500Y-49352141D03*
X82757500Y-49352141D03*
D17*
X73867500Y-46812141D03*
X75137500Y-44272141D03*
X81487500Y-46812141D03*
X80217500Y-44272141D03*
%TD*%
D16*
%TO.C,MX5*%
X47515000Y-79514641D03*
D15*
X52595000Y-79514641D03*
X42435000Y-79514641D03*
D17*
X44975000Y-74434641D03*
X43705000Y-76974641D03*
X51325000Y-76974641D03*
X50055000Y-74434641D03*
%TD*%
D16*
%TO.C,MX1*%
X32433750Y-64433391D03*
D15*
X27353750Y-64433391D03*
X37513750Y-64433391D03*
D17*
X28623750Y-61893391D03*
X29893750Y-59353391D03*
X36243750Y-61893391D03*
X34973750Y-59353391D03*
%TD*%
D18*
%TO.C,D22*%
X154711250Y-129742141D03*
D19*
X152211250Y-129742141D03*
D11*
X146911250Y-129742141D03*
D19*
X149411250Y-129742141D03*
%TD*%
D18*
%TO.C,D4*%
X51401250Y-32592141D03*
D20*
X51401250Y-35092141D03*
D11*
X51401250Y-40392141D03*
D20*
X51401250Y-37892141D03*
%TD*%
D18*
%TO.C,D17*%
X104011250Y-27352141D03*
D20*
X104011250Y-29852141D03*
X104011250Y-32652141D03*
D11*
X104011250Y-35152141D03*
%TD*%
D19*
%TO.C,D19*%
X122101250Y-74122141D03*
D18*
X124601250Y-74122141D03*
D11*
X116801250Y-74122141D03*
D19*
X119301250Y-74122141D03*
%TD*%
D18*
%TO.C,D15*%
X126741250Y-76612141D03*
D19*
X124241250Y-76612141D03*
D11*
X118941250Y-76612141D03*
D19*
X121441250Y-76612141D03*
%TD*%
D20*
%TO.C,D3*%
X43371250Y-29852141D03*
D18*
X43371250Y-27352141D03*
D11*
X43371250Y-35152141D03*
D20*
X43371250Y-32652141D03*
%TD*%
%TO.C,D10*%
X81721250Y-35092141D03*
D18*
X81721250Y-32592141D03*
D20*
X81721250Y-37892141D03*
D11*
X81721250Y-40392141D03*
%TD*%
D18*
%TO.C,D16*%
X154751250Y-94862141D03*
D19*
X152251250Y-94862141D03*
X149451250Y-94862141D03*
D11*
X146951250Y-94862141D03*
%TD*%
D18*
%TO.C,D21*%
X154691250Y-115792141D03*
D19*
X152191250Y-115792141D03*
X149391250Y-115792141D03*
D11*
X146891250Y-115792141D03*
%TD*%
D18*
%TO.C,D20*%
X154781250Y-89662141D03*
D19*
X152281250Y-89662141D03*
X149481250Y-89662141D03*
D11*
X146981250Y-89662141D03*
%TD*%
D18*
%TO.C,D11*%
X128821250Y-79142141D03*
D19*
X126321250Y-79142141D03*
X123521250Y-79142141D03*
D11*
X121021250Y-79142141D03*
%TD*%
D20*
%TO.C,D13*%
X91551250Y-29852141D03*
D18*
X91551250Y-27352141D03*
D11*
X91551250Y-35152141D03*
D20*
X91551250Y-32652141D03*
%TD*%
D18*
%TO.C,D9*%
X74021250Y-27352141D03*
D20*
X74021250Y-29852141D03*
D11*
X74021250Y-35152141D03*
D20*
X74021250Y-32652141D03*
%TD*%
D18*
%TO.C,D8*%
X130981250Y-81592141D03*
D19*
X128481250Y-81592141D03*
D11*
X123181250Y-81592141D03*
D19*
X125681250Y-81592141D03*
%TD*%
D18*
%TO.C,D0*%
X29111250Y-27352141D03*
D20*
X29111250Y-29852141D03*
D11*
X29111250Y-35152141D03*
D20*
X29111250Y-32652141D03*
%TD*%
%TO.C,D18*%
X111891250Y-35242141D03*
D18*
X111891250Y-32742141D03*
D20*
X111891250Y-38042141D03*
D11*
X111891250Y-40542141D03*
%TD*%
D18*
%TO.C,D14*%
X97451250Y-32592141D03*
D20*
X97451250Y-35092141D03*
D11*
X97451250Y-40392141D03*
D20*
X97451250Y-37892141D03*
%TD*%
D18*
%TO.C,D2*%
X135201250Y-86482141D03*
D19*
X132701250Y-86482141D03*
X129901250Y-86482141D03*
D11*
X127401250Y-86482141D03*
%TD*%
D20*
%TO.C,D1*%
X35991250Y-35092141D03*
D18*
X35991250Y-32592141D03*
D11*
X35991250Y-40392141D03*
D20*
X35991250Y-37892141D03*
%TD*%
D19*
%TO.C,D12*%
X152151250Y-100002141D03*
D18*
X154651250Y-100002141D03*
D19*
X149351250Y-100002141D03*
D11*
X146851250Y-100002141D03*
%TD*%
D18*
%TO.C,D6*%
X58941250Y-27352141D03*
D20*
X58941250Y-29852141D03*
D11*
X58941250Y-35152141D03*
D20*
X58941250Y-32652141D03*
%TD*%
D18*
%TO.C,D7*%
X66801250Y-32592141D03*
D20*
X66801250Y-35092141D03*
D11*
X66801250Y-40392141D03*
D20*
X66801250Y-37892141D03*
%TD*%
D21*
%TO.C,MC-EC0*%
X135006270Y-22342911D03*
D22*
X133228270Y-22342911D03*
D21*
X135006270Y-24882911D03*
D23*
X133228270Y-24882911D03*
D21*
X135006270Y-27422911D03*
D23*
X133228270Y-27422911D03*
X133228270Y-29962911D03*
D21*
X135006270Y-29962911D03*
D23*
X133228270Y-32502911D03*
D21*
X135006270Y-32502911D03*
D23*
X133228270Y-35042911D03*
D21*
X135006270Y-35042911D03*
D23*
X133228270Y-37582911D03*
D21*
X135006270Y-37582911D03*
X135006270Y-40122911D03*
D23*
X133228270Y-40122911D03*
D21*
X135006270Y-42662911D03*
D23*
X133228270Y-42662911D03*
X133228270Y-45202911D03*
D21*
X135006270Y-45202911D03*
D23*
X133228270Y-47742911D03*
D21*
X135006270Y-47742911D03*
X135006270Y-50282911D03*
D23*
X132999670Y-50282911D03*
X117988270Y-50282911D03*
D21*
X116210270Y-50282911D03*
X116210270Y-47742911D03*
D23*
X117988270Y-47742911D03*
D21*
X116210270Y-45202911D03*
D23*
X117988270Y-45202911D03*
D21*
X116210270Y-42662911D03*
D23*
X117988270Y-42662911D03*
D21*
X116210270Y-40122911D03*
D23*
X117988270Y-40122911D03*
X117988270Y-37582911D03*
D21*
X116210270Y-37582911D03*
X116210270Y-35042911D03*
D23*
X117988270Y-35042911D03*
D21*
X116210270Y-32502911D03*
D23*
X117988270Y-32502911D03*
X117988270Y-29962911D03*
D21*
X116210270Y-29962911D03*
D23*
X117988270Y-27422911D03*
D21*
X116210270Y-27422911D03*
X116210270Y-24882911D03*
D23*
X117988270Y-24882911D03*
D21*
X116210270Y-22342911D03*
D23*
X117988270Y-22342911D03*
X130688270Y-50282911D03*
D24*
X130688270Y-52187911D03*
D23*
X128148270Y-50282911D03*
D24*
X128148270Y-52187911D03*
X125608270Y-52187911D03*
D23*
X125608270Y-50282911D03*
D24*
X123068270Y-52187911D03*
D23*
X123068270Y-50282911D03*
D24*
X120528270Y-52187911D03*
D23*
X120528270Y-50282911D03*
%TD*%
D18*
%TO.C,D5*%
X133171250Y-84032141D03*
D19*
X130671250Y-84032141D03*
D11*
X125371250Y-84032141D03*
D19*
X127871250Y-84032141D03*
%TD*%
M02*
